<svg width="62" height="3" viewBox="0 0 62 3" fill="none" xmlns="http://www.w3.org/2000/svg">
<path d="M2.08022 2.92995C2.83132 2.92995 3.44022 2.32107 3.44022 1.56996C3.44022 0.818854 2.83132 0.209961 2.08022 0.209961C1.32911 0.209961 0.720215 0.818854 0.720215 1.56996C0.720215 2.32107 1.32911 2.92995 2.08022 2.92995Z" fill="white"/>
<path d="M6.83998 2.92995C7.59109 2.92995 8.19998 2.32107 8.19998 1.56996C8.19998 0.818854 7.59109 0.209961 6.83998 0.209961C6.08887 0.209961 5.47998 0.818854 5.47998 1.56996C5.47998 2.32107 6.08887 2.92995 6.83998 2.92995Z" fill="white"/>
<path d="M11.65 2.92995C12.4011 2.92995 13.01 2.32107 13.01 1.56996C13.01 0.818854 12.4011 0.209961 11.65 0.209961C10.8989 0.209961 10.29 0.818854 10.29 1.56996C10.29 2.32107 10.8989 2.92995 11.65 2.92995Z" fill="white"/>
<path d="M16.4601 2.92995C17.2112 2.92995 17.8201 2.32107 17.8201 1.56996C17.8201 0.818854 17.2112 0.209961 16.4601 0.209961C15.709 0.209961 15.1001 0.818854 15.1001 1.56996C15.1001 2.32107 15.709 2.92995 16.4601 2.92995Z" fill="white"/>
<path d="M21.2702 2.92995C22.0213 2.92995 22.6302 2.32107 22.6302 1.56996C22.6302 0.818854 22.0213 0.209961 21.2702 0.209961C20.519 0.209961 19.9102 0.818854 19.9102 1.56996C19.9102 2.32107 20.519 2.92995 21.2702 2.92995Z" fill="white"/>
<path d="M26.5099 2.92995C27.261 2.92995 27.8699 2.32107 27.8699 1.56996C27.8699 0.818854 27.261 0.209961 26.5099 0.209961C25.7588 0.209961 25.1499 0.818854 25.1499 1.56996C25.1499 2.32107 25.7588 2.92995 26.5099 2.92995Z" fill="white"/>
<path d="M31.2702 2.92995C32.0213 2.92995 32.6302 2.32107 32.6302 1.56996C32.6302 0.818854 32.0213 0.209961 31.2702 0.209961C30.519 0.209961 29.9102 0.818854 29.9102 1.56996C29.9102 2.32107 30.519 2.92995 31.2702 2.92995Z" fill="white"/>
<path d="M36.0802 2.92995C36.8313 2.92995 37.4402 2.32107 37.4402 1.56996C37.4402 0.818854 36.8313 0.209961 36.0802 0.209961C35.3291 0.209961 34.7202 0.818854 34.7202 1.56996C34.7202 2.32107 35.3291 2.92995 36.0802 2.92995Z" fill="white"/>
<path d="M40.8898 2.92995C41.6409 2.92995 42.2498 2.32107 42.2498 1.56996C42.2498 0.818854 41.6409 0.209961 40.8898 0.209961C40.1387 0.209961 39.5298 0.818854 39.5298 1.56996C39.5298 2.32107 40.1387 2.92995 40.8898 2.92995Z" fill="white"/>
<path d="M45.6998 2.92995C46.451 2.92995 47.0598 2.32107 47.0598 1.56996C47.0598 0.818854 46.451 0.209961 45.6998 0.209961C44.9487 0.209961 44.3398 0.818854 44.3398 1.56996C44.3398 2.32107 44.9487 2.92995 45.6998 2.92995Z" fill="white"/>
<path d="M50.6998 2.92995C51.451 2.92995 52.0598 2.32107 52.0598 1.56996C52.0598 0.818854 51.451 0.209961 50.6998 0.209961C49.9487 0.209961 49.3398 0.818854 49.3398 1.56996C49.3398 2.32107 49.9487 2.92995 50.6998 2.92995Z" fill="white"/>
<path d="M55.5099 2.92995C56.261 2.92995 56.8699 2.32107 56.8699 1.56996C56.8699 0.818854 56.261 0.209961 55.5099 0.209961C54.7588 0.209961 54.1499 0.818854 54.1499 1.56996C54.1499 2.32107 54.7588 2.92995 55.5099 2.92995Z" fill="white"/>
<path d="M60.32 2.92995C61.0711 2.92995 61.6799 2.32107 61.6799 1.56996C61.6799 0.818854 61.0711 0.209961 60.32 0.209961C59.5689 0.209961 58.96 0.818854 58.96 1.56996C58.96 2.32107 59.5689 2.92995 60.32 2.92995Z" fill="white"/>
</svg>
