<svg width="4" height="46" viewBox="0 0 4 46" fill="none" xmlns="http://www.w3.org/2000/svg">
<path d="M1.86975 45.7901C2.62086 45.7901 3.22977 45.1812 3.22977 44.4301C3.22977 43.6789 2.62086 43.0701 1.86975 43.0701C1.11864 43.0701 0.509766 43.6789 0.509766 44.4301C0.509766 45.1812 1.11864 45.7901 1.86975 45.7901Z" fill="white"/>
<path d="M1.86975 40.96C2.62086 40.96 3.22977 40.3511 3.22977 39.6C3.22977 38.8489 2.62086 38.24 1.86975 38.24C1.11864 38.24 0.509766 38.8489 0.509766 39.6C0.509766 40.3511 1.11864 40.96 1.86975 40.96Z" fill="white"/>
<path d="M1.86975 36.14C2.62086 36.14 3.22977 35.5311 3.22977 34.78C3.22977 34.0289 2.62086 33.42 1.86975 33.42C1.11864 33.42 0.509766 34.0289 0.509766 34.78C0.509766 35.5311 1.11864 36.14 1.86975 36.14Z" fill="white"/>
<path d="M1.86975 31.31C2.62086 31.31 3.22977 30.7011 3.22977 29.95C3.22977 29.1989 2.62086 28.59 1.86975 28.59C1.11864 28.59 0.509766 29.1989 0.509766 29.95C0.509766 30.7011 1.11864 31.31 1.86975 31.31Z" fill="white"/>
<path d="M1.86975 26.6599C2.62086 26.6599 3.22977 26.051 3.22977 25.2999C3.22977 24.5488 2.62086 23.9399 1.86975 23.9399C1.11864 23.9399 0.509766 24.5488 0.509766 25.2999C0.509766 26.051 1.11864 26.6599 1.86975 26.6599Z" fill="white"/>
<path d="M1.86975 22C2.62086 22 3.22977 21.3911 3.22977 20.64C3.22977 19.8889 2.62086 19.28 1.86975 19.28C1.11864 19.28 0.509766 19.8889 0.509766 20.64C0.509766 21.3911 1.11864 22 1.86975 22Z" fill="white"/>
<path d="M1.86975 17.35C2.62086 17.35 3.22977 16.7411 3.22977 15.99C3.22977 15.2389 2.62086 14.63 1.86975 14.63C1.11864 14.63 0.509766 15.2389 0.509766 15.99C0.509766 16.7411 1.11864 17.35 1.86975 17.35Z" fill="white"/>
<path d="M1.86975 12.69C2.62086 12.69 3.22977 12.0811 3.22977 11.33C3.22977 10.5789 2.62086 9.96997 1.86975 9.96997C1.11864 9.96997 0.509766 10.5789 0.509766 11.33C0.509766 12.0811 1.11864 12.69 1.86975 12.69Z" fill="white"/>
<path d="M1.86975 8.04005C2.62086 8.04005 3.22977 7.43116 3.22977 6.68005C3.22977 5.92895 2.62086 5.32007 1.86975 5.32007C1.11864 5.32007 0.509766 5.92895 0.509766 6.68005C0.509766 7.43116 1.11864 8.04005 1.86975 8.04005Z" fill="white"/>
<path d="M1.86975 3.38004C2.62086 3.38004 3.22977 2.77114 3.22977 2.02003C3.22977 1.26893 2.62086 0.660034 1.86975 0.660034C1.11864 0.660034 0.509766 1.26893 0.509766 2.02003C0.509766 2.77114 1.11864 3.38004 1.86975 3.38004Z" fill="white"/>
</svg>
