<?xml version="1.0" encoding="UTF-8"?>
<svg id="Calque_3" data-name="Calque 3" xmlns="http://www.w3.org/2000/svg" viewBox="0 0 532 505">
  <defs>
    <style>
      .cls-1 {
        fill: #fff;
      }
    </style>
  </defs>
  <circle class="cls-1" cx="143.08" cy="130.57" r="1.36"/>
  <circle class="cls-1" cx="147.84" cy="130.57" r="1.36"/>
  <circle class="cls-1" cx="152.65" cy="130.57" r="1.36"/>
  <circle class="cls-1" cx="157.46" cy="130.57" r="1.36"/>
  <circle class="cls-1" cx="162.27" cy="130.57" r="1.36"/>
  <circle class="cls-1" cx="167.51" cy="130.57" r="1.36"/>
  <circle class="cls-1" cx="172.27" cy="130.57" r="1.36"/>
  <circle class="cls-1" cx="177.08" cy="130.57" r="1.36"/>
  <circle class="cls-1" cx="181.89" cy="130.57" r="1.36"/>
  <circle class="cls-1" cx="186.7" cy="130.57" r="1.36"/>
  <circle class="cls-1" cx="191.7" cy="130.57" r="1.36"/>
  <circle class="cls-1" cx="196.51" cy="130.57" r="1.36"/>
  <circle class="cls-1" cx="201.32" cy="130.57" r="1.36"/>
  <circle class="cls-1" cx="150.92" cy="365.55" r="1.36"/>
  <circle class="cls-1" cx="155.69" cy="365.55" r="1.36"/>
  <circle class="cls-1" cx="160.5" cy="365.55" r="1.36"/>
  <circle class="cls-1" cx="165.31" cy="365.55" r="1.36"/>
  <circle class="cls-1" cx="170.12" cy="365.55" r="1.36"/>
  <circle class="cls-1" cx="175.36" cy="365.55" r="1.36"/>
  <circle class="cls-1" cx="180.12" cy="365.55" r="1.36"/>
  <circle class="cls-1" cx="184.93" cy="365.55" r="1.36"/>
  <circle class="cls-1" cx="189.74" cy="365.55" r="1.36"/>
  <circle class="cls-1" cx="194.55" cy="365.55" r="1.36"/>
  <circle class="cls-1" cx="199.54" cy="365.55" r="1.36"/>
  <circle class="cls-1" cx="204.35" cy="365.55" r="1.36"/>
  <circle class="cls-1" cx="209.17" cy="365.55" r="1.36"/>
  <circle class="cls-1" cx="153.98" cy="357.06" r="1.36"/>
  <circle class="cls-1" cx="145.27" cy="365.55" r="1.36"/>
  <circle class="cls-1" cx="148.1" cy="362.83" r="1.36"/>
  <circle class="cls-1" cx="150.92" cy="360.03" r="1.36"/>
  <circle class="cls-1" cx="153.98" cy="374.43" r="1.36"/>
  <circle class="cls-1" cx="150.92" cy="371.07" r="1.36"/>
  <circle class="cls-1" cx="148.1" cy="368.26" r="1.36"/>
  <circle class="cls-1" cx="351.87" cy="274.43" r="1.36"/>
  <circle class="cls-1" cx="351.87" cy="269.6" r="1.36"/>
  <circle class="cls-1" cx="351.87" cy="264.78" r="1.36"/>
  <circle class="cls-1" cx="351.87" cy="259.95" r="1.36"/>
  <circle class="cls-1" cx="351.87" cy="255.3" r="1.36"/>
  <circle class="cls-1" cx="351.87" cy="250.64" r="1.36"/>
  <circle class="cls-1" cx="351.87" cy="245.99" r="1.36"/>
  <circle class="cls-1" cx="351.87" cy="241.33" r="1.36"/>
  <circle class="cls-1" cx="351.87" cy="236.68" r="1.36"/>
  <circle class="cls-1" cx="351.87" cy="232.02" r="1.36"/>
</svg>