<svg width="68" height="21" viewBox="0 0 68 21" fill="none" xmlns="http://www.w3.org/2000/svg">
<path d="M7.92006 11.9099C8.67117 11.9099 9.28006 11.301 9.28006 10.5499C9.28006 9.79882 8.67117 9.18994 7.92006 9.18994C7.16895 9.18994 6.56006 9.79882 6.56006 10.5499C6.56006 11.301 7.16895 11.9099 7.92006 11.9099Z" fill="white"/>
<path d="M12.6901 11.9099C13.4412 11.9099 14.0501 11.301 14.0501 10.5499C14.0501 9.79882 13.4412 9.18994 12.6901 9.18994C11.939 9.18994 11.3301 9.79882 11.3301 10.5499C11.3301 11.301 11.939 11.9099 12.6901 11.9099Z" fill="white"/>
<path d="M17.5001 11.9099C18.2512 11.9099 18.8601 11.301 18.8601 10.5499C18.8601 9.79882 18.2512 9.18994 17.5001 9.18994C16.749 9.18994 16.1401 9.79882 16.1401 10.5499C16.1401 11.301 16.749 11.9099 17.5001 11.9099Z" fill="white"/>
<path d="M22.3102 11.9099C23.0613 11.9099 23.6702 11.301 23.6702 10.5499C23.6702 9.79882 23.0613 9.18994 22.3102 9.18994C21.5591 9.18994 20.9502 9.79882 20.9502 10.5499C20.9502 11.301 21.5591 11.9099 22.3102 11.9099Z" fill="white"/>
<path d="M27.1198 11.9099C27.8709 11.9099 28.4798 11.301 28.4798 10.5499C28.4798 9.79882 27.8709 9.18994 27.1198 9.18994C26.3687 9.18994 25.7598 9.79882 25.7598 10.5499C25.7598 11.301 26.3687 11.9099 27.1198 11.9099Z" fill="white"/>
<path d="M32.36 11.9099C33.1111 11.9099 33.72 11.301 33.72 10.5499C33.72 9.79882 33.1111 9.18994 32.36 9.18994C31.6089 9.18994 31 9.79882 31 10.5499C31 11.301 31.6089 11.9099 32.36 11.9099Z" fill="white"/>
<path d="M37.1198 11.9099C37.8709 11.9099 38.4798 11.301 38.4798 10.5499C38.4798 9.79882 37.8709 9.18994 37.1198 9.18994C36.3687 9.18994 35.7598 9.79882 35.7598 10.5499C35.7598 11.301 36.3687 11.9099 37.1198 11.9099Z" fill="white"/>
<path d="M41.9298 11.9099C42.6809 11.9099 43.2898 11.301 43.2898 10.5499C43.2898 9.79882 42.6809 9.18994 41.9298 9.18994C41.1787 9.18994 40.5698 9.79882 40.5698 10.5499C40.5698 11.301 41.1787 11.9099 41.9298 11.9099Z" fill="white"/>
<path d="M46.7399 11.9099C47.491 11.9099 48.0999 11.301 48.0999 10.5499C48.0999 9.79882 47.491 9.18994 46.7399 9.18994C45.9888 9.18994 45.3799 9.79882 45.3799 10.5499C45.3799 11.301 45.9888 11.9099 46.7399 11.9099Z" fill="white"/>
<path d="M51.5499 11.9099C52.301 11.9099 52.9099 11.301 52.9099 10.5499C52.9099 9.79882 52.301 9.18994 51.5499 9.18994C50.7988 9.18994 50.1899 9.79882 50.1899 10.5499C50.1899 11.301 50.7988 11.9099 51.5499 11.9099Z" fill="white"/>
<path d="M56.5402 11.9099C57.2913 11.9099 57.9002 11.301 57.9002 10.5499C57.9002 9.79882 57.2913 9.18994 56.5402 9.18994C55.7891 9.18994 55.1802 9.79882 55.1802 10.5499C55.1802 11.301 55.7891 11.9099 56.5402 11.9099Z" fill="white"/>
<path d="M61.3502 11.9099C62.1013 11.9099 62.7102 11.301 62.7102 10.5499C62.7102 9.79882 62.1013 9.18994 61.3502 9.18994C60.5991 9.18994 59.9902 9.79882 59.9902 10.5499C59.9902 11.301 60.5991 11.9099 61.3502 11.9099Z" fill="white"/>
<path d="M66.1701 11.9099C66.9212 11.9099 67.5301 11.301 67.5301 10.5499C67.5301 9.79882 66.9212 9.18994 66.1701 9.18994C65.419 9.18994 64.8101 9.79882 64.8101 10.5499C64.8101 11.301 65.419 11.9099 66.1701 11.9099Z" fill="white"/>
<path d="M10.9801 3.41995C11.7312 3.41995 12.3401 2.81104 12.3401 2.05994C12.3401 1.30883 11.7312 0.699951 10.9801 0.699951C10.229 0.699951 9.62012 1.30883 9.62012 2.05994C9.62012 2.81104 10.229 3.41995 10.9801 3.41995Z" fill="white"/>
<path d="M2.27016 11.9099C3.02126 11.9099 3.63016 11.301 3.63016 10.5499C3.63016 9.79882 3.02126 9.18994 2.27016 9.18994C1.51905 9.18994 0.910156 9.79882 0.910156 10.5499C0.910156 11.301 1.51905 11.9099 2.27016 11.9099Z" fill="white"/>
<path d="M5.10023 9.18997C5.85134 9.18997 6.46024 8.58106 6.46024 7.82996C6.46024 7.07885 5.85134 6.46997 5.10023 6.46997C4.34913 6.46997 3.74023 7.07885 3.74023 7.82996C3.74023 8.58106 4.34913 9.18997 5.10023 9.18997Z" fill="white"/>
<path d="M7.92006 6.39005C8.67117 6.39005 9.28006 5.78114 9.28006 5.03003C9.28006 4.27892 8.67117 3.67004 7.92006 3.67004C7.16895 3.67004 6.56006 4.27892 6.56006 5.03003C6.56006 5.78114 7.16895 6.39005 7.92006 6.39005Z" fill="white"/>
<path d="M10.9801 20.7901C11.7312 20.7901 12.3401 20.1812 12.3401 19.4301C12.3401 18.6789 11.7312 18.0701 10.9801 18.0701C10.229 18.0701 9.62012 18.6789 9.62012 19.4301C9.62012 20.1812 10.229 20.7901 10.9801 20.7901Z" fill="white"/>
<path d="M7.92006 17.43C8.67117 17.43 9.28006 16.8211 9.28006 16.07C9.28006 15.3189 8.67117 14.71 7.92006 14.71C7.16895 14.71 6.56006 15.3189 6.56006 16.07C6.56006 16.8211 7.16895 17.43 7.92006 17.43Z" fill="white"/>
<path d="M5.10023 14.62C5.85134 14.62 6.46024 14.0111 6.46024 13.26C6.46024 12.5089 5.85134 11.9 5.10023 11.9C4.34913 11.9 3.74023 12.5089 3.74023 13.26C3.74023 14.0111 4.34913 14.62 5.10023 14.62Z" fill="white"/>
</svg>
