<?xml version="1.0" encoding="UTF-8"?>
<svg id="Calque_8" data-name="Calque 8" xmlns="http://www.w3.org/2000/svg" viewBox="0 0 1920 1080">
  <defs>
    <style>
      .cls-1 {
        stroke: #ef2a92;
      }

      .cls-1, .cls-2, .cls-3, .cls-4 {
        stroke-width: 3px;
      }

      .cls-1, .cls-2, .cls-3, .cls-4, .cls-5, .cls-6 {
        fill: none;
        stroke-miterlimit: 10;
      }

      .cls-2 {
        stroke: #ff6e00;
      }

      .cls-3 {
        stroke: #fae902;
      }

      .cls-4 {
        stroke: #bcbcbc;
      }

      .cls-7 {
        letter-spacing: 0em;
      }

      .cls-5 {
        stroke: #a194ba;
        stroke-width: 4px;
      }

      .cls-8 {
        letter-spacing: 0em;
      }

      .cls-9 {
        fill: #fff;
        font-family: MonumentExtended-Regular, 'Monument Extended';
        font-size: 48px;
      }

      .cls-10 {
        letter-spacing: .01em;
      }

      .cls-6 {
        stroke: #000;
      }

      .cls-11 {
        letter-spacing: -.01em;
      }

      .cls-12 {
        letter-spacing: 0em;
      }
    </style>
  </defs>
  <g>
    <path class="cls-5" d="m822.45,442.83c0-1.81.82-2.14.66-6.58s-.49-6.09,1.48-8.56c1.97-2.47,7.57-6.75,11.19-9.38s6.25-4.28,8.39-7.57,3.84-7.41,3.84-7.41c.22-3.73-2.85-7.9-5.27-10.97-2.41-3.07-10.42-3.62-14.37-2.74-3.95.88-11.19,10.53-15.14,12.07-3.95,1.54-20.52-8.78-22.71-10.86-2.19-2.08-.11-17.56-1.54-21.4-1.43-3.84-6.58-3.18-11.74-4.83-5.16-1.65-9.11-8.67-9.98-9-.88-.33-5.38.44-7.02.55-1.65.11-4.61-.44-6.36-2.41-1.76-1.97-3.51-2.41-5.6-2.41s-3.95,1.97-6.91,2.74c-2.96.77-6.69,1.65-10.09.11-3.4-1.54-9-11.85-9.66-12.18-.66-.33-4.17.12-5.38,0-1.21-.11-2.41,1.43-3.51,2.85-1.1,1.43-9.55,10.09-14.15,10.42s-9.77-.66-14.7-6.03c-4.94-5.38-5.27-5.38-6.8-5.6-1.54-.22-3.62,3.4-5.27,3.51s-6.69-.33-8.45,0-6.58,6.47-10.09,9.55c-3.51,3.07-3.18,8.45-2.85,21.94s-17.88,21.29-18.54,22.05c-.66.77-4.5,3.07.22,11.96,4.72,8.89.77,10.2-.77,11.52-1.54,1.32-1.21,7.68,1.43,11.08,2.63,3.4,4.17,10.75,1.43,18.43-2.74,7.68-24.36,22.49-27.87,25.35-3.51,2.85-9.98.11-11.96-2.08-1.97-2.19-4.28-2.3-6.58-2.3s-5.71,2.96-9.33,4.94c-3.62,1.97-17.99-1.1-22.6-3.18-4.61-2.08-7.68-8.34-8.56-11.41s-1.54-3.51-2.96-4.39c-1.43-.88-9.87.66-13.5-.11-3.62-.77-12.18-11.96-14.48-13.06-2.3-1.1-30.94,0-30.94,0-3.62.33-9.55,12.18-11.19,13.82-1.65,1.65-8.56,7.9-10.2,10.2-1.64,2.3-.34,12.84,0,18.1s-9.87,13.5-12.18,15.14c-2.3,1.65-16.13-.33-22.05,0-5.92.33-8.89,9.55-8.89,9.55,0,0,.49,11.03,0,13.33-.49,2.3-3.79,4.11-4.11,6.25s.12,3.89.69,4.42c.76.71,1.78-.3,3.43,2.5s2.47,6.09,3.62,6.42,11.85-3.62,13.99,0c0,0-.49,6.91.16,10.09.66,3.18,7.57,8.45,9,10.86s3.51,7.24,4.5,8.56,6.91,3.84,10.09,4.61c3.18.77,8.23,1.1,9.98,1.76,1.76.66,5.6,3.4,7.79,5.71,2.19,2.3,1.65,2.3,3.18,3.51,1.54,1.21,3.18,1.54,4.39,1.54s15.58-.6,17.23,0c1.65.6,3.62.93,5.27,2.58s7.41,6.91,7.41,9.22-1.32,3.29-1.81,4.28-.66,3.95-.16,4.61,1.81,3.29,1.48,4.61-5.43,2.29-6.25,3.29c-.82.99-1.65,3.63-.74,5.6s2.63,4.69,1.65,8.72c-.99,4.03-8.06,6.58-9.71,7.57s-2.63,2.55-2.55,4.2.33,3.29,2.55,4.86c2.22,1.56,3.04,3.21,3.62,7.98.58,4.77-1.48,13.99,4.86,14.65,6.34.66,9.79-1.65,12.34,1.15,2.55,2.8,2.39,8.15,4.28,10.37,1.89,2.22,3.87,2.63,4.86,2.63s4.69-2.14,6.34-2.96c1.65-.82,5.35-.74,6.34,0,.99.74,7.74,10.86,11.11,12.18,3.37,1.32,8.15.74,9.22,0,1.07-.74,4.69-4.36,5.43-4.94s4.53-6.17,6.5-5.92c1.97.25,3.21,1.89,4.94,2.06,1.73.16,4.94-.74,4.94-.74,0,0,6.75-3.46,7.65-3.21.91.25,1.32,1.56,2.47,2.96,1.15,1.4,4.77,4.2,7.16,4.11,0,0,4,.11,5.09,1.21s4.53.27,4.53.27c0,0,22.51-3.82,28.8-17.76,6.28-13.93,10.38-17.76,6.01-30.6s-11.2-25.41-8.2-37.16c3.01-11.75,8.2-17.76,11.75-21.31.23-.23.46-.44.71-.65,3.5-2.95,8.58-3.02,12.36-.45s8.92,5.48,12.07,4.65c5.19-1.37,12.57-10.93,19.12-16.12,6.56-5.19,18.03-4.64,22.68-5.46,4.64-.82,24.04,4.1,33.6,4.92,9.56.82,16.12-5.19,25.95-5.46s10.11,2.73,19.94,0c9.84-2.73,26.23-19.11,27.59-25.95s5.19-10.93,1.09-17.49c-4.1-6.56-10.11-10.93-13.11-18.58-3.01-7.65-5.19-22.68-4.92-26.77.27-4.1-2.46-8.2-2.73-15.85s1.37-7.92,4.64-10.93,9.56-8.47,9.56-8.47l1.93-2.88Z"/>
    <path class="cls-6" d="m612.68,697.52s24.25-4.99,30.87-18.37c7.25-14.64,8.08-14.9,8.47-22.06.48-8.74-7.13-22.95-9.56-32.24-2.6-9.9-1.09-20.72,6.15-29.78,6.42-8.04,9.18-9.63,14.62-6.76,8.8,4.64,9.8,6.16,15.37,4.92,7.65-1.71,14.27-17.21,26.16-19.19,7.15-1.19,14.75-3.48,31.96.48,18.99,4.37,24.7,1.49,30.73-.61,8.27-2.88,14.19-2.26,17.11-2.08.47.03.93.08,1.39.17,2.51.45,11.49,1.66,18.11-2.73,14.95-9.92,20.13-18.2,20.97-19.81,3.28-6.28,6.15-13.95,5.47-19.31-.78-6.18-3.99-6.27-11.73-16.94-6.05-8.33-6.68-19.32-7.47-23.13-.67-3.26-.29-7.34-1.38-14.17-1.09-6.83-3.14-10.73-1.53-16.06,1.11-3.68,8.55-8.54,8.55-8.54"/>
  </g>
  <text class="cls-9" transform="translate(-10.87 -14.3)"><tspan class="cls-11" x="0" y="0">c</tspan><tspan class="cls-12" x="41.57" y="0">a</tspan><tspan class="cls-7" x="83.76" y="0">r</tspan><tspan class="cls-8" x="117.65" y="0">t</tspan><tspan class="cls-10" x="149.52" y="0">e</tspan></text>
  <g>
    <path class="cls-1" d="m816.23,453.98c2.17,4.85-.1,16.34,7.99,22.76,3.98,3.16,1.15,5.1,1.65,8.72s1.32,4.44,1.32,4.44l.49.33c.49.33,1.32.99,3.62,1.32,2.3.33,3.62-.16,6.09,1.97s2.96,6.42,3.13,8.06,1.15,1.65,6.91,6.42c5.76,4.77,19.09,3.62,22.55,1.81,3.46-1.81,6.58-11.36,9.22-11.85,2.63-.49,10.53,1.65,17.94-.99,7.41-2.63,10.86-15.47,13.17-19.42,2.3-3.95,7.24-3.29,11.52-2.96,4.28.33,17.45,9.71,19.26,11.03,1.81,1.32.49,5.92-.33,7.74s-3.79,1.15-4.44,7.08c-.66,5.92,4.77,6.09,5.6,7.9.82,1.81-.16,3.29-2.3,4.28-2.14.99-5.1,6.42-5.27,10.86-.16,4.44,8.72,25.51,11.69,27.98,2.96,2.47,11.52,2.14,16.29,3.29s4.11,7.9,4.94,11.69c.82,3.79,2.47,4.94,4.94,6.75,2.47,1.81,15.96,1.32,18.27.82s1.47-2.21,5.27-7.08c2.82-3.61,7.75-4.23,7.75-4.23,0,0,12.29,12.84,10.11,16.12s-5.19,12.29-3.82,22.95,9.02,10.93,7.1,16.94c-1.91,6.01-6.83,8.47-15.85,7.38-9.02-1.09-10.38-5.19-29.23,1.37-13.02,4.53-10.4,12.97-7.53,17.76,1.93,3.22,3.74,6.51,5.3,9.93,2.16,4.73,2.98,6.26,4.42,20.4,1.91,18.85.27,20.49-3.82,23.22-4.1,2.73-9.84,4.37-19.12,1.37-9.29-3.01-26.02-3.12-26.02-3.12-3.51-.11-18.87-1.21-25.67-2.85-4.54-1.1-8.98-4.49-11.43-6.63-1.22-1.06-2.46-2.11-3.74-3.1-3.89-3.02-11.56-9.76-13.03-10.68-1.76-1.1-8.34-2.96-15.91-2.96s-16.68,7.79-19.09,8.89c-2.41,1.1-5.27,2.08-9.66.99-4.39-1.1-6.36-4.83-15.14-6.36s-17.85,5.63-24.21,9.58c-6.36,3.95-5.63,11.49-4.64,13.47s10.53,9.22,11.3,11.3-2.63,5.6.77,14.59c3.4,9,17.77,13.28,22.27,12.84,4.5-.44,8.45-7.13,10.31-9.11,1.87-1.97,7.46-2.52,10.2,0,2.74,2.52-.55,10.31-.88,11.52s-.88,3.73.66,5.6c1.54,1.87,5.82,4.06,8.45,8.23,2.63,4.17.66,10.53,0,12.73-.66,2.19-.77,8.78-2.3,10.31-.42.42-.98.87-1.59,1.31-2.42,1.75-4.64,3.76-6.76,5.87-4.87,4.86-11.1,9.3-12.07,9.39-1.21.11-5.82.88-11.52,1.54s-21.8,3.15-24.1,2.82c-2.3-.33-15.4-1.61-18.36-2.16-2.96-.55-4.72-3.84-8.67-8.34-3.09-3.52-8.08-4-10.1-4.05-.88-.02-1.75-.07-2.63-.14-3.2-.26-9.96-.73-12.82-.32-3.82.55-7.65,11.47-12.24,13.67s-7.43,3.81-21.64,0c-9.17-2.46-15.16-9.95-18.24-14.95-3.52-5.7-7.78-10.92-12.72-15.45-3.45-3.16-7.22-6.26-10.56-8.41-7.65-4.92-10.38-4.92-15.3-5.46s-7.65-2.73-8.74-9.29,4.37-14.75,6.01-17.48c1.64-2.73-1.64-7.65-3.82-9.84s-11.84-.66-16.45-3.49c-.33-.2-.56-.52-.7-.88-.78-2-6.87-10.27-4.87-11.08,2.69-1.09,4.27-.83,10.2-3.28,8.83-3.66,9.94-4.49,15.03-9.25,2-1.87,4.15-4.91,7.51-11.48,1.99-3.88,4.83-10.88,5.09-12.28.63-3.36.74-4.47.78-6.96.07-3.55-1.22-7.14-2.41-10.48-2.36-6.64-7.41-20.09-7.9-23.48-1.02-7.07-.25-16.39,5.22-23.5,5.46-7.1,7.53-10.55,13.05-8.27,5.02,2.07,10.2,6.46,15.36,5.9,6.47-.69,12.56-9.56,19.02-15.14,0,0,4.79-4.62,14.78-5.71,7.99-.87,12.82-1.06,22.21.93,16.33,3.44,24.25,3.24,27.5,2.31,3.64-1.04,12.38-5.25,20.57-4.43,8.2.82,12.4.92,17.33.13,4.88-.78,11.35-6.05,17.99-11.6,5.56-4.64,10.48-11.82,12.39-16.47s4.54-14.04,2.97-17.75c-2.67-6.33-8.67-11.06-10.71-14-4.61-6.62-4.78-7.84-7.04-17.38-1.82-7.68-1.99-21.55-3.35-25.37-.6-1.68-1.43-5.34-1.27-7.49.23-3.09,1.18-5.57,3.72-7.35l2.82-2.23Z"/>
    <path class="cls-6" d="m967.13,702.19c5.5-2.11,9.13-7.38,9.29-13.27.08-2.98-.12-7.13-1-12.8-2.37-15.41-1.03-8.68-2.19-14.93-.56-3.05-2.36-6.05-3.56-8.62-.64-1.38-1.34-2.72-2.12-4.02-1.74-2.91-4.62-8.19-4.52-11.03.15-4.24,3.01-6.01,9.65-9.2,6.64-3.19,13.11-3.37,16.76-3.37s14.21,4.37,21.13,1.82c6.92-2.55,7.65-8.1,7.74-8.65s.91-2.09-2.19-6.01c-3.1-3.92-5.51-7-5.65-15.85-.13-8.84,2-12.2,2.37-13.39s2.19-3.64,2.09-5.46-3.37-7.01-5.65-9.84c-2.28-2.82-5.5-6.59-5.5-6.59"/>
  </g>
  <g>
    <path class="cls-2" d="m1013.62,570.03c1,1.6,2.69,4.65,3.11,5.95.28.87.36,2.51-.46,4.33s-3.55,6.28-3.72,13.46c-.11,4.64-.55,10.69,4.6,16.6,2.12,2.43,3.25,4.9,3.25,6.36s-.83,5.45-3.25,8.17c-2.24,2.52-5.6,4.18-9.88,4.54s-9.58-.68-12.72-1.57-5.59-1.49-9.74-1.07c-3.58.36-3.38.35-7.35,1.57s-5.88,2.32-8.34,3.96-4.71,2.97-4.15,5.6c.89,4.15,2.39,6.33,3.11,7.63,2.32,4.16,2.68,5.34,4.09,8.15,2.48,4.95,2.92,7.24,3.47,10.16s1.14,7.18,1.32,9.83,1.06,7.23,1.24,10.24.53,6.76-.74,9.94c-1.27,3.19-3.34,5.48-4.71,6.9s-2.45,2.01-2.45,2.01c0,0,7.8,5.63,11.62,9.4,1.75,1.73,4,4.16,4,4.16,2.19,2.46,5.93,7.95,5.93,7.95,4.28,7.24,6.36,11.19,4.61,25.02-1.76,13.82-4.94,23.37-.88,29.52,4.06,6.14,7.79,5.6,10.42,13.39,2.94,8.69,4.24,10.96,12.58,10.32,3.71-.29,7.45.45,10.66,2.33,5.41,3.16,11.23,9,9.35,18.07-1.87,9-2.96,19.2,3.07,24.47,6.03,5.27,20.63,21.51,24.03,26.11,3.4,4.61,25.35,4.61,28.86,3.51,3.51-1.1,6.58-3.29,7.13-7.57s2.41-12.18,5.49-14.81c3.07-2.63,17.77-5.92,23.59-3.62,5.82,2.3,20.96,12.07,20.96,12.07,0,0,11.08,7.02,13.93,7.46,2.85.44,19.31-3.51,24.91-5.05,5.6-1.54,15.58.33,17.12-.33,1.54-.66,8.45-9.11,10.31-11.63,1.87-2.52,8.78-6.14,9.66-7.68.88-1.54,5.71-11.41,8.23-14.7,2.52-3.29,7.79-10.09,3.95-14.59-3.84-4.5-13.39-8.78-16.13-10.64-2.74-1.87-5.16-4.72-9.33-4.83s-9.77,2.19-13.61.77c-3.84-1.43-6.47-11.63-9.77-14.81s-15.47-13.72-16.24-24.14c-.77-10.42-5.05-35.11-2.85-39.72,2.19-4.61,12.73-15.47,15.8-19.97,3.07-4.5,1.76-16.02,3.4-20.63s9.11-14.15,10.97-14.59c1.87-.44,8.65-.32,11.08-1.65,2.11-1.15,9.44-6.36,9.66-8.56.22-2.19.22-17.77,3.4-25.13,3.18-7.35,0-13.28-2.08-15.25-2.08-1.97-18.76-13.72-17.45-18.76,1.32-5.05,4.39-6.58,4.17-9.55-.22-2.96-12.4-10.53-10.09-15.69,2.3-5.16,7.9-10.97,8.78-11.96.88-.99,6.25-6.25,8.12-12.84,1.87-6.58,8.89-8.89,8.89-8.89,0,0,35-11.41,38.29-12.84,3.29-1.43,8.67-4.61,10.64-8.01,1.97-3.4,2.89-10.99,3.73-15.03,1.34-6.42,7.92-9.64,7.92-9.64,0,0-1.57-.36-5.41-3.49-3.42-2.79-8.8-4.7-14.53-5.52-5.74-.82-8.74,1.09-12.29,7.65-3.55,6.56-3.28,14.75-3.55,18.85-.27,4.1-5.76,4.39-12.29,5.19-6.76.83-7.05-1.06-17.76-7.65s-13.11-16.39-15.57-24.86c-.92-3.18-3.17-5.7-5.63-7.62-3.77-2.96-8.36-4.67-13.13-5.21-4.34-.49-11.28-1.25-17.85-1.92-10.65-1.09-11.2,21.58-11.47,24.04s-7.38,10.11-7.65,13.66,1.07,15.42.53,16.79-2.98,2.61-12.47,2.88c-9.49.27-15.37-3.55-25.48-4.64s-15.03,6.28-27.59,6.01c-12.57-.27-19.4-10.11-25.41-23.22-6.01-13.11-8.47-31.14-10.11-36.88s-4.37-10.11-17.21-12.57c-12.84-2.46-25.13,6.83-25.13,6.83,2.24,3.47,9.99,10.28,9.99,10.28,9.22,6.09,6.42,7.74,6.42,9.87s.66,3.95,1.32,4.61,3.95-1.32,6.09.33c2.14,1.65,6.58,6.42,4.28,11.36-2.3,4.94-8.15,7.97-9.38,10.53s-2.14,5.1.16,11.36c2.3,6.25,3.62,21.07-1.81,27.98,0,0-7.65,7.7-12.65,9.43-5.01,1.73-5.31,2.55-5.31,2.55l7.4,9.2Z"/>
    <path class="cls-6" d="m1004.98,462.08s9.68-5.68,14.26-6.8,11.17-1.95,17.79,0c4.51,1.33,9.01,4.63,10.54,6.06,1.57,1.47,2.05,2.34,3.54,8.89,1.5,6.6,2.68,13.19,3.86,17.56,1.18,4.37,6.51,18.86,8.1,21.76,1.8,3.28,6.03,12.07,13.11,15.39,7.08,3.32,14.34,1.91,15.48,1.55,1.47-.47,12.66-4.92,16.21-5.28s10.2.55,15.12,1.91c4.92,1.37,14.21,3.19,19.03,2.55,4.83-.64,7.01-1,6.92-2.37s-.95-16.09.32-18.45c1.27-2.37,4.78-7.14,6.23-9.41,1.46-2.28,1.27-7.65,1.82-10.84.55-3.19,2.61-13.66,8.25-15.66,4.71-1.67,19.43.73,25.8,2.19,6.37,1.46,12.29,6.1,13.93,9.47s5.42,15.78,7.51,18.42,7.22,7.92,9.7,9.45c3.45,2.13,8.35,5.62,9.84,6.35,2.04.99,2.86,2.42,15.47-.62,0,0,2.46-.55,2.37-5.92-.09-5.37,1.39-11.68,2.31-14.22s4.34-9.28,9.44-10.01c5.1-.73,13.59,1.59,16.05,2.96s7.57,4.87,8.75,5.23c1.18.36,4.84,1.1,4.84,1.1"/>
  </g>
  <g>
    <path class="cls-4" d="m868.45,401.62c-8.13,8.17-13.17,11.96-15.25,14.26s-5.38,1.43-10.31,4.83c-4.94,3.4-7.57,5.49-7.79,9.22-.22,3.73.66,6.36-.11,8.67s-1.43,4.17-3.73,6.58-5.82,2.74-6.8,7.13c-.99,4.39-.99,5.92.66,7.79,1.65,1.87,5.38,3.51,7.13,6.69,1.76,3.18,3.18,7.13,5.82,10.42s7.57,9.22,11.08,10.2c3.51.99,6.65.3,9.62.47,2.96.16,7.12-2.99,10.57-2.17,3.46.82,3.29,2.63,9.22,3.79,5.92,1.15,12.84-.16,14.32-1.32,1.48-1.15,5.86-13.18,7.24-15.47,1.24-2.05,8.72-16.79,13.5-18.1,4.77-1.32,30.45-1.32,35.06-.82s12.11,2.06,15.24.41c0,0,2.53-1.5,4.9-2.77s12.66-8.16,15.93-8.89c3.28-.73,6.74-.55,8.56.18,1.82.73,3.46,4.19,6.01,9.47,2.55,5.28,5.68,7.57,5.68,7.57,0,0,11.92-6.76,18.81-7.35,3.25-.28,9.94-.47,14.37,1.16,3.8,1.39,9.99,4.71,12.36,8.2,2.22,3.28,5.23,22.11,7.02,27.74,2.09,6.58,6.27,18.33,9.69,23.61,3.15,4.87,5.52,9.77,14.28,11.61s14.16-2.16,25.54-5.31c2.85-.79,9.59-.02,20.01,2.7,3.58.93,16.16,3.17,19.93.8.89-.56-.62-7.27-.28-12.85.2-3.28.13-5.07,1.4-7.16,1.27-2.09,5.53-6.92,6.14-9.63,1.32-5.9.95-12.51,3.59-17.71,1.27-2.5,3.34-7.06,6.81-8.17,2.72-.87,9-1.11,15.23-.18,2.17.33,12.35,1.21,17.8,4.22,2.39,1.32,6.31,3.51,8.59,7.06,2.28,3.55,5.7,15.09,7.43,18.37,1.73,3.28,5.08,5.9,7.43,8.09s10.19,7,12.39,8.38,7.73.33,9.91-.12c1.78-.37,4.62,0,4.75-3.22.05-1.38.76-9.47,1.28-11.97.61-2.91,2.18-6.92,4.09-9.99,1.4-2.24,5.25-5.24,6.85-5.66,1.47-.39,7.71-.63,13.17.99,0,0,2.81.65,6.15,2.39,1.44.75,2.65,1.5,4.07,2.56.76.57,3.2,2.27,7.29,2.93,5.78.93,13.85-.7,16.04-1.3l2.19-.61s4.17-1.2,5.23-3.43c1.49-3.11,3.51-10.09,5.27-11.19,1.76-1.1,8.34-3.84,14.48-5.27,6.14-1.43,13.72-8.45,16.35-9.66,2.63-1.21,11.63-3.29,22.49-.55,4.08,1.03,8.01-.32,11.32-2.42,7.4-4.68,11.8-13.07,11.38-21.81-.06-1.22-.22-2.42-.53-3.53-1.87-6.69-3.18-8.45-6.8-9.22-3.62-.77-19.97,2.85-26.66,2.63-6.69-.22-18.21-.99-19.31-5.92-1.1-4.94,3.95-7.35,8.78-7.79,4.83-.44,10.31-3.29,10.53-5.6.22-2.3-3.18-5.05-3.62-9.33-.44-4.28-2.19-7.35-6.36-8.78-4.17-1.43-20.41-3.4-24.8-7.46-4.39-4.06-5.27-9.11-5.49-14.81-.22-5.71-1.65-15.47-6.03-17.12s-11.85-1.97-18.76-8.67c-6.91-6.69-9.98-16.02-14.26-16.68-4.28-.66-13.82-1.21-22.27,3.18-8.45,4.39-14.37,4.5-16.24,4.39-1.87-.11-8.89-.22-13.39,1.54-4.08,1.59-16.9,4.35-29.64,4.29-4.23-.02-8.42.96-12.09,3.05-2,1.14-4.21,2.67-6.43,4.73-7.35,6.8-8.45,7.24-11.19,7.24s-9.87-4.39-14.59-4.83c-4.72-.44-11.85,2.85-17.99,1.97-6.14-.88-24.03-12.29-32.59-21.51-8.56-9.22-13.57-21.45-17.56-25.24-7.26-6.91-12.06-5.51-12.06-5.51l-.16,8.74s.36,13.48,0,17.48c-.36,4.01-5.1,6.56-14.21,7.29-9.11.73-13.84-9.47-20.14-10.56-6.3-1.09-11.18,6.92-18.11,9.47-6.92,2.55-14.21,5.83-34.97-8.38-20.76-14.21-17.63-14.13-25.86-18.9-8.18-4.74-6.48-2.19-29.79,6.18-17.7,6.36-13.29,15.17-10.46,19.01.54.74,1.05,1.5,1.52,2.28,3.8,6.19,4.49,10.44,4.37,13.36-.22,4.89-1.7,10.13-1.7,10.13-2.19,8.38-4.34,20.01-11.66,23.68-7.18,3.6-12.39,3.28-18.58,1.46-6.19-1.82-12.85-.26-15.02.16-.94.18-5.3,1.28-6.5,1.65-1.79.56-2.96,1.87-2.25,3.61,1.5,3.66,3.56,10.83-4.46,18.89Z"/>
    <path class="cls-6" d="m871.56,379.56s3.73-2.45,15.85-4.38c3.28-.52,10.75.73,14.39,1.64s10.75-.67,14.75-3.64,10.14-21.91,10.56-27.32c.45-5.7.36-8.01-3.64-14.93s-8.01-11.11-2.37-17.85c5.65-6.74,18.21-9.11,24.04-11.66,5.83-2.55,10.39-5.46,17.3-2.19,5.97,2.83,26.26,19.12,30.96,22.04s16.03,9.26,22.95,8.01c6.54-1.17,8.28-2.27,10.24-3.69,2.69-1.94,8.47-6.37,9.61-6.83,1.14-.46,4.96-2.37,8.65-.23,3.69,2.14,11.84,9.79,15.71,9.74,3.87-.05,14.39-1.91,14.43-5.92.05-4.01.14-24.45.27-25.49s.14-2.2.14-2.2"/>
  </g>
  <path class="cls-3" d="m1071.93,294.08c1.17-.1,2,1.01,1.68,2.14,0,0,0,.02,0,.03-.26.95-.74,15.17-.55,16.63s.99,7.99-.29,9.99-9.16,3.9-12.47,3.3c-4.13-.74-9.99-6.85-15.94-9.99-2.24-1.18-5.74-.33-7.6.17-1.91.51-10.11,7.63-13.21,9.08-3.1,1.46-7,2.63-11.64,1.9s-11.2-4.25-15.44-6.44c-4.2-2.17-23.32-16.67-27.66-19.98-4.31-3.29-8.8-4.94-12.39-4.94-3.86,0-10.27,2.96-12.55,3.78-2.28.82-10.05,3.56-12.47,4.46-2.74,1.02-8.06,3.98-9.25,5.04-1.63,1.46-3.92,4.28-4.79,5.94-.89,1.71-1.59,5.11-.08,8.75,1.1,2.68,6.67,11.68,7.18,13.19.99,2.89,1,5.73.66,8.53-.45,3.73-4.05,14.64-4.62,16.1-.51,1.29-2.89,7.68-5.39,10.05-1.1,1.04-8.01,4.35-11.94,3.41-10.07-2.39-13.31-2.01-16.13-1.87-6.33.3-15.47,3.82-15.47,3.82,0,0-3.7-1.72-4.79-3s-5.28-3.46-7.1-4.01c-1.82-.55-6.79,3.73-6.79,3.73-3.62,3.95-9.11,3.51-9.11,3.51-2.74.11-5.16-4.61-7.46-6.14s-7.02-.99-12.18-1.54c-5.16-.55-4.61-2.3-7.46-3.51-2.85-1.21-7.46.11-11.08,1.21-3.62,1.1-6.25.88-9-.55s-8.23-14.04-11.74-17.99c-3.51-3.95-11.08-4.39-16.79-6.47-5.71-2.08-7.13-5.6-7.79-8.67-.66-3.07.88-23.59,1.65-29.73.77-6.14-11.19-14.48-12.95-16.68-1.76-2.19-7.68-5.49-5.16-10.75,2.52-5.27,4.72-4.39,10.09-4.72,5.38-.33,3.62-5.71,5.16-8.01,1.54-2.3,5.71-4.83,11.85-6.8s26.55-8.34,26.55-8.34c4.39-.22,7.57,3.62,17.12,5.05,9.55,1.43,19.75-5.6,24.14-7.9,4.39-2.3,10.75-10.2,12.07-14.04,1.32-3.84-.11-4.06-1.1-7.24-.99-3.18-.87-6.77-.66-7.79.14-.68,1.43-5.38,3.07-8.23,1.65-2.85,5.3-5.34,8.12-6.91s9.33-4.39,13.82-5.49c4.5-1.1,8.34-.77,13.82-1.87s4.54-1.6,8.12-4.61c3.38-2.84,6.03-5.38,8.34-6.47,2.3-1.1,5.49.11,10.86.66,5.38.55,9.44-.22,13.72-.88,4.28-.66,7.46-3.73,9.66-3.95,2.19-.22,3.07.22,6.25,2.3,3.18,2.08,7.13,4.39,11.3,5.16s9.98,1.1,15.58.77c5.6-.33,5.38-3.18,9.33-4.61,3.95-1.43,8.67-.33,11.52.88,2.85,1.21,5.16,4.39,8.45,9.33s11.38,18.3,12.62,21.29,5.92,13.93,12.4,21.4c6.47,7.46,10.86,11.85,11.3,15.69.44,3.84-3.87,10.61-4.64,12.47s-6.99,10.68-6,21.21c.99,10.53,15.36,15.36,21.72,15.8,4.38.3,6.36-.33,8.07-1.61,2.11-1.58,4.42-2.88,6.94-3.64,2.04-.61,2.83-.77,5.52-1.21.97-.16,2.04-.09,2.99-.17Z"/>
</svg>