<svg width="984" height="703" viewBox="0 0 984 703" fill="none" xmlns="http://www.w3.org/2000/svg">
<path d="M408.45 265.83C408.45 264.02 409.27 263.69 409.11 259.25C408.95 254.81 408.62 253.16 410.59 250.69C412.56 248.22 418.16 243.94 421.78 241.31C425.4 238.68 428.03 237.03 430.17 233.74C432.31 230.45 434.01 226.33 434.01 226.33C434.23 222.6 431.16 218.43 428.74 215.36C426.33 212.29 418.32 211.74 414.37 212.62C410.42 213.5 403.18 223.15 399.23 224.69C395.28 226.23 378.71 215.91 376.52 213.83C374.33 211.75 376.41 196.27 374.98 192.43C373.55 188.59 368.4 189.25 363.24 187.6C358.08 185.95 354.13 178.93 353.26 178.6C352.38 178.27 347.88 179.04 346.24 179.15C344.59 179.26 341.63 178.71 339.88 176.74C338.12 174.77 336.37 174.33 334.28 174.33C332.19 174.33 330.33 176.3 327.37 177.07C324.41 177.84 320.68 178.72 317.28 177.18C313.88 175.64 308.28 165.33 307.62 165C306.96 164.67 303.45 165.12 302.24 165C301.03 164.89 299.83 166.43 298.73 167.85C297.63 169.28 289.18 177.94 284.58 178.27C279.98 178.6 274.81 177.61 269.88 172.24C264.94 166.86 264.61 166.86 263.08 166.64C261.54 166.42 259.46 170.04 257.81 170.15C256.16 170.26 251.12 169.82 249.36 170.15C247.6 170.48 242.78 176.62 239.27 179.7C235.76 182.77 236.09 188.15 236.42 201.64C236.75 215.13 218.54 222.93 217.88 223.69C217.22 224.46 213.38 226.76 218.1 235.65C222.82 244.54 218.87 245.85 217.33 247.17C215.79 248.49 216.12 254.85 218.76 258.25C221.39 261.65 222.93 269 220.19 276.68C217.45 284.36 195.83 299.17 192.32 302.03C188.81 304.88 182.34 302.14 180.36 299.95C178.39 297.76 176.08 297.65 173.78 297.65C171.48 297.65 168.07 300.61 164.45 302.59C160.83 304.56 146.46 301.49 141.85 299.41C137.24 297.33 134.17 291.07 133.29 288C132.41 284.93 131.75 284.49 130.33 283.61C128.9 282.73 120.46 284.27 116.83 283.5C113.21 282.73 104.65 271.54 102.35 270.44C100.05 269.34 71.41 270.44 71.41 270.44C67.79 270.77 61.86 282.62 60.22 284.26C58.57 285.91 51.66 292.16 50.02 294.46C48.38 296.76 49.68 307.3 50.02 312.56C50.36 317.82 40.15 326.06 37.84 327.7C35.54 329.35 21.71 327.37 15.79 327.7C9.87 328.03 6.89998 337.25 6.89998 337.25C6.89998 337.25 7.38998 348.28 6.89998 350.58C6.40998 352.88 3.11 354.69 2.79 356.83C2.47 358.97 2.91 360.72 3.48 361.25C4.24 361.96 5.25999 360.95 6.90999 363.75C8.55999 366.55 9.37999 369.84 10.53 370.17C11.68 370.5 22.38 366.55 24.52 370.17C24.52 370.17 24.03 377.08 24.68 380.26C25.34 383.44 32.25 388.71 33.68 391.12C35.11 393.53 37.19 398.36 38.18 399.68C39.17 401 45.09 403.52 48.27 404.29C51.45 405.06 56.5 405.39 58.25 406.05C60.01 406.71 63.85 409.45 66.04 411.76C68.23 414.06 67.69 414.06 69.22 415.27C70.76 416.48 72.4 416.81 73.61 416.81C74.82 416.81 89.19 416.21 90.84 416.81C92.49 417.41 94.46 417.74 96.11 419.39C97.76 421.04 103.52 426.3 103.52 428.61C103.52 430.92 102.2 431.9 101.71 432.89C101.22 433.88 101.05 436.84 101.55 437.5C102.05 438.16 103.36 440.79 103.03 442.11C102.7 443.43 97.6 444.4 96.78 445.4C95.96 446.39 95.13 449.03 96.04 451C96.95 452.97 98.67 455.69 97.69 459.72C96.7 463.75 89.63 466.3 87.98 467.29C86.33 468.28 85.35 469.84 85.43 471.49C85.51 473.14 85.76 474.78 87.98 476.35C90.2 477.91 91.02 479.56 91.6 484.33C92.18 489.1 90.12 498.32 96.46 498.98C102.8 499.64 106.25 497.33 108.8 500.13C111.35 502.93 111.19 508.28 113.08 510.5C114.97 512.72 116.95 513.13 117.94 513.13C118.93 513.13 122.63 510.99 124.28 510.17C125.93 509.35 129.63 509.43 130.62 510.17C131.61 510.91 138.36 521.03 141.73 522.35C145.1 523.67 149.88 523.09 150.95 522.35C152.02 521.61 155.64 517.99 156.38 517.41C157.12 516.83 160.91 511.24 162.88 511.49C164.85 511.74 166.09 513.38 167.82 513.55C169.55 513.71 172.76 512.81 172.76 512.81C172.76 512.81 179.51 509.35 180.41 509.6C181.32 509.85 181.73 511.16 182.88 512.56C184.03 513.96 187.65 516.76 190.04 516.67C190.04 516.67 194.04 516.78 195.13 517.88C196.22 518.98 199.66 518.15 199.66 518.15C199.66 518.15 222.17 514.33 228.46 500.39C234.74 486.46 238.84 482.63 234.47 469.79C230.1 456.95 223.27 444.38 226.27 432.63C229.28 420.88 234.47 414.87 238.02 411.32C238.25 411.09 238.48 410.88 238.73 410.67C242.23 407.72 247.31 407.65 251.09 410.22C254.87 412.79 260.01 415.7 263.16 414.87C268.35 413.5 275.73 403.94 282.28 398.75C288.84 393.56 300.31 394.11 304.96 393.29C309.6 392.47 329 397.39 338.56 398.21C348.12 399.03 354.68 393.02 364.51 392.75C374.34 392.48 374.62 395.48 384.45 392.75C394.29 390.02 410.68 373.64 412.04 366.8C413.4 359.96 417.23 355.87 413.13 349.31C409.03 342.75 403.02 338.38 400.02 330.73C397.01 323.08 394.83 308.05 395.1 303.96C395.37 299.86 392.64 295.76 392.37 288.11C392.1 280.46 393.74 280.19 397.01 277.18C400.28 274.17 406.57 268.71 406.57 268.71L408.5 265.83H408.45Z" stroke="#A194BA" stroke-width="4" stroke-miterlimit="10"/>
<path d="M402.23 276.98C404.4 281.83 402.13 293.32 410.22 299.74C414.2 302.9 411.37 304.84 411.87 308.46C412.37 312.08 413.19 312.9 413.19 312.9L413.68 313.23C414.17 313.56 415 314.22 417.3 314.55C419.6 314.88 420.92 314.39 423.39 316.52C425.86 318.65 426.35 322.94 426.52 324.58C426.69 326.22 427.67 326.23 433.43 331C439.19 335.77 452.52 334.62 455.98 332.81C459.44 331 462.56 321.45 465.2 320.96C467.83 320.47 475.73 322.61 483.14 319.97C490.55 317.34 494 304.5 496.31 300.55C498.61 296.6 503.55 297.26 507.83 297.59C512.11 297.92 525.28 307.3 527.09 308.62C528.9 309.94 527.58 314.54 526.76 316.36C525.94 318.18 522.97 317.51 522.32 323.44C521.66 329.36 527.09 329.53 527.92 331.34C528.74 333.15 527.76 334.63 525.62 335.62C523.48 336.61 520.52 342.04 520.35 346.48C520.19 350.92 529.07 371.99 532.04 374.46C535 376.93 543.56 376.6 548.33 377.75C553.1 378.9 552.44 385.65 553.27 389.44C554.09 393.23 555.74 394.38 558.21 396.19C560.68 398 574.17 397.51 576.48 397.01C578.79 396.51 577.95 394.8 581.75 389.93C584.57 386.32 589.5 385.7 589.5 385.7C589.5 385.7 601.79 398.54 599.61 401.82C597.43 405.1 594.42 414.11 595.79 424.77C597.16 435.43 604.81 435.7 602.89 441.71C600.98 447.72 596.06 450.18 587.04 449.09C578.02 448 576.66 443.9 557.81 450.46C544.79 454.99 547.41 463.43 550.28 468.22C552.21 471.44 554.02 474.73 555.58 478.15C557.74 482.88 558.56 484.41 560 498.55C561.91 517.4 560.27 519.04 556.18 521.77C552.08 524.5 546.34 526.14 537.06 523.14C527.77 520.13 511.04 520.02 511.04 520.02C507.53 519.91 492.17 518.81 485.37 517.17C480.83 516.07 476.39 512.68 473.94 510.54C472.72 509.48 471.48 508.43 470.2 507.44C466.31 504.42 458.64 497.68 457.17 496.76C455.41 495.66 448.83 493.8 441.26 493.8C433.69 493.8 424.58 501.59 422.17 502.69C419.76 503.79 416.9 504.77 412.51 503.68C408.12 502.58 406.15 498.85 397.37 497.32C388.59 495.79 379.52 502.95 373.16 506.9C366.8 510.85 367.53 518.39 368.52 520.37C369.51 522.35 379.05 529.59 379.82 531.67C380.59 533.75 377.19 537.27 380.59 546.26C383.99 555.26 398.36 559.54 402.86 559.1C407.36 558.66 411.31 551.97 413.17 549.99C415.04 548.02 420.63 547.47 423.37 549.99C426.11 552.51 422.82 560.3 422.49 561.51C422.16 562.72 421.61 565.24 423.15 567.11C424.69 568.98 428.97 571.17 431.6 575.34C434.23 579.51 432.26 585.87 431.6 588.07C430.94 590.26 430.83 596.85 429.3 598.38C428.88 598.8 428.32 599.25 427.71 599.69C425.29 601.44 423.07 603.45 420.95 605.56C416.08 610.42 409.85 614.86 408.88 614.95C407.67 615.06 403.06 615.83 397.36 616.49C391.66 617.15 375.56 619.64 373.26 619.31C370.96 618.98 357.86 617.7 354.9 617.15C351.94 616.6 350.18 613.31 346.23 608.81C343.14 605.29 338.15 604.81 336.13 604.76C335.25 604.74 334.38 604.69 333.5 604.62C330.3 604.36 323.54 603.89 320.68 604.3C316.86 604.85 313.03 615.77 308.44 617.97C303.85 620.17 301.01 621.78 286.8 617.97C277.63 615.51 271.64 608.02 268.56 603.02C265.04 597.32 260.78 592.1 255.84 587.57C252.39 584.41 248.62 581.31 245.28 579.16C237.63 574.24 234.9 574.24 229.98 573.7C225.06 573.16 222.33 570.97 221.24 564.41C220.15 557.85 225.61 549.66 227.25 546.93C228.89 544.2 225.61 539.28 223.43 537.09C221.25 534.9 211.59 536.43 206.98 533.6C206.65 533.4 206.42 533.08 206.28 532.72C205.5 530.72 199.41 522.45 201.41 521.64C204.1 520.55 205.68 520.81 211.61 518.36C220.44 514.7 221.55 513.87 226.64 509.11C228.64 507.24 230.79 504.2 234.15 497.63C236.14 493.75 238.98 486.75 239.24 485.35C239.87 481.99 239.98 480.88 240.02 478.39C240.09 474.84 238.8 471.25 237.61 467.91C235.25 461.27 230.2 447.82 229.71 444.43C228.69 437.36 229.46 428.04 234.93 420.93C240.39 413.83 242.46 410.38 247.98 412.66C253 414.73 258.18 419.12 263.34 418.56C269.81 417.87 275.9 409 282.36 403.42C282.36 403.42 287.15 398.8 297.14 397.71C305.13 396.84 309.96 396.65 319.35 398.64C335.68 402.08 343.6 401.88 346.85 400.95C350.49 399.91 359.23 395.7 367.42 396.52C375.62 397.34 379.82 397.44 384.75 396.65C389.63 395.87 396.1 390.6 402.74 385.05C408.3 380.41 413.22 373.23 415.13 368.58C417.04 363.93 419.67 354.54 418.1 350.83C415.43 344.5 409.43 339.77 407.39 336.83C402.78 330.21 402.61 328.99 400.35 319.45C398.53 311.77 398.36 297.9 397 294.08C396.4 292.4 395.57 288.74 395.73 286.59C395.96 283.5 396.91 281.02 399.45 279.24L402.27 277.01L402.23 276.98Z" stroke="#EF2A92" stroke-width="3" stroke-miterlimit="10"/>
<path d="M599.62 393.03C600.62 394.63 602.31 397.68 602.73 398.98C603.01 399.85 603.09 401.49 602.27 403.31C601.45 405.13 598.72 409.59 598.55 416.77C598.44 421.41 598 427.46 603.15 433.37C605.27 435.8 606.4 438.27 606.4 439.73C606.4 441.19 605.57 445.18 603.15 447.9C600.91 450.42 597.55 452.08 593.27 452.44C588.99 452.8 583.69 451.76 580.55 450.87C577.41 449.98 574.96 449.38 570.81 449.8C567.23 450.16 567.43 450.15 563.46 451.37C559.49 452.59 557.58 453.69 555.12 455.33C552.66 456.97 550.41 458.3 550.97 460.93C551.86 465.08 553.36 467.26 554.08 468.56C556.4 472.72 556.76 473.9 558.17 476.71C560.65 481.66 561.09 483.95 561.64 486.87C562.19 489.79 562.78 494.05 562.96 496.7C563.14 499.35 564.02 503.93 564.2 506.94C564.38 509.95 564.73 513.7 563.46 516.88C562.19 520.07 560.12 522.36 558.75 523.78C557.38 525.2 556.3 525.79 556.3 525.79C556.3 525.79 564.1 531.42 567.92 535.19C569.67 536.92 571.92 539.35 571.92 539.35C574.11 541.81 577.85 547.3 577.85 547.3C582.13 554.54 584.21 558.49 582.46 572.32C580.7 586.14 577.52 595.69 581.58 601.84C585.64 607.98 589.37 607.44 592 615.23C594.94 623.92 596.24 626.19 604.58 625.55C608.29 625.26 612.03 626 615.24 627.88C620.65 631.04 626.47 636.88 624.59 645.95C622.72 654.95 621.63 665.15 627.66 670.42C633.69 675.69 648.29 691.93 651.69 696.53C655.09 701.14 677.04 701.14 680.55 700.04C684.06 698.94 687.13 696.75 687.68 692.47C688.23 688.19 690.09 680.29 693.17 677.66C696.24 675.03 710.94 671.74 716.76 674.04C722.58 676.34 737.72 686.11 737.72 686.11C737.72 686.11 748.8 693.13 751.65 693.57C754.5 694.01 770.96 690.06 776.56 688.52C782.16 686.98 792.14 688.85 793.68 688.19C795.22 687.53 802.13 679.08 803.99 676.56C805.86 674.04 812.77 670.42 813.65 668.88C814.53 667.34 819.36 657.47 821.88 654.18C824.4 650.89 829.67 644.09 825.83 639.59C821.99 635.09 812.44 630.81 809.7 628.95C806.96 627.08 804.54 624.23 800.37 624.12C796.2 624.01 790.6 626.31 786.76 624.89C782.92 623.46 780.29 613.26 776.99 610.08C773.69 606.9 761.52 596.36 760.75 585.94C759.98 575.52 755.7 550.83 757.9 546.22C760.09 541.61 770.63 530.75 773.7 526.25C776.77 521.75 775.46 510.23 777.1 505.62C778.74 501.01 786.21 491.47 788.07 491.03C789.94 490.59 796.72 490.71 799.15 489.38C801.26 488.23 808.59 483.02 808.81 480.82C809.03 478.63 809.03 463.05 812.21 455.69C815.39 448.34 812.21 442.41 810.13 440.44C808.05 438.47 791.37 426.72 792.68 421.68C794 416.63 797.07 415.1 796.85 412.13C796.63 409.17 784.45 401.6 786.76 396.44C789.06 391.28 794.66 385.47 795.54 384.48C796.42 383.49 801.79 378.23 803.66 371.64C805.53 365.06 812.55 362.75 812.55 362.75C812.55 362.75 847.55 351.34 850.84 349.91C854.13 348.48 859.51 345.3 861.48 341.9C863.45 338.5 864.37 330.91 865.21 326.87C866.55 320.45 873.13 317.23 873.13 317.23C873.13 317.23 871.56 316.87 867.72 313.74C864.3 310.95 858.92 309.04 853.19 308.22C847.45 307.4 844.45 309.31 840.9 315.87C837.35 322.43 837.62 330.62 837.35 334.72C837.08 338.82 831.59 339.11 825.06 339.91C818.3 340.74 818.01 338.85 807.3 332.26C796.59 325.67 794.19 315.87 791.73 307.4C790.81 304.22 788.56 301.7 786.1 299.78C782.33 296.82 777.74 295.11 772.97 294.57C768.63 294.08 761.69 293.32 755.12 292.65C744.47 291.56 743.92 314.23 743.65 316.69C743.38 319.15 736.27 326.8 736 330.35C735.73 333.9 737.07 345.77 736.53 347.14C735.99 348.51 733.55 349.75 724.06 350.02C714.57 350.29 708.69 346.47 698.58 345.38C688.47 344.29 683.55 351.66 670.99 351.39C658.42 351.12 651.59 341.28 645.58 328.17C639.57 315.06 637.11 297.03 635.47 291.29C633.83 285.55 631.1 281.18 618.26 278.72C605.42 276.26 593.13 285.55 593.13 285.55C595.37 289.02 603.12 295.83 603.12 295.83C612.34 301.92 609.54 303.57 609.54 305.7C609.54 307.83 610.2 309.65 610.86 310.31C611.52 310.97 614.81 308.99 616.95 310.64C619.09 312.29 623.53 317.06 621.23 322C618.93 326.94 613.08 329.97 611.85 332.53C610.62 335.09 609.71 337.63 612.01 343.89C614.31 350.14 615.63 364.96 610.2 371.87C610.2 371.87 602.55 379.57 597.55 381.3C592.54 383.03 592.24 383.85 592.24 383.85L599.64 393.05L599.62 393.03Z" stroke="#FF6E00" stroke-width="3" stroke-miterlimit="10"/>
<path d="M454.45 224.62C446.32 232.79 441.28 236.58 439.2 238.88C437.12 241.18 433.82 240.31 428.89 243.71C423.95 247.11 421.32 249.2 421.1 252.93C420.88 256.66 421.76 259.29 420.99 261.6C420.22 263.91 419.56 265.77 417.26 268.18C414.96 270.59 411.44 270.92 410.46 275.31C409.47 279.7 409.47 281.23 411.12 283.1C412.77 284.97 416.5 286.61 418.25 289.79C420.01 292.97 421.43 296.92 424.07 300.21C426.71 303.5 431.64 309.43 435.15 310.41C438.66 311.4 441.8 310.71 444.77 310.88C447.73 311.04 451.89 307.89 455.34 308.71C458.8 309.53 458.63 311.34 464.56 312.5C470.48 313.65 477.4 312.34 478.88 311.18C480.36 310.03 484.74 298 486.12 295.71C487.36 293.66 494.84 278.92 499.62 277.61C504.39 276.29 530.07 276.29 534.68 276.79C539.29 277.29 546.79 278.85 549.92 277.2C549.92 277.2 552.45 275.7 554.82 274.43C557.19 273.16 567.48 266.27 570.75 265.54C574.03 264.81 577.49 264.99 579.31 265.72C581.13 266.45 582.77 269.91 585.32 275.19C587.87 280.47 591 282.76 591 282.76C591 282.76 602.92 276 609.81 275.41C613.06 275.13 619.75 274.94 624.18 276.57C627.98 277.96 634.17 281.28 636.54 284.77C638.76 288.05 641.77 306.88 643.56 312.51C645.65 319.09 649.83 330.84 653.25 336.12C656.4 340.99 658.77 345.89 667.53 347.73C676.29 349.57 681.69 345.57 693.07 342.42C695.92 341.63 702.66 342.4 713.08 345.12C716.66 346.05 729.24 348.29 733.01 345.92C733.9 345.36 732.39 338.65 732.73 333.07C732.93 329.79 732.86 328 734.13 325.91C735.4 323.82 739.66 318.99 740.27 316.28C741.59 310.38 741.22 303.77 743.86 298.57C745.13 296.07 747.2 291.51 750.67 290.4C753.39 289.53 759.67 289.29 765.9 290.22C768.07 290.55 778.25 291.43 783.7 294.44C786.09 295.76 790.01 297.95 792.29 301.5C794.57 305.05 797.99 316.59 799.72 319.87C801.45 323.15 804.8 325.77 807.15 327.96C809.5 330.15 817.34 334.96 819.54 336.34C821.74 337.72 827.27 336.67 829.45 336.22C831.23 335.85 834.07 336.22 834.2 333C834.25 331.62 834.96 323.53 835.48 321.03C836.09 318.12 837.66 314.11 839.57 311.04C840.97 308.8 844.82 305.8 846.42 305.38C847.89 304.99 854.13 304.75 859.59 306.37C859.59 306.37 862.4 307.02 865.74 308.76C867.18 309.51 868.39 310.26 869.81 311.32C870.57 311.89 873.01 313.59 877.1 314.25C882.88 315.18 890.95 313.55 893.14 312.95L895.33 312.34C895.33 312.34 899.5 311.14 900.56 308.91C902.05 305.8 904.07 298.82 905.83 297.72C907.59 296.62 914.17 293.88 920.31 292.45C926.45 291.02 934.03 284 936.66 282.79C939.29 281.58 948.29 279.5 959.15 282.24C963.23 283.27 967.16 281.92 970.47 279.82C977.87 275.14 982.27 266.75 981.85 258.01C981.79 256.79 981.63 255.59 981.32 254.48C979.45 247.79 978.14 246.03 974.52 245.26C970.9 244.49 954.55 248.11 947.86 247.89C941.17 247.67 929.65 246.9 928.55 241.97C927.45 237.03 932.5 234.62 937.33 234.18C942.16 233.74 947.64 230.89 947.86 228.58C948.08 226.28 944.68 223.53 944.24 219.25C943.8 214.97 942.05 211.9 937.88 210.47C933.71 209.04 917.47 207.07 913.08 203.01C908.69 198.95 907.81 193.9 907.59 188.2C907.37 182.49 905.94 172.73 901.56 171.08C897.18 169.43 889.71 169.11 882.8 162.41C875.89 155.72 872.82 146.39 868.54 145.73C864.26 145.07 854.72 144.52 846.27 148.91C837.82 153.3 831.9 153.41 830.03 153.3C828.16 153.19 821.14 153.08 816.64 154.84C812.56 156.43 799.74 159.19 787 159.13C782.77 159.11 778.58 160.09 774.91 162.18C772.91 163.32 770.7 164.85 768.48 166.91C761.13 173.71 760.03 174.15 757.29 174.15C754.55 174.15 747.42 169.76 742.7 169.32C737.98 168.88 730.85 172.17 724.71 171.29C718.57 170.41 700.68 159 692.12 149.78C683.56 140.56 678.55 128.33 674.56 124.54C667.3 117.63 662.5 119.03 662.5 119.03L662.34 127.77C662.34 127.77 662.7 141.25 662.34 145.25C661.98 149.26 657.24 151.81 648.13 152.54C639.02 153.27 634.29 143.07 627.99 141.98C621.69 140.89 616.81 148.9 609.88 151.45C602.96 154 595.67 157.28 574.91 143.07C554.15 128.86 557.28 128.94 549.05 124.17C540.87 119.43 542.57 121.98 519.26 130.35C501.56 136.71 505.97 145.52 508.8 149.36C509.34 150.1 509.85 150.86 510.32 151.64C514.12 157.83 514.81 162.08 514.69 165C514.47 169.89 512.99 175.13 512.99 175.13C510.8 183.51 508.65 195.14 501.33 198.81C494.15 202.41 488.94 202.09 482.75 200.27C476.56 198.45 469.9 200.01 467.73 200.43C466.79 200.61 462.43 201.71 461.23 202.08C459.44 202.64 458.27 203.95 458.98 205.69C460.48 209.35 462.54 216.52 454.52 224.58L454.45 224.62Z" stroke="#BCBCBC" stroke-width="3" stroke-miterlimit="10"/>
<path d="M657.93 117.08C659.1 116.98 659.93 118.09 659.61 119.22C659.61 119.22 659.61 119.24 659.61 119.25C659.35 120.2 658.87 134.42 659.06 135.88C659.25 137.34 660.05 143.87 658.77 145.87C657.49 147.87 649.61 149.77 646.3 149.17C642.17 148.43 636.31 142.32 630.36 139.18C628.12 138 624.62 138.85 622.76 139.35C620.85 139.86 612.65 146.98 609.55 148.43C606.45 149.89 602.55 151.06 597.91 150.33C593.27 149.6 586.71 146.08 582.47 143.89C578.27 141.72 559.15 127.22 554.81 123.91C550.5 120.62 546.01 118.97 542.42 118.97C538.56 118.97 532.15 121.93 529.87 122.75C527.59 123.57 519.82 126.31 517.4 127.21C514.66 128.23 509.34 131.19 508.15 132.25C506.52 133.71 504.23 136.53 503.36 138.19C502.47 139.9 501.77 143.3 503.28 146.94C504.38 149.62 509.95 158.62 510.46 160.13C511.45 163.02 511.46 165.86 511.12 168.66C510.67 172.39 507.07 183.3 506.5 184.76C505.99 186.05 503.61 192.44 501.11 194.81C500.01 195.85 493.1 199.16 489.17 198.22C479.1 195.83 475.86 196.21 473.04 196.35C466.71 196.65 457.57 200.17 457.57 200.17C457.57 200.17 453.87 198.45 452.78 197.17C451.69 195.89 447.5 193.71 445.68 193.16C443.86 192.61 438.89 196.89 438.89 196.89C435.27 200.84 429.78 200.4 429.78 200.4C427.04 200.51 424.62 195.79 422.32 194.26C420.02 192.73 415.3 193.27 410.14 192.72C404.98 192.17 405.53 190.42 402.68 189.21C399.83 188 395.22 189.32 391.6 190.42C387.98 191.52 385.35 191.3 382.6 189.87C379.85 188.44 374.37 175.83 370.86 171.88C367.35 167.93 359.78 167.49 354.07 165.41C348.36 163.33 346.94 159.81 346.28 156.74C345.62 153.67 347.16 133.15 347.93 127.01C348.7 120.87 336.74 112.53 334.98 110.33C333.22 108.14 327.3 104.84 329.82 99.5799C332.34 94.3099 334.54 95.1899 339.91 94.8599C345.29 94.5299 343.53 89.1499 345.07 86.8499C346.61 84.5499 350.78 82.0199 356.92 80.0499C363.06 78.0799 383.47 71.7099 383.47 71.7099C387.86 71.4899 391.04 75.3299 400.59 76.7599C410.14 78.1899 420.34 71.1599 424.73 68.8599C429.12 66.5599 435.48 58.6599 436.8 54.8199C438.12 50.9799 436.69 50.7599 435.7 47.5799C434.71 44.3999 434.83 40.8099 435.04 39.7899C435.18 39.1099 436.47 34.4099 438.11 31.5599C439.76 28.7099 443.41 26.2199 446.23 24.6499C449.05 23.0799 455.56 20.2599 460.05 19.1599C464.55 18.0599 468.39 18.3899 473.87 17.2899C479.35 16.1899 478.41 15.6899 481.99 12.6799C485.37 9.83991 488.02 7.29993 490.33 6.20993C492.63 5.10993 495.82 6.31991 501.19 6.86991C506.57 7.41991 510.63 6.64992 514.91 5.98992C519.19 5.32992 522.37 2.25991 524.57 2.03991C526.76 1.81991 527.64 2.25991 530.82 4.33991C534 6.41991 537.95 8.72992 542.12 9.49992C546.29 10.2699 552.1 10.5999 557.7 10.2699C563.3 9.93992 563.08 7.08992 567.03 5.65992C570.98 4.22992 575.7 5.32991 578.55 6.53991C581.4 7.74991 583.71 10.9299 587 15.8699C590.29 20.8099 598.38 34.1699 599.62 37.1599C600.86 40.1499 605.54 51.0899 612.02 58.5599C618.49 66.0199 622.88 70.4099 623.32 74.2499C623.76 78.0899 619.45 84.8599 618.68 86.7199C617.91 88.5799 611.69 97.3999 612.68 107.93C613.67 118.46 628.04 123.29 634.4 123.73C638.78 124.03 640.76 123.4 642.47 122.12C644.58 120.54 646.89 119.24 649.41 118.48C651.45 117.87 652.24 117.71 654.93 117.27C655.9 117.11 656.97 117.18 657.92 117.1L657.93 117.08Z" stroke="#FAE902" stroke-width="3" stroke-miterlimit="10"/>
</svg>


