<?xml version="1.0" encoding="UTF-8"?>
<svg id="Calque_8" data-name="Calque 8" xmlns="http://www.w3.org/2000/svg" viewBox="0 0 1920 1080">
  <defs>
    <style>
      .cls-1 {
        stroke: #ff6e00;
        stroke-width: 3px;
      }

      .cls-1, .cls-2 {
        fill: none;
        stroke-miterlimit: 10;
      }

      .cls-3 {
        letter-spacing: -.03em;
      }

      .cls-4 {
        letter-spacing: 0em;
      }

      .cls-5 {
        letter-spacing: -.01em;
      }

      .cls-6 {
        letter-spacing: -.01em;
      }

      .cls-7 {
        letter-spacing: -.02em;
      }

      .cls-8 {
        letter-spacing: -.01em;
      }

      .cls-9 {
        letter-spacing: -.01em;
      }

      .cls-10 {
        letter-spacing: 0em;
      }

      .cls-11 {
        letter-spacing: 0em;
      }

      .cls-12 {
        fill: #fff;
        font-family: MonumentExtended-Regular, 'Monument Extended';
        font-size: 48px;
      }

      .cls-13 {
        letter-spacing: .01em;
      }

      .cls-2 {
        stroke: #000;
      }

      .cls-14 {
        letter-spacing: -.01em;
      }

      .cls-15 {
        letter-spacing: -.03em;
      }
    </style>
  </defs>
  <g>
    <path class="cls-1" d="m1013.62,570.03c1,1.6,2.69,4.65,3.11,5.95.28.87.36,2.51-.46,4.33s-3.55,6.28-3.72,13.46c-.11,4.64-.55,10.69,4.6,16.6,2.12,2.43,3.25,4.9,3.25,6.36s-.83,5.45-3.25,8.17c-2.24,2.52-5.6,4.18-9.88,4.54s-9.58-.68-12.72-1.57-5.59-1.49-9.74-1.07c-3.58.36-3.38.35-7.35,1.57s-5.88,2.32-8.34,3.96-4.71,2.97-4.15,5.6c.89,4.15,2.39,6.33,3.11,7.63,2.32,4.16,2.68,5.34,4.09,8.15,2.48,4.95,2.92,7.24,3.47,10.16s1.14,7.18,1.32,9.83,1.06,7.23,1.24,10.24.53,6.76-.74,9.94c-1.27,3.19-3.34,5.48-4.71,6.9s-2.45,2.01-2.45,2.01c0,0,7.8,5.63,11.62,9.4,1.75,1.73,4,4.16,4,4.16,2.19,2.46,5.93,7.95,5.93,7.95,4.28,7.24,6.36,11.19,4.61,25.02-1.76,13.82-4.94,23.37-.88,29.52,4.06,6.14,7.79,5.6,10.42,13.39,2.94,8.69,4.24,10.96,12.58,10.32,3.71-.29,7.45.45,10.66,2.33,5.41,3.16,11.23,9,9.35,18.07-1.87,9-2.96,19.2,3.07,24.47,6.03,5.27,20.63,21.51,24.03,26.11,3.4,4.61,25.35,4.61,28.86,3.51,3.51-1.1,6.58-3.29,7.13-7.57s2.41-12.18,5.49-14.81c3.07-2.63,17.77-5.92,23.59-3.62,5.82,2.3,20.96,12.07,20.96,12.07,0,0,11.08,7.02,13.93,7.46,2.85.44,19.31-3.51,24.91-5.05,5.6-1.54,15.58.33,17.12-.33,1.54-.66,8.45-9.11,10.31-11.63,1.87-2.52,8.78-6.14,9.66-7.68.88-1.54,5.71-11.41,8.23-14.7,2.52-3.29,7.79-10.09,3.95-14.59-3.84-4.5-13.39-8.78-16.13-10.64-2.74-1.87-5.16-4.72-9.33-4.83s-9.77,2.19-13.61.77c-3.84-1.43-6.47-11.63-9.77-14.81s-15.47-13.72-16.24-24.14c-.77-10.42-5.05-35.11-2.85-39.72,2.19-4.61,12.73-15.47,15.8-19.97,3.07-4.5,1.76-16.02,3.4-20.63s9.11-14.15,10.97-14.59c1.87-.44,8.65-.32,11.08-1.65,2.11-1.15,9.44-6.36,9.66-8.56.22-2.19.22-17.77,3.4-25.13,3.18-7.35,0-13.28-2.08-15.25-2.08-1.97-18.76-13.72-17.45-18.76,1.32-5.05,4.39-6.58,4.17-9.55-.22-2.96-12.4-10.53-10.09-15.69,2.3-5.16,7.9-10.97,8.78-11.96.88-.99,6.25-6.25,8.12-12.84,1.87-6.58,8.89-8.89,8.89-8.89,0,0,35-11.41,38.29-12.84,3.29-1.43,8.67-4.61,10.64-8.01,1.97-3.4,2.89-10.99,3.73-15.03,1.34-6.42,7.92-9.64,7.92-9.64,0,0-1.57-.36-5.41-3.49-3.42-2.79-8.8-4.7-14.53-5.52-5.74-.82-8.74,1.09-12.29,7.65-3.55,6.56-3.28,14.75-3.55,18.85-.27,4.1-5.76,4.39-12.29,5.19-6.76.83-7.05-1.06-17.76-7.65s-13.11-16.39-15.57-24.86c-.92-3.18-3.17-5.7-5.63-7.62-3.77-2.96-8.36-4.67-13.13-5.21-4.34-.49-11.28-1.25-17.85-1.92-10.65-1.09-11.2,21.58-11.47,24.04s-7.38,10.11-7.65,13.66,1.07,15.42.53,16.79-2.98,2.61-12.47,2.88c-9.49.27-15.37-3.55-25.48-4.64s-15.03,6.28-27.59,6.01c-12.57-.27-19.4-10.11-25.41-23.22-6.01-13.11-8.47-31.14-10.11-36.88s-4.37-10.11-17.21-12.57c-12.84-2.46-25.13,6.83-25.13,6.83,2.24,3.47,9.99,10.28,9.99,10.28,9.22,6.09,6.42,7.74,6.42,9.87s.66,3.95,1.32,4.61,3.95-1.32,6.09.33c2.14,1.65,6.58,6.42,4.28,11.36-2.3,4.94-8.15,7.97-9.38,10.53s-2.14,5.1.16,11.36c2.3,6.25,3.62,21.07-1.81,27.98,0,0-7.65,7.7-12.65,9.43-5.01,1.73-5.31,2.55-5.31,2.55l7.4,9.2Z"/>
    <path class="cls-2" d="m1004.98,462.08s9.68-5.68,14.26-6.8,11.17-1.95,17.79,0c4.51,1.33,9.01,4.63,10.54,6.06,1.57,1.47,2.05,2.34,3.54,8.89,1.5,6.6,2.68,13.19,3.86,17.56,1.18,4.37,6.51,18.86,8.1,21.76,1.8,3.28,6.03,12.07,13.11,15.39,7.08,3.32,14.34,1.91,15.48,1.55,1.47-.47,12.66-4.92,16.21-5.28s10.2.55,15.12,1.91c4.92,1.37,14.21,3.19,19.03,2.55,4.83-.64,7.01-1,6.92-2.37s-.95-16.09.32-18.45c1.27-2.37,4.78-7.14,6.23-9.41,1.46-2.28,1.27-7.65,1.82-10.84.55-3.19,2.61-13.66,8.25-15.66,4.71-1.67,19.43.73,25.8,2.19,6.37,1.46,12.29,6.1,13.93,9.47s5.42,15.78,7.51,18.42,7.22,7.92,9.7,9.45c3.45,2.13,8.35,5.62,9.84,6.35,2.04.99,2.86,2.42,15.47-.62,0,0,2.46-.55,2.37-5.92-.09-5.37,1.39-11.68,2.31-14.22s4.34-9.28,9.44-10.01c5.1-.73,13.59,1.59,16.05,2.96s7.57,4.87,8.75,5.23c1.18.36,4.84,1.1,4.84,1.1"/>
  </g>
  <text class="cls-12" transform="translate(2.5 -14.3)"><tspan class="cls-4" x="0" y="0">c</tspan><tspan class="cls-15" x="42.29" y="0">r</tspan><tspan class="cls-14" x="74.59" y="0">e</tspan><tspan class="cls-15" x="116.16" y="0">a</tspan><tspan class="cls-11" x="156.43" y="0">t</tspan><tspan class="cls-5" x="189.12" y="0">i</tspan><tspan class="cls-7" x="200.88" y="0">v</tspan><tspan class="cls-10" x="243.55" y="0">i</tspan><tspan class="cls-9" x="255.79" y="0">t</tspan><tspan class="cls-13" x="287.38" y="0">y </tspan><tspan class="cls-10" x="355.25" y="0">c</tspan><tspan class="cls-8" x="397.25" y="0">o</tspan><tspan class="cls-6" x="439.06" y="0">a</tspan><tspan class="cls-3" x="480.43" y="0">s</tspan><tspan class="cls-13" x="521.04" y="0">t</tspan></text>
</svg>