<svg width="325" height="425" viewBox="0 0 325 425" fill="transparent" xmlns="http://www.w3.org/2000/svg">
<path d="M49.6198 116.03C50.6198 117.63 52.3098 120.68 52.7298 121.98C53.0098 122.85 53.0898 124.49 52.2698 126.31C51.4498 128.13 48.7198 132.59 48.5498 139.77C48.4398 144.41 47.9998 150.46 53.1498 156.37C55.2698 158.8 56.3998 161.27 56.3998 162.73C56.3998 164.19 55.5698 168.18 53.1498 170.9C50.9098 173.42 47.5498 175.08 43.2698 175.44C38.9898 175.8 33.6898 174.76 30.5498 173.87C27.4098 172.98 24.9598 172.38 20.8098 172.8C17.2298 173.16 17.4298 173.15 13.4598 174.37C9.48982 175.59 7.57979 176.69 5.11979 178.33C2.65979 179.97 0.40977 181.3 0.96977 183.93C1.85977 188.08 3.35982 190.26 4.07982 191.56C6.39982 195.72 6.75978 196.9 8.16978 199.71C10.6498 204.66 11.0898 206.95 11.6398 209.87C12.1898 212.79 12.7798 217.05 12.9598 219.7C13.1398 222.35 14.0198 226.93 14.1998 229.94C14.3798 232.95 14.7298 236.7 13.4598 239.88C12.1898 243.07 10.1198 245.36 8.7498 246.78C7.3798 248.2 6.29979 248.79 6.29979 248.79C6.29979 248.79 14.0998 254.42 17.9198 258.19C19.6698 259.92 21.9198 262.35 21.9198 262.35C24.1098 264.81 27.8498 270.3 27.8498 270.3C32.1298 277.54 34.2098 281.49 32.4598 295.32C30.6998 309.14 27.5198 318.69 31.5798 324.84C35.6398 330.98 39.3698 330.44 41.9998 338.23C44.9398 346.92 46.2398 349.19 54.5798 348.55C58.2898 348.26 62.0298 349 65.2398 350.88C70.6498 354.04 76.4698 359.88 74.5898 368.95C72.7198 377.95 71.6298 388.15 77.6598 393.42C83.6898 398.69 98.2897 414.93 101.69 419.53C105.09 424.14 127.04 424.14 130.55 423.04C134.06 421.94 137.13 419.75 137.68 415.47C138.23 411.19 140.09 403.29 143.17 400.66C146.24 398.03 160.94 394.74 166.76 397.04C172.58 399.34 187.72 409.11 187.72 409.11C187.72 409.11 198.8 416.13 201.65 416.57C204.5 417.01 220.96 413.06 226.56 411.52C232.16 409.98 242.14 411.85 243.68 411.19C245.22 410.53 252.13 402.08 253.99 399.56C255.86 397.04 262.77 393.42 263.65 391.88C264.53 390.34 269.36 380.47 271.88 377.18C274.4 373.89 279.67 367.09 275.83 362.59C271.99 358.09 262.44 353.81 259.7 351.95C256.96 350.08 254.54 347.23 250.37 347.12C246.2 347.01 240.6 349.31 236.76 347.89C232.92 346.46 230.29 336.26 226.99 333.08C223.69 329.9 211.52 319.36 210.75 308.94C209.98 298.52 205.7 273.83 207.9 269.22C210.09 264.61 220.63 253.75 223.7 249.25C226.77 244.75 225.46 233.23 227.1 228.62C228.74 224.01 236.21 214.47 238.07 214.03C239.94 213.59 246.72 213.71 249.15 212.38C251.26 211.23 258.59 206.02 258.81 203.82C259.03 201.63 259.03 186.05 262.21 178.69C265.39 171.34 262.21 165.41 260.13 163.44C258.05 161.47 241.37 149.72 242.68 144.68C244 139.63 247.07 138.1 246.85 135.13C246.63 132.17 234.45 124.6 236.76 119.44C239.06 114.28 244.66 108.47 245.54 107.48C246.42 106.49 251.79 101.23 253.66 94.6401C255.53 88.0601 262.55 85.75 262.55 85.75C262.55 85.75 297.55 74.34 300.84 72.91C304.13 71.48 309.51 68.3001 311.48 64.9001C313.45 61.5001 314.37 53.91 315.21 49.87C316.55 43.45 323.13 40.2301 323.13 40.2301C323.13 40.2301 321.56 39.87 317.72 36.74C314.3 33.95 308.92 32.04 303.19 31.22C297.45 30.4 294.45 32.31 290.9 38.87C287.35 45.43 287.62 53.62 287.35 57.72C287.08 61.82 281.59 62.11 275.06 62.91C268.3 63.74 268.01 61.8501 257.3 55.2601C246.59 48.6701 244.19 38.87 241.73 30.4C240.81 27.22 238.56 24.7 236.1 22.78C232.33 19.82 227.74 18.11 222.97 17.57C218.63 17.08 211.69 16.32 205.12 15.65C194.47 14.56 193.92 37.23 193.65 39.69C193.38 42.15 186.27 49.8 186 53.35C185.73 56.9 187.07 68.7701 186.53 70.1401C185.99 71.5101 183.55 72.7501 174.06 73.0201C164.57 73.2901 158.69 69.47 148.58 68.38C138.47 67.29 133.55 74.6601 120.99 74.3901C108.42 74.1201 101.59 64.2801 95.5798 51.1701C89.5698 38.0601 87.1098 20.03 85.4698 14.29C83.8298 8.55005 81.0998 4.18004 68.2598 1.72004C55.4198 -0.739959 43.1298 8.55003 43.1298 8.55003C45.3698 12.02 53.1198 18.83 53.1198 18.83C62.3398 24.92 59.5398 26.5701 59.5398 28.7001C59.5398 30.8301 60.1998 32.65 60.8598 33.31C61.5198 33.97 64.8098 31.9901 66.9498 33.6401C69.0898 35.2901 73.5298 40.06 71.2298 45C68.9298 49.94 63.0798 52.97 61.8498 55.53C60.6198 58.09 59.7098 60.6301 62.0098 66.8901C64.3098 73.1401 65.6297 87.96 60.1997 94.87C60.1997 94.87 52.5498 102.57 47.5498 104.3C42.5398 106.03 42.2398 106.85 42.2398 106.85L49.6398 116.05L49.6198 116.03Z" stroke="#0000FF"/>
</svg>
