<svg width="437" height="327" viewBox="0 0 437 327" fill="none" xmlns="http://www.w3.org/2000/svg">
<path d="M44.5382 296.926C50.6475 334.135 8.84745 322.655 2.5 322V2H430.5C430.66 6.40552 429.991 41.922 433.995 54.325L419.478 68.7124L402.458 74.8474M44.6268 297.48C45.5394 291.469 54.9004 281.864 56.5523 281.051C58.2043 280.237 68.5764 265.929 69.5676 266.663C70.5588 267.397 84.7154 264.857 88.0893 266.167C88.0893 266.167 102.536 266.901 103.608 266.167M101.605 266.321C101.605 265.671 113.167 276.371 114.318 277.76C115.469 279.149 119.094 280.73 121.486 280.641C121.486 280.641 130.639 279.562 131.64 281.838C132.141 292.957 157.671 305.857 165.68 294.942C174.19 289.485 186.705 304.368 192.212 295.934C201.723 289.981 211.735 287.004 216.24 270.632C219.744 270.632 209.732 249.795 210.733 247.811C218.242 245.826 213.835 234.416 210.733 227.966C209.732 219.532 232.759 212.586 231.758 205.145C236.954 203.785 226.702 186.481 233.26 181.331C239.828 176.181 245.124 167.757 249.779 166.944C259.791 168.432 253.223 163.153 262.794 163.967C271.304 166.448 270.473 174.653 280.315 174.385C290.157 174.117 299.838 156.029 308.348 163.967C316.858 171.905 342.386 139.918 343.747 133.132C345.109 126.345 330.474 112.43 326.369 105.921C322.264 99.4121 327.871 95.0066 332.015 92.8767C345.391 92.0299 336.381 90.5415 342.388 84.092C346.812 79.3426 367.485 71.614 381.934 69.7046C389.443 68.7124 399.685 77.4917 402.959 74.5051" stroke="#22FFFF" stroke-width="4" stroke-miterlimit="10"/>
</svg>
