<svg width="576" height="233" viewBox="0 0 576 233" fill="none" xmlns="http://www.w3.org/2000/svg">
<path d="M46.5 107.6C38.4 115.8 33.3 119.6 31.3 121.9C29.3 124.2 25.9 123.3 21 126.7C16.1 130.1 13.4 132.2 13.2 135.9C13 139.6 13.9 142.3 13.1 144.6C12.3 146.9 11.7 148.8 9.40004 151.2C7.10004 153.6 3.59999 153.9 2.59999 158.3C1.59999 162.7 1.6 164.2 3.3 166.1C5 168 8.70004 169.6 10.4 172.8C12.2 176 13.6 179.9 16.2 183.2C18.8 186.5 23.8 192.4 27.3 193.4C30.8 194.4 34 193.7 36.9 193.9C39.9 194.1 44 190.9 47.5 191.7C51 192.5 50.8 194.3 56.7 195.5C62.6 196.6 69.5 195.3 71 194.2C72.5 193.1 76.9 181 78.2 178.7C79.4 176.7 86.9 161.9 91.7 160.6C96.5 159.3 122.2 159.3 126.8 159.8C131.4 160.3 138.9 161.9 142 160.2C142 160.2 144.5 158.7 146.9 157.4C149.3 156.1 159.6 149.2 162.8 148.5C166.1 147.8 169.5 148 171.4 148.7C173.2 149.4 174.9 152.9 177.4 158.2C179.9 163.5 183.1 165.8 183.1 165.8C183.1 165.8 195 159 201.9 158.4C205.1 158.1 211.8 157.9 216.3 159.6C220.1 161 226.3 164.3 228.7 167.8C230.9 171.1 233.9 189.9 235.7 195.5C237.8 202.1 242 213.8 245.4 219.1C248.6 224 250.9 228.9 259.7 230.7C268.5 232.5 273.9 228.5 285.2 225.4C288 224.6 294.8 225.4 305.2 228.1C308.8 229 321.4 231.3 325.1 228.9C326 228.3 324.5 221.6 324.8 216C325 212.7 324.9 210.9 326.2 208.8C327.5 206.7 331.7 201.9 332.3 199.2C333.6 193.3 333.2 186.7 335.9 181.5C337.2 179 339.2 174.4 342.7 173.3C345.4 172.4 351.7 172.2 357.9 173.1C360.1 173.4 370.2 174.3 375.7 177.3C378.1 178.6 382 180.8 384.3 184.4C386.6 187.9 390 199.5 391.7 202.8C393.4 206.1 396.8 208.7 399.1 210.9C401.4 213.1 409.3 217.9 411.5 219.3C413.7 220.7 419.2 219.6 421.4 219.2C423.2 218.8 426 219.2 426.2 216C426.3 214.6 427 206.5 427.5 204C428.1 201.1 429.7 197.1 431.6 194C433 191.8 436.8 188.8 438.4 188.3C439.9 187.9 446.1 187.7 451.6 189.3C451.6 189.3 454.4 189.9 457.8 191.7C459.2 192.5 460.5 193.2 461.9 194.3C462.7 194.9 465.1 196.6 469.2 197.2C475 198.1 483 196.5 485.2 195.9L487.4 195.3C487.4 195.3 491.6 194.1 492.6 191.9C494.1 188.8 496.1 181.8 497.9 180.7C499.7 179.6 506.2 176.9 512.4 175.4C518.6 173.9 526.1 166.9 528.7 165.7C531.3 164.5 540.3 162.4 551.2 165.2C555.3 166.2 559.2 164.9 562.5 162.8C569.9 158.1 574.3 149.7 573.9 141C573.8 139.8 573.7 138.6 573.4 137.5C571.5 130.8 570.2 129 566.6 128.3C563 127.6 546.6 131.2 539.9 130.9C533.2 130.7 521.7 129.9 520.6 125C519.5 120.1 524.5 117.6 529.4 117.2C534.2 116.8 539.7 113.9 539.9 111.6C540.1 109.3 536.7 106.6 536.3 102.3C535.9 97.9999 534.1 94.9 529.9 93.5C525.7 92.1 509.5 90.1 505.1 86C500.7 81.9 499.8 76.9 499.6 71.2C499.4 65.5 497.9 55.7 493.6 54.1C489.3 52.5 481.8 52.0999 474.8 45.3999C467.9 38.6999 464.8 29.4 460.5 28.7C456.2 28 446.7 27.4999 438.2 31.8999C429.8 36.2999 423.8 36.3999 422 36.2999C420.2 36.1999 413.1 36.0999 408.6 37.7999C404.5 39.3999 391.7 42.2 379 42.1C374.8 42.1 370.6 43.1 366.9 45.1C364.9 46.2 362.7 47.7999 360.5 49.7999C353.2 56.5999 352.1 57 349.3 57C346.5 57 339.4 52.6 334.7 52.2C330 51.8 322.9 55.1 316.7 54.2C310.5 53.3 292.7 41.9 284.1 32.7C275.5 23.5 270.5 11.2 266.5 7.49996C259.2 0.599955 254.4 1.99996 254.4 1.99996L254.2 10.7C254.2 10.7 254.6 24.2 254.2 28.2C253.8 32.2 249.1 34.8 240 35.5C230.9 36.2 226.2 25.9999 219.9 24.8999C213.6 23.7999 208.7 31.7999 201.8 34.3999C194.9 36.8999 187.6 40.2 166.8 26C146 11.8 149.2 11.9 140.9 7.09996C132.7 2.39996 134.4 4.89994 111.1 13.2999C93.4 19.6999 97.8 28.4999 100.6 32.2999C101.1 32.9999 101.6 33.8 102.1 34.6C105.9 40.8 106.6 45 106.5 48C106.3 52.9 104.8 58.1 104.8 58.1C102.6 66.5 100.5 78.0999 93.1 81.7999C85.9 85.3999 80.7 85.0999 74.5 83.2999C68.3 81.4999 61.7 83 59.5 83.5C58.6 83.7 54.2 84.8 53 85.1C51.2 85.7 50 87 50.8 88.7C52.5 92.4 54.5 99.5 46.5 107.6Z" stroke="#BCBCBC" stroke-width="3" stroke-miterlimit="10"/>
</svg>
