<?xml version="1.0" encoding="utf-8"?>
<!-- Generator: Adobe Illustrator 27.1.1, SVG Export Plug-In . SVG Version: 6.00 Build 0)  -->
<svg version="1.1" id="Calque_8" xmlns="http://www.w3.org/2000/svg" xmlns:xlink="http://www.w3.org/1999/xlink" x="0px" y="0px"
	 viewBox="0 0 1920 1080" style="enable-background:new 0 0 1920 1080;" xml:space="preserve">
<style type="text/css">
	.st0{fill:none;stroke:#EF2A92;stroke-width:3;stroke-miterlimit:10;}
	.st1{fill:none;stroke:#000000;stroke-miterlimit:10;}
	.st2{fill:#FFFFFF;}
	.st3{font-family:'MonumentExtended-Regular';}
	.st4{font-size:48px;}
</style>
<path class="st0" d="M816.2,454c2.2,4.9-0.1,16.3,8,22.8c4,3.2,1.2,5.1,1.7,8.7s1.3,4.4,1.3,4.4l0.5,0.3c0.5,0.3,1.3,1,3.6,1.3
	c2.3,0.3,3.6-0.2,6.1,2s3,6.4,3.1,8.1s1.2,1.6,6.9,6.4c5.8,4.8,19.1,3.6,22.5,1.8c3.5-1.8,6.6-11.4,9.2-11.9
	c2.6-0.5,10.5,1.6,17.9-1c7.4-2.6,10.9-15.5,13.2-19.4c2.3-4,7.2-3.3,11.5-3c4.3,0.3,17.5,9.7,19.3,11s0.5,5.9-0.3,7.7
	s-3.8,1.1-4.4,7.1c-0.7,5.9,4.8,6.1,5.6,7.9c0.8,1.8-0.2,3.3-2.3,4.3s-5.1,6.4-5.3,10.9c-0.2,4.4,8.7,25.5,11.7,28
	c3,2.5,11.5,2.1,16.3,3.3s4.1,7.9,4.9,11.7c0.8,3.8,2.5,4.9,4.9,6.8c2.5,1.8,16,1.3,18.3,0.8s1.5-2.2,5.3-7.1
	c2.8-3.6,7.8-4.2,7.8-4.2s12.3,12.8,10.1,16.1s-5.2,12.3-3.8,23s9,10.9,7.1,16.9c-1.9,6-6.8,8.5-15.8,7.4c-9-1.1-10.4-5.2-29.2,1.4
	c-13,4.5-10.4,13-7.5,17.8c1.9,3.2,3.7,6.5,5.3,9.9c2.2,4.7,3,6.3,4.4,20.4c1.9,18.8,0.3,20.5-3.8,23.2c-4.1,2.7-9.8,4.4-19.1,1.4
	c-9.3-3-26-3.1-26-3.1c-3.5-0.1-18.9-1.2-25.7-2.8c-4.5-1.1-9-4.5-11.4-6.6c-1.2-1.1-2.5-2.1-3.7-3.1c-3.9-3-11.6-9.8-13-10.7
	c-1.8-1.1-8.3-3-15.9-3s-16.7,7.8-19.1,8.9c-2.4,1.1-5.3,2.1-9.7,1c-4.4-1.1-6.4-4.8-15.1-6.4s-17.8,5.6-24.2,9.6
	c-6.4,4-5.6,11.5-4.6,13.5s10.5,9.2,11.3,11.3s-2.6,5.6,0.8,14.6c3.4,9,17.8,13.3,22.3,12.8s8.5-7.1,10.3-9.1c1.9-2,7.5-2.5,10.2,0
	s-0.5,10.3-0.9,11.5s-0.9,3.7,0.7,5.6s5.8,4.1,8.5,8.2s0.7,10.5,0,12.7c-0.7,2.2-0.8,8.8-2.3,10.3c-0.4,0.4-1,0.9-1.6,1.3
	c-2.4,1.8-4.6,3.8-6.8,5.9c-4.9,4.9-11.1,9.3-12.1,9.4c-1.2,0.1-5.8,0.9-11.5,1.5s-21.8,3.2-24.1,2.8s-15.4-1.6-18.4-2.2
	c-3-0.5-4.7-3.8-8.7-8.3c-3.1-3.5-8.1-4-10.1-4c-0.9,0-1.8-0.1-2.6-0.1c-3.2-0.3-10-0.7-12.8-0.3c-3.8,0.5-7.7,11.5-12.2,13.7
	s-7.4,3.8-21.6,0c-9.2-2.5-15.2-10-18.2-15c-3.5-5.7-7.8-10.9-12.7-15.5c-3.5-3.2-7.2-6.3-10.6-8.4c-7.7-4.9-10.4-4.9-15.3-5.5
	s-7.7-2.7-8.7-9.3s4.4-14.8,6-17.5s-1.6-7.7-3.8-9.8s-11.8-0.7-16.5-3.5c-0.3-0.2-0.6-0.5-0.7-0.9c-0.8-2-6.9-10.3-4.9-11.1
	c2.7-1.1,4.3-0.8,10.2-3.3c8.8-3.7,9.9-4.5,15-9.2c2-1.9,4.2-4.9,7.5-11.5c2-3.9,4.8-10.9,5.1-12.3c0.6-3.4,0.7-4.5,0.8-7
	c0.1-3.5-1.2-7.1-2.4-10.5c-2.4-6.6-7.4-20.1-7.9-23.5c-1-7.1-0.2-16.4,5.2-23.5c5.5-7.1,7.5-10.5,13-8.3c5,2.1,10.2,6.5,15.4,5.9
	c6.5-0.7,12.6-9.6,19-15.1c0,0,4.8-4.6,14.8-5.7c8-0.9,12.8-1.1,22.2,0.9c16.3,3.4,24.2,3.2,27.5,2.3c3.6-1,12.4-5.2,20.6-4.4
	c8.2,0.8,12.4,0.9,17.3,0.1c4.9-0.8,11.3-6,18-11.6c5.6-4.6,10.5-11.8,12.4-16.5s4.5-14,3-17.8c-2.7-6.3-8.7-11.1-10.7-14
	c-4.6-6.6-4.8-7.8-7-17.4c-1.8-7.7-2-21.5-3.3-25.4c-0.6-1.7-1.4-5.3-1.3-7.5c0.2-3.1,1.2-5.6,3.7-7.4L816.2,454L816.2,454z"/>
<path class="st1" d="M967.1,702.2c5.5-2.1,9.1-7.4,9.3-13.3c0.1-3-0.1-7.1-1-12.8c-2.4-15.4-1-8.7-2.2-14.9c-0.6-3-2.4-6-3.6-8.6
	c-0.6-1.4-1.3-2.7-2.1-4c-1.7-2.9-4.6-8.2-4.5-11c0.2-4.2,3-6,9.7-9.2s13.1-3.4,16.8-3.4s14.2,4.4,21.1,1.8s7.7-8.1,7.7-8.7
	s0.9-2.1-2.2-6s-5.5-7-5.7-15.8c-0.1-8.8,2-12.2,2.4-13.4s2.2-3.6,2.1-5.5s-3.4-7-5.7-9.8c-2.3-2.8-5.5-6.6-5.5-6.6"/>
<text transform="matrix(1 0 0 1 -2.147 -13.9791)" class="st2 st3 st4">loyalty lagoon</text>
</svg>
