<?xml version="1.0" encoding="utf-8"?>
<!-- Generator: Adobe Illustrator 27.1.1, SVG Export Plug-In . SVG Version: 6.00 Build 0)  -->
<svg version="1.1" id="Calque_8" xmlns="http://www.w3.org/2000/svg" xmlns:xlink="http://www.w3.org/1999/xlink" x="0px" y="0px"
	 viewBox="0 0 1920 1080" style="enable-background:new 0 0 1920 1080;" xml:space="preserve">
<style type="text/css">
	.st0{fill:none;stroke:#A194BA;stroke-width:4;stroke-miterlimit:10;}
	.st1{fill:none;stroke:#000000;stroke-miterlimit:10;}
</style>
<path class="st0" d="M822.5,442.8c0-1.8,0.8-2.1,0.7-6.6s-0.5-6.1,1.5-8.6s7.6-6.8,11.2-9.4s6.2-4.3,8.4-7.6s3.8-7.4,3.8-7.4
	c0.2-3.7-2.8-7.9-5.3-11c-2.4-3.1-10.4-3.6-14.4-2.7s-11.2,10.5-15.1,12.1s-20.5-8.8-22.7-10.9s-0.1-17.6-1.5-21.4
	s-6.6-3.2-11.7-4.8s-9.1-8.7-10-9c-0.9-0.3-5.4,0.4-7,0.5c-1.7,0.1-4.6-0.4-6.4-2.4c-1.8-2-3.5-2.4-5.6-2.4s-4,2-6.9,2.7
	c-3,0.8-6.7,1.6-10.1,0.1s-9-11.9-9.7-12.2s-4.2,0.1-5.4,0c-1.2-0.1-2.4,1.4-3.5,2.9c-1.1,1.4-9.5,10.1-14.2,10.4s-9.8-0.7-14.7-6
	c-4.9-5.4-5.3-5.4-6.8-5.6c-1.5-0.2-3.6,3.4-5.3,3.5s-6.7-0.3-8.5,0s-6.6,6.5-10.1,9.5c-3.5,3.1-3.2,8.5-2.8,21.9
	s-17.9,21.3-18.5,22c-0.7,0.8-4.5,3.1,0.2,12c4.7,8.9,0.8,10.2-0.8,11.5c-1.5,1.3-1.2,7.7,1.4,11.1c2.6,3.4,4.2,10.8,1.4,18.4
	s-24.4,22.5-27.9,25.4c-3.5,2.9-10,0.1-12-2.1c-2-2.2-4.3-2.3-6.6-2.3s-5.7,3-9.3,4.9c-3.6,2-18-1.1-22.6-3.2s-7.7-8.3-8.6-11.4
	s-1.5-3.5-3-4.4c-1.4-0.9-9.9,0.7-13.5-0.1c-3.6-0.8-12.2-12-14.5-13.1s-30.9,0-30.9,0c-3.6,0.3-9.5,12.2-11.2,13.8
	c-1.6,1.6-8.6,7.9-10.2,10.2c-1.6,2.3-0.3,12.8,0,18.1s-9.9,13.5-12.2,15.1c-2.3,1.6-16.1-0.3-22,0c-5.9,0.3-8.9,9.6-8.9,9.6
	s0.5,11,0,13.3s-3.8,4.1-4.1,6.2s0.1,3.9,0.7,4.4c0.8,0.7,1.8-0.3,3.4,2.5s2.5,6.1,3.6,6.4s11.9-3.6,14,0c0,0-0.5,6.9,0.2,10.1
	c0.7,3.2,7.6,8.5,9,10.9s3.5,7.2,4.5,8.6s6.9,3.8,10.1,4.6c3.2,0.8,8.2,1.1,10,1.8c1.8,0.7,5.6,3.4,7.8,5.7c2.2,2.3,1.6,2.3,3.2,3.5
	c1.5,1.2,3.2,1.5,4.4,1.5s15.6-0.6,17.2,0c1.6,0.6,3.6,0.9,5.3,2.6s7.4,6.9,7.4,9.2s-1.3,3.3-1.8,4.3s-0.7,4-0.2,4.6
	s1.8,3.3,1.5,4.6s-5.4,2.3-6.2,3.3c-0.8,1-1.6,3.6-0.7,5.6s2.6,4.7,1.6,8.7c-1,4-8.1,6.6-9.7,7.6s-2.6,2.5-2.5,4.2s0.3,3.3,2.5,4.9
	c2.2,1.6,3,3.2,3.6,8c0.6,4.8-1.5,14,4.9,14.7c6.3,0.7,9.8-1.7,12.3,1.2c2.5,2.8,2.4,8.2,4.3,10.4s3.9,2.6,4.9,2.6s4.7-2.1,6.3-3
	s5.3-0.7,6.3,0c1,0.7,7.7,10.9,11.1,12.2s8.2,0.7,9.2,0c1.1-0.7,4.7-4.4,5.4-4.9s4.5-6.2,6.5-5.9s3.2,1.9,4.9,2.1
	c1.7,0.2,4.9-0.7,4.9-0.7s6.8-3.5,7.7-3.2c0.9,0.2,1.3,1.6,2.5,3c1.2,1.4,4.8,4.2,7.2,4.1c0,0,4,0.1,5.1,1.2s4.5,0.3,4.5,0.3
	s22.5-3.8,28.8-17.8c6.3-13.9,10.4-17.8,6-30.6s-11.2-25.4-8.2-37.2c3-11.8,8.2-17.8,11.8-21.3c0.2-0.2,0.5-0.4,0.7-0.7
	c3.5-3,8.6-3,12.4-0.5s8.9,5.5,12.1,4.7c5.2-1.4,12.6-10.9,19.1-16.1c6.6-5.2,18-4.6,22.7-5.5c4.6-0.8,24,4.1,33.6,4.9
	s16.1-5.2,26-5.5s10.1,2.7,19.9,0c9.8-2.7,26.2-19.1,27.6-26s5.2-10.9,1.1-17.5S817,515.4,814,507.7c-3-7.6-5.2-22.7-4.9-26.8
	c0.3-4.1-2.5-8.2-2.7-15.9s1.4-7.9,4.6-10.9s9.6-8.5,9.6-8.5L822.5,442.8L822.5,442.8z"/>
<path class="st1" d="M612.7,697.5c0,0,24.2-5,30.9-18.4c7.2-14.6,8.1-14.9,8.5-22.1c0.5-8.7-7.1-23-9.6-32.2
	c-2.6-9.9-1.1-20.7,6.2-29.8c6.4-8,9.2-9.6,14.6-6.8c8.8,4.6,9.8,6.2,15.4,4.9c7.7-1.7,14.3-17.2,26.2-19.2c7.2-1.2,14.8-3.5,32,0.5
	c19,4.4,24.7,1.5,30.7-0.6c8.3-2.9,14.2-2.3,17.1-2.1c0.5,0,0.9,0.1,1.4,0.2c2.5,0.5,11.5,1.7,18.1-2.7c15-9.9,20.1-18.2,21-19.8
	c3.3-6.3,6.2-14,5.5-19.3c-0.8-6.2-4-6.3-11.7-16.9c-6-8.3-6.7-19.3-7.5-23.1c-0.7-3.3-0.3-7.3-1.4-14.2c-1.1-6.8-3.1-10.7-1.5-16.1
	c1.1-3.7,8.5-8.5,8.5-8.5"/>
<text transform="matrix(1 0 0 1 -4.2341 -24.0889)" style="fill:#FFFFFF; font-family:'MonumentExtended-Regular'; font-size:48px;">playful plains</text>
</svg>
