<svg width="437" height="363" viewBox="0 0 437 363" fill="none" xmlns="http://www.w3.org/2000/svg">
<path d="M408.5 103.8C408.5 102 409.3 101.7 409.2 97.2C409.1 92.7 408.7 91.1 410.7 88.6C412.7 86.1 418.3 81.8 421.9 79.2C425.5 76.6 428.1 74.9 430.3 71.6C432.5 68.3 434.1 64.2 434.1 64.2C434.3 60.5 431.3 56.3 428.8 53.2C426.4 50.1 418.4 49.6 414.4 50.5C410.4 51.4 403.2 61 399.3 62.6C395.4 64.2 378.8 53.8 376.6 51.7C374.4 49.6 376.5 34.1 375.1 30.3C373.7 26.5 368.5 27.1 363.4 25.5C358.3 23.9 354.3 16.8 353.4 16.5C352.5 16.2 348 16.9 346.4 17C344.7 17.1 341.8 16.6 340 14.6C338.2 12.6 336.5 12.2 334.4 12.2C332.3 12.2 330.4 14.2 327.5 14.9C324.5 15.7 320.8 16.5 317.4 15C314 13.5 308.4 3.09999 307.7 2.79999C307 2.49999 303.5 2.89999 302.3 2.79999C301.1 2.69999 299.9 4.20002 298.8 5.70002C297.7 7.10002 289.3 15.8 284.6 16.1C279.9 16.4 274.8 15.4 269.9 10.1C265 4.70001 264.6 4.7 263.1 4.5C261.6 4.3 259.5 7.9 257.8 8C256.1 8.1 251.1 7.7 249.3 8C247.5 8.3 242.7 14.5 239.2 17.5C235.7 20.6 236 26 236.4 39.4C236.8 52.8 218.5 60.7 217.9 61.4C217.2 62.2 213.4 64.5 218.1 73.4C222.8 82.3 218.9 83.6 217.3 84.9C215.8 86.2 216.1 92.6 218.7 96C221.3 99.4 222.9 106.8 220.1 114.4C217.3 122 195.7 136.9 192.2 139.8C188.7 142.7 182.2 139.9 180.2 137.7C178.2 135.5 175.9 135.4 173.6 135.4C171.3 135.4 167.9 138.4 164.3 140.3C160.7 142.3 146.3 139.2 141.7 137.1C137.1 135 134 128.8 133.1 125.7C132.2 122.6 131.6 122.2 130.1 121.3C128.7 120.4 120.2 122 116.6 121.2C113 120.4 104.4 109.2 102.1 108.1C99.8 107 71.2001 108.1 71.2001 108.1C67.6001 108.4 61.7001 120.3 60.0001 121.9C58.4001 123.5 51.4 129.8 49.8 132.1C48.2 134.4 49.5 144.9 49.8 150.2C50.1 155.5 39.9001 163.7 37.6001 165.3C35.3001 166.9 21.5001 165 15.6001 165.3C9.70007 165.6 6.70007 174.9 6.70007 174.9C6.70007 174.9 7.20007 185.9 6.70007 188.2C6.20007 190.5 2.90007 192.3 2.60007 194.4C2.30007 196.5 2.70005 198.3 3.30005 198.8C4.10005 199.5 5.10007 198.5 6.70007 201.3C8.30007 204.1 9.20005 207.4 10.3001 207.7C11.4001 208 22.2001 204.1 24.3001 207.7C24.3001 207.7 23.8001 214.6 24.5001 217.8C25.2001 221 32.1001 226.3 33.5001 228.7C34.9001 231.1 37.0001 235.9 38.0001 237.3C39.0001 238.7 44.9001 241.1 48.1001 241.9C51.3001 242.7 56.3001 243 58.1001 243.7C59.9001 244.4 63.7001 247.1 65.9001 249.4C68.1001 251.7 67.5001 251.7 69.1001 252.9C70.6001 254.1 72.3001 254.4 73.5001 254.4C74.7001 254.4 89.1001 253.8 90.7001 254.4C92.3001 255 94.3001 255.3 96.0001 257C97.7001 258.7 103.4 263.9 103.4 266.2C103.4 268.5 102.1 269.5 101.6 270.5C101.1 271.5 100.9 274.5 101.4 275.1C101.9 275.7 103.2 278.4 102.9 279.7C102.6 281 97.5001 282 96.7001 283C95.9001 284 95.1001 286.6 96.0001 288.6C96.9001 290.6 98.6001 293.3 97.6001 297.3C96.6001 301.3 89.5001 303.9 87.9001 304.9C86.3001 305.9 85.3001 307.4 85.4001 309.1C85.5001 310.8 85.7001 312.4 87.9001 314C90.1001 315.6 90.9001 317.2 91.5001 322C92.1001 326.8 90.0001 336 96.4001 336.7C102.7 337.4 106.2 335 108.7 337.9C111.2 340.7 111.1 346.1 113 348.3C114.9 350.5 116.9 350.9 117.9 350.9C118.9 350.9 122.6 348.8 124.2 347.9C125.8 347 129.5 347.2 130.5 347.9C131.5 348.6 138.2 358.8 141.6 360.1C145 361.4 149.8 360.8 150.8 360.1C151.9 359.4 155.5 355.7 156.2 355.2C156.9 354.7 160.7 349 162.7 349.3C164.7 349.6 165.9 351.2 167.6 351.4C169.3 351.6 172.5 350.7 172.5 350.7C172.5 350.7 179.3 347.2 180.2 347.5C181.1 347.7 181.5 349.1 182.7 350.5C183.9 351.9 187.5 354.7 189.9 354.6C189.9 354.6 193.9 354.7 195 355.8C196.1 356.9 199.5 356.1 199.5 356.1C199.5 356.1 222 352.3 228.3 338.3C234.6 324.4 238.7 320.5 234.3 307.7C229.9 294.9 223.1 282.3 226.1 270.5C229.1 258.7 234.3 252.7 237.9 249.2C238.1 249 238.4 248.8 238.6 248.5C242.1 245.5 247.2 245.5 251 248C254.8 250.5 259.9 253.5 263.1 252.7C268.3 251.3 275.7 241.8 282.2 236.6C288.8 231.4 300.2 232 304.9 231.1C309.5 230.3 328.9 235.2 338.5 236C348.1 236.8 354.6 230.8 364.5 230.5C374.4 230.2 374.6 233.2 384.4 230.5C394.2 227.8 410.6 211.4 412 204.5C413.4 197.6 417.2 193.6 413.1 187C409 180.4 403 176.4 400 168.7C397 161.1 394.8 146 395.1 141.9C395.4 137.8 392.6 133.7 392.4 126C392.2 118.3 393.8 118.1 397 115.1C400.2 112.1 406.6 106.6 406.6 106.6L408.5 103.8Z" stroke="#A194BA" stroke-width="4" stroke-miterlimit="10"/>
</svg>
