<?xml version="1.0" encoding="utf-8"?>
<!-- Generator: Adobe Illustrator 27.1.1, SVG Export Plug-In . SVG Version: 6.00 Build 0)  -->
<svg version="1.1" id="Calque_8" xmlns="http://www.w3.org/2000/svg" xmlns:xlink="http://www.w3.org/1999/xlink" x="0px" y="0px"
	 viewBox="0 0 1920 1080" style="enable-background:new 0 0 1920 1080;" xml:space="preserve">
<style type="text/css">
	.st0{fill:none;stroke:#BCBCBC;stroke-width:3;stroke-miterlimit:10;}
	.st1{fill:none;stroke:#000000;stroke-miterlimit:10;}
</style>
<path class="st0" d="M868.5,401.6c-8.1,8.2-13.2,12-15.2,14.3s-5.4,1.4-10.3,4.8c-4.9,3.4-7.6,5.5-7.8,9.2s0.7,6.4-0.1,8.7
	s-1.4,4.2-3.7,6.6s-5.8,2.7-6.8,7.1c-1,4.4-1,5.9,0.7,7.8c1.7,1.9,5.4,3.5,7.1,6.7c1.8,3.2,3.2,7.1,5.8,10.4s7.6,9.2,11.1,10.2
	c3.5,1,6.7,0.3,9.6,0.5c3,0.2,7.1-3,10.6-2.2c3.5,0.8,3.3,2.6,9.2,3.8c5.9,1.1,12.8-0.2,14.3-1.3c1.5-1.1,5.9-13.2,7.2-15.5
	c1.2-2,8.7-16.8,13.5-18.1c4.8-1.3,30.5-1.3,35.1-0.8s12.1,2.1,15.2,0.4c0,0,2.5-1.5,4.9-2.8s12.7-8.2,15.9-8.9
	c3.3-0.7,6.7-0.5,8.6,0.2c1.8,0.7,3.5,4.2,6,9.5s5.7,7.6,5.7,7.6s11.9-6.8,18.8-7.4c3.2-0.3,9.9-0.5,14.4,1.2
	c3.8,1.4,10,4.7,12.4,8.2c2.2,3.3,5.2,22.1,7,27.7c2.1,6.6,6.3,18.3,9.7,23.6c3.2,4.9,5.5,9.8,14.3,11.6s14.2-2.2,25.5-5.3
	c2.8-0.8,9.6,0,20,2.7c3.6,0.9,16.2,3.2,19.9,0.8c0.9-0.6-0.6-7.3-0.3-12.9c0.2-3.3,0.1-5.1,1.4-7.2s5.5-6.9,6.1-9.6
	c1.3-5.9,0.9-12.5,3.6-17.7c1.3-2.5,3.3-7.1,6.8-8.2c2.7-0.9,9-1.1,15.2-0.2c2.2,0.3,12.3,1.2,17.8,4.2c2.4,1.3,6.3,3.5,8.6,7.1
	c2.3,3.5,5.7,15.1,7.4,18.4c1.7,3.3,5.1,5.9,7.4,8.1s10.2,7,12.4,8.4s7.7,0.3,9.9-0.1c1.8-0.4,4.6,0,4.8-3.2c0.1-1.4,0.8-9.5,1.3-12
	c0.6-2.9,2.2-6.9,4.1-10c1.4-2.2,5.2-5.2,6.8-5.7c1.5-0.4,7.7-0.6,13.2,1c0,0,2.8,0.6,6.2,2.4c1.4,0.8,2.7,1.5,4.1,2.6
	c0.8,0.6,3.2,2.3,7.3,2.9c5.8,0.9,13.8-0.7,16-1.3l2.2-0.6c0,0,4.2-1.2,5.2-3.4c1.5-3.1,3.5-10.1,5.3-11.2s8.3-3.8,14.5-5.3
	s13.7-8.5,16.3-9.7s11.6-3.3,22.5-0.5c4.1,1,8-0.3,11.3-2.4c7.4-4.7,11.8-13.1,11.4-21.8c-0.1-1.2-0.2-2.4-0.5-3.5
	c-1.9-6.7-3.2-8.5-6.8-9.2s-20,2.9-26.7,2.6c-6.7-0.2-18.2-1-19.3-5.9c-1.1-4.9,3.9-7.4,8.8-7.8c4.8-0.4,10.3-3.3,10.5-5.6
	c0.2-2.3-3.2-5-3.6-9.3s-2.2-7.4-6.4-8.8s-20.4-3.4-24.8-7.5s-5.3-9.1-5.5-14.8c-0.2-5.7-1.7-15.5-6-17.1s-11.8-2-18.8-8.7
	c-6.9-6.7-10-16-14.3-16.7s-13.8-1.2-22.3,3.2c-8.4,4.4-14.4,4.5-16.2,4.4s-8.9-0.2-13.4,1.5c-4.1,1.6-16.9,4.4-29.6,4.3
	c-4.2,0-8.4,1-12.1,3c-2,1.1-4.2,2.7-6.4,4.7c-7.3,6.8-8.4,7.2-11.2,7.2s-9.9-4.4-14.6-4.8c-4.7-0.4-11.8,2.9-18,2
	s-24-12.3-32.6-21.5c-8.6-9.2-13.6-21.5-17.6-25.2c-7.3-6.9-12.1-5.5-12.1-5.5l-0.2,8.7c0,0,0.4,13.5,0,17.5
	c-0.4,4-5.1,6.6-14.2,7.3s-13.8-9.5-20.1-10.6s-11.2,6.9-18.1,9.5c-6.9,2.5-14.2,5.8-35-8.4c-20.8-14.2-17.6-14.1-25.9-18.9
	c-8.2-4.7-6.5-2.2-29.8,6.2c-17.7,6.4-13.3,15.2-10.5,19c0.5,0.7,1,1.5,1.5,2.3c3.8,6.2,4.5,10.4,4.4,13.4
	c-0.2,4.9-1.7,10.1-1.7,10.1c-2.2,8.4-4.3,20-11.7,23.7c-7.2,3.6-12.4,3.3-18.6,1.5s-12.8-0.3-15,0.2c-0.9,0.2-5.3,1.3-6.5,1.6
	c-1.8,0.6-3,1.9-2.2,3.6C874.5,386.4,876.5,393.5,868.5,401.6L868.5,401.6z"/>
<path class="st1" d="M871.6,379.6c0,0,3.7-2.5,15.8-4.4c3.3-0.5,10.8,0.7,14.4,1.6s10.8-0.7,14.8-3.6s10.1-21.9,10.6-27.3
	c0.5-5.7,0.4-8-3.6-14.9s-8-11.1-2.4-17.9c5.7-6.7,18.2-9.1,24-11.7c5.8-2.5,10.4-5.5,17.3-2.2c6,2.8,26.3,19.1,31,22s16,9.3,23,8
	c6.5-1.2,8.3-2.3,10.2-3.7c2.7-1.9,8.5-6.4,9.6-6.8s5-2.4,8.7-0.2c3.7,2.1,11.8,9.8,15.7,9.7c3.9,0,14.4-1.9,14.4-5.9
	c0.1-4,0.1-24.5,0.3-25.5s0.1-2.2,0.1-2.2"/>
<text transform="matrix(1 0 0 1 -15.121 -18.7676)" style="fill:#FFFFFF; font-family:'MonumentExtended-Regular'; font-size:48px;">timeless tundra</text>
</svg>
