<?xml version="1.0" encoding="UTF-8"?>
<svg id="Calque_8" data-name="Calque 8" xmlns="http://www.w3.org/2000/svg" viewBox="0 0 1920 1080">
  <defs>
    <style>
      .cls-1 {
        fill: none;
        stroke: #fae902;
        stroke-miterlimit: 10;
        stroke-width: 3px;
      }

      .cls-2 {
        letter-spacing: -.08em;
      }

      .cls-3 {
        letter-spacing: 0em;
      }

      .cls-4 {
        letter-spacing: 0em;
      }

      .cls-5 {
        letter-spacing: -.02em;
      }

      .cls-6 {
        letter-spacing: -.09em;
      }

      .cls-7 {
        letter-spacing: 0em;
      }

      .cls-8 {
        letter-spacing: 0em;
      }

      .cls-9 {
        fill: #fff;
        font-family: MonumentExtended-Regular, 'Monument Extended';
        font-size: 48px;
      }

      .cls-10 {
        letter-spacing: .01em;
      }

      .cls-11 {
        letter-spacing: 0em;
      }

      .cls-12 {
        letter-spacing: .01em;
      }

      .cls-13 {
        letter-spacing: -.06em;
      }
    </style>
  </defs>
  <path class="cls-1" d="m1071.93,294.08c1.17-.1,2,1.01,1.68,2.14,0,0,0,.02,0,.03-.26.95-.74,15.17-.55,16.63s.99,7.99-.29,9.99-9.16,3.9-12.47,3.3c-4.13-.74-9.99-6.85-15.94-9.99-2.24-1.18-5.74-.33-7.6.17-1.91.51-10.11,7.63-13.21,9.08-3.1,1.46-7,2.63-11.64,1.9s-11.2-4.25-15.44-6.44c-4.2-2.17-23.32-16.67-27.66-19.98-4.31-3.29-8.8-4.94-12.39-4.94-3.86,0-10.27,2.96-12.55,3.78-2.28.82-10.05,3.56-12.47,4.46-2.74,1.02-8.06,3.98-9.25,5.04-1.63,1.46-3.92,4.28-4.79,5.94-.89,1.71-1.59,5.11-.08,8.75,1.1,2.68,6.67,11.68,7.18,13.19.99,2.89,1,5.73.66,8.53-.45,3.73-4.05,14.64-4.62,16.1-.51,1.29-2.89,7.68-5.39,10.05-1.1,1.04-8.01,4.35-11.94,3.41-10.07-2.39-13.31-2.01-16.13-1.87-6.33.3-15.47,3.82-15.47,3.82,0,0-3.7-1.72-4.79-3s-5.28-3.46-7.1-4.01c-1.82-.55-6.79,3.73-6.79,3.73-3.62,3.95-9.11,3.51-9.11,3.51-2.74.11-5.16-4.61-7.46-6.14s-7.02-.99-12.18-1.54c-5.16-.55-4.61-2.3-7.46-3.51-2.85-1.21-7.46.11-11.08,1.21-3.62,1.1-6.25.88-9-.55s-8.23-14.04-11.74-17.99c-3.51-3.95-11.08-4.39-16.79-6.47-5.71-2.08-7.13-5.6-7.79-8.67-.66-3.07.88-23.59,1.65-29.73.77-6.14-11.19-14.48-12.95-16.68-1.76-2.19-7.68-5.49-5.16-10.75,2.52-5.27,4.72-4.39,10.09-4.72,5.38-.33,3.62-5.71,5.16-8.01,1.54-2.3,5.71-4.83,11.85-6.8s26.55-8.34,26.55-8.34c4.39-.22,7.57,3.62,17.12,5.05,9.55,1.43,19.75-5.6,24.14-7.9,4.39-2.3,10.75-10.2,12.07-14.04,1.32-3.84-.11-4.06-1.1-7.24-.99-3.18-.87-6.77-.66-7.79.14-.68,1.43-5.38,3.07-8.23,1.65-2.85,5.3-5.34,8.12-6.91s9.33-4.39,13.82-5.49c4.5-1.1,8.34-.77,13.82-1.87s4.54-1.6,8.12-4.61c3.38-2.84,6.03-5.38,8.34-6.47,2.3-1.1,5.49.11,10.86.66,5.38.55,9.44-.22,13.72-.88,4.28-.66,7.46-3.73,9.66-3.95,2.19-.22,3.07.22,6.25,2.3,3.18,2.08,7.13,4.39,11.3,5.16s9.98,1.1,15.58.77c5.6-.33,5.38-3.18,9.33-4.61,3.95-1.43,8.67-.33,11.52.88,2.85,1.21,5.16,4.39,8.45,9.33s11.38,18.3,12.62,21.29,5.92,13.93,12.4,21.4c6.47,7.46,10.86,11.85,11.3,15.69.44,3.84-3.87,10.61-4.64,12.47s-6.99,10.68-6,21.21c.99,10.53,15.36,15.36,21.72,15.8,4.38.3,6.36-.33,8.07-1.61,2.11-1.58,4.42-2.88,6.94-3.64,2.04-.61,2.83-.77,5.52-1.21.97-.16,2.04-.09,2.99-.17Z"/>
  <text class="cls-9" transform="translate(-.41 -11.44)"><tspan class="cls-5" x="0" y="0">v</tspan><tspan class="cls-12" x="42.67" y="0">i</tspan><tspan class="cls-7" x="55.73" y="0">r</tspan><tspan class="cls-4" x="89.62" y="0">t</tspan><tspan class="cls-12" x="122.06" y="0">u</tspan><tspan class="cls-8" x="166.22" y="0">a</tspan><tspan class="cls-10" x="208.61" y="0">l </tspan><tspan class="cls-2" x="244.32" y="0">v</tspan><tspan class="cls-11" x="283.92" y="0">al</tspan><tspan class="cls-3" x="339.07" y="0">l</tspan><tspan class="cls-6" x="351.6" y="0">e</tspan><tspan class="cls-13" x="389.47" y="0">y</tspan><tspan class="cls-10" x="430.89" y="0">s</tspan></text>
</svg>