<svg width="335" height="202" viewBox="0 0 335 202" fill="none" xmlns="http://www.w3.org/2000/svg">
<path d="M330.93 117.08C332.1 116.98 332.93 118.09 332.61 119.22C332.61 119.22 332.61 119.24 332.61 119.25C332.35 120.2 331.87 134.42 332.06 135.88C332.25 137.34 333.05 143.87 331.77 145.87C330.49 147.87 322.61 149.77 319.3 149.17C315.17 148.43 309.31 142.32 303.36 139.18C301.12 138 297.62 138.85 295.76 139.35C293.85 139.86 285.65 146.98 282.55 148.43C279.45 149.89 275.55 151.06 270.91 150.33C266.27 149.6 259.71 146.08 255.47 143.89C251.27 141.72 232.15 127.22 227.81 123.91C223.5 120.62 219.01 118.97 215.42 118.97C211.56 118.97 205.15 121.93 202.87 122.75C200.59 123.57 192.82 126.31 190.4 127.21C187.66 128.23 182.34 131.19 181.15 132.25C179.52 133.71 177.23 136.53 176.36 138.19C175.47 139.9 174.77 143.3 176.28 146.94C177.38 149.62 182.95 158.62 183.46 160.13C184.45 163.02 184.46 165.86 184.12 168.66C183.67 172.39 180.07 183.3 179.5 184.76C178.99 186.05 176.61 192.44 174.11 194.81C173.01 195.85 166.1 199.16 162.17 198.22C152.1 195.83 148.86 196.21 146.04 196.35C139.71 196.65 130.57 200.17 130.57 200.17C130.57 200.17 126.87 198.45 125.78 197.17C124.69 195.89 120.5 193.71 118.68 193.16C116.86 192.61 111.89 196.89 111.89 196.89C108.27 200.84 102.78 200.4 102.78 200.4C100.04 200.51 97.62 195.79 95.32 194.26C93.02 192.73 88.3 193.27 83.14 192.72C77.98 192.17 78.53 190.42 75.68 189.21C72.83 188 68.2199 189.32 64.5999 190.42C60.9799 191.52 58.3499 191.3 55.5999 189.87C52.8499 188.44 47.37 175.83 43.86 171.88C40.35 167.93 32.78 167.49 27.07 165.41C21.36 163.33 19.94 159.81 19.28 156.74C18.62 153.67 20.16 133.15 20.93 127.01C21.7 120.87 9.73995 112.53 7.97995 110.33C6.21995 108.14 0.299973 104.84 2.81997 99.5799C5.33997 94.3099 7.53994 95.1899 12.9099 94.8599C18.2899 94.5299 16.53 89.1499 18.07 86.8499C19.61 84.5499 23.7799 82.0199 29.9199 80.0499C36.0599 78.0799 56.4699 71.7099 56.4699 71.7099C60.8599 71.4899 64.04 75.3299 73.59 76.7599C83.14 78.1899 93.3399 71.1599 97.7299 68.8599C102.12 66.5599 108.48 58.6599 109.8 54.8199C111.12 50.9799 109.69 50.7599 108.7 47.5799C107.71 44.3999 107.83 40.8099 108.04 39.7899C108.18 39.1099 109.47 34.4099 111.11 31.5599C112.76 28.7099 116.41 26.2199 119.23 24.6499C122.05 23.0799 128.56 20.2599 133.05 19.1599C137.55 18.0599 141.39 18.3899 146.87 17.2899C152.35 16.1899 151.41 15.6899 154.99 12.6799C158.37 9.83991 161.02 7.29993 163.33 6.20993C165.63 5.10993 168.82 6.31991 174.19 6.86991C179.57 7.41991 183.63 6.64992 187.91 5.98992C192.19 5.32992 195.37 2.25991 197.57 2.03991C199.76 1.81991 200.64 2.25991 203.82 4.33991C207 6.41991 210.95 8.72992 215.12 9.49992C219.29 10.2699 225.1 10.5999 230.7 10.2699C236.3 9.93992 236.08 7.08992 240.03 5.65992C243.98 4.22992 248.7 5.32991 251.55 6.53991C254.4 7.74991 256.71 10.9299 260 15.8699C263.29 20.8099 271.38 34.1699 272.62 37.1599C273.86 40.1499 278.54 51.0899 285.02 58.5599C291.49 66.0199 295.88 70.4099 296.32 74.2499C296.76 78.0899 292.45 84.8599 291.68 86.7199C290.91 88.5799 284.69 97.3999 285.68 107.93C286.67 118.46 301.04 123.29 307.4 123.73C311.78 124.03 313.76 123.4 315.47 122.12C317.58 120.54 319.89 119.24 322.41 118.48C324.45 117.87 325.24 117.71 327.93 117.27C328.9 117.11 329.97 117.18 330.92 117.1L330.93 117.08Z" stroke="#FAE902" stroke-width="3" stroke-miterlimit="10"/>
</svg>
