<?xml version="1.0" encoding="UTF-8"?>
<svg id="Calque_1" data-name="Calque 1" xmlns="http://www.w3.org/2000/svg" viewBox="0 0 96.23 134.42">
  <defs>
    <style>
      .cls-1 {
        fill: #fff;
      }
    </style>
  </defs>
  <path class="cls-1" d="m96.23,134.42H.04v-1.99c0-25.76.02-51.52-.04-77.28,0-1.64.47-2.08,2.06-2.03,3.67.11,7.34.04,11.26.04,0-.82,0-1.5,0-2.17.07-6.19-.16-12.4.28-18.56C14.8,15.57,28.3,1.86,45,.17c16.26-1.65,31.94,9.11,36.5,25.29.97,3.44,1.31,7.11,1.49,10.7.25,4.95.06,9.93.06,14.89,0,.63,0,1.26,0,2.07h13.18v81.3Zm-3.26-77.78H3.55v74.48h89.42V56.64Zm-76.26-3.61h63.08c0-4.54.07-8.97-.02-13.39-.07-3.26-.09-6.56-.62-9.76-2.32-13.9-13.98-25.29-28.83-26.49-13.17-1.06-26.57,7.39-31.37,20.63-1.27,3.5-1.92,7.35-2.14,11.08-.35,5.92-.09,11.88-.09,17.93Z"/>
  <path class="cls-1" d="m49.86,102.3c0,2.34,0,4.61,0,6.89s0,4.53,0,6.92h-3.25v-13.84c-9.26-1.85-12.26-9.09-11.58-15.02.74-6.49,6.44-11.57,13.05-11.67,6.39-.1,12.28,4.84,13.2,11.06,1.12,7.57-2.86,13.12-11.42,15.66Zm8.28-13.35c.03-5.51-4.34-9.97-9.81-10.01-5.57-.04-10.11,4.42-10.11,9.93,0,5.42,4.5,9.93,9.93,9.97,5.41.04,9.94-4.45,9.98-9.89Z"/>
</svg>