<?xml version="1.0" encoding="UTF-8"?>
<svg id="Calque_1" data-name="Calque 1" xmlns="http://www.w3.org/2000/svg" viewBox="0 0 63.07 71.99">
  <defs>
    <style>
      .cls-1 {
        fill: #fff;
      }
    </style>
  </defs>
  <g id="m1ZQnY.tif">
    <g>
      <path class="cls-1" d="m59.13,71.99H3.89C.87,70.81.01,69.69,0,66.82,0,46.1,0,25.38,0,4.67,0,2.03,2.03.03,4.67.03c12.36,0,24.73.02,37.09-.03,1.35,0,2.33.43,3.19,1.35.17.18.36.36.54.54,5.23,5.21,10.45,10.44,15.69,15.64.87.86,1.69,1.73,1.89,3v46.76c-.05.26-.11.53-.16.79-.3,1.81-1.24,3.08-3.03,3.65-.26.08-.51.18-.76.27ZM40.47,4.58h-.96c-10.55,0-21.09,0-31.64,0-2.74,0-3.32.59-3.32,3.34,0,19.03,0,38.06,0,57.09,0,1.56.89,2.46,2.43,2.46,16.14,0,32.27,0,48.41,0,.35,0,.71.01,1.06-.02,1.09-.09,1.77-.72,1.95-1.79.07-.4.1-.8.1-1.21,0-13.69,0-27.38,0-41.07v-.86c-.41,0-.71,0-1.01,0-4.73,0-9.46,0-14.19,0-2.07,0-2.82-.77-2.82-2.85,0-4.73,0-9.46,0-14.2,0-.27,0-.54,0-.89Zm14.24,13.38c-3.23-3.23-6.47-6.47-9.66-9.67v9.67h9.66Z"/>
      <path class="cls-1" d="m59.13,71.99c.25-.09.5-.19.76-.27,1.79-.57,2.73-1.84,3.03-3.65.04-.27.1-.53.16-.79v4.71c-1.32,0-2.63,0-3.95,0Z"/>
      <path class="cls-1" d="m31.5,44.98c5.18,0,10.37,0,15.55,0,1.67,0,2.75,1.32,2.36,2.85-.23.9-1.03,1.56-2.03,1.67-.2.02-.4.01-.61.01-10.16,0-20.33,0-30.49,0-1.4,0-2.27-.5-2.64-1.49-.56-1.52.54-3.03,2.24-3.04,4.75,0,9.51,0,14.26,0,.46,0,.91,0,1.37,0Z"/>
      <path class="cls-1" d="m31.53,36.01c5.18,0,10.37,0,15.55,0,1.39,0,2.36.92,2.37,2.21.01,1.11-.7,2-1.8,2.2-.34.07-.7.08-1.05.08-10.01,0-20.03,0-30.04,0-.38,0-.76-.02-1.13-.09-1.18-.21-1.97-1.17-1.9-2.28.08-1.21,1-2.14,2.22-2.15,5.26-.02,10.52,0,15.78,0,0,0,0,.02,0,.03Z"/>
      <path class="cls-1" d="m31.52,58.48c-5.16,0-10.31,0-15.47,0-1.72,0-2.74-1.13-2.46-2.68.16-.92.75-1.48,1.62-1.69.44-.11.9-.14,1.35-.14,9.96,0,19.91,0,29.87,0,.4,0,.81.03,1.2.11,1.22.26,1.94,1.17,1.85,2.3-.08,1.14-.92,1.97-2.12,2.09-.4.04-.81.02-1.21.02-4.88,0-9.75,0-14.63,0Z"/>
      <path class="cls-1" d="m22.52,27.05c2.25,0,4.49-.03,6.74.01,1.4.02,2.29.99,2.24,2.32-.03,1.02-.75,1.87-1.78,2.06-.39.07-.8.09-1.21.09-4.17,0-8.33,0-12.5.01-1.43,0-2.43-.9-2.45-2.22-.02-1.37.94-2.28,2.44-2.29,2.17,0,4.34,0,6.51,0,0,0,0,.01,0,.02Z"/>
    </g>
  </g>
</svg>