<?xml version="1.0" encoding="UTF-8"?>
<svg id="Calque_1" data-name="Calque 1" xmlns="http://www.w3.org/2000/svg" viewBox="0 0 171.99 123.01">
  <defs>
    <style>
      .cls-1 {
        fill: none;
        stroke: #e4c8b5;
        stroke-miterlimit: 10;
      }
    </style>
  </defs>
  <path class="cls-1" d="m58.55,105.56s1.23-.08,1.93.71,1,1.37,1.52,1.46c.52.1,2.86.08,3.27.13s3.17-.13,4.17-.25c1-.12,1.81-.25,2.02-.27s1.86-1.23,2.69-2.29c0,0,.62-.35.88-.62s.29-1.42.4-1.81.46-1.5,0-2.23-1.21-1.12-1.48-1.44-.17-.77-.12-.98.63-1.58.15-2.02-1.46-.35-1.79,0-1.02,1.52-1.81,1.6c-.79.08-3.31-.67-3.9-2.25-.6-1.58,0-2.19-.13-2.56s-1.81-1.63-1.98-1.98-.35-1.46.77-2.15c1.12-.69,2.75-2.15,4.29-1.88,1.54.27,1.88.92,2.65,1.12.77.19,1.27.02,1.69-.17s2.02-1.56,3.35-1.56,2.48.33,2.79.52,2.17,1.85,2.6,2.1c0,0,1.15,1.19,2.35,1.48s3.88.48,4.5.5c.62.02,3.5-.1,5.38.5,1.88.6,5.48,3.15,6.23,4.42.75,1.27,1.12,1.96.81,4.38-.31,2.42-.87,4.1-.15,5.17.71,1.08,1.37.98,1.83,2.35s.69,1.83,1.79,1.83,1.37-.15,2.31.4,1.94,1.58,1.61,3.15c-.33,1.58-.52,3.36.54,4.29s3.61,3.77,4.21,4.58c.6.81,4.44.81,5.06.62s1.15-.58,1.25-1.33c.1-.75.42-2.13.96-2.6.54-.46,3.11-1.04,4.13-.63,1.02.4,3.67,2.11,3.67,2.11,0,0,1.94,1.23,2.44,1.31.5.08,3.38-.62,4.36-.88.98-.27,2.73.06,3-.06s1.48-1.6,1.81-2.04c.33-.44,1.54-1.08,1.69-1.35s1-2,1.44-2.58c.44-.58,1.37-1.77.69-2.56-.67-.79-2.35-1.54-2.83-1.86s-.9-.83-1.63-.85-1.71.38-2.38.13c-.67-.25-1.13-2.04-1.71-2.6-.58-.56-2.71-2.4-2.85-4.23-.13-1.83-.88-6.15-.5-6.96s2.23-2.71,2.77-3.5.31-2.81.6-3.61c.29-.81,1.6-2.48,1.92-2.56s1.63,0,1.94-.29c.31-.29,1.65-1.12,1.69-1.5s.04-3.11.6-4.4c.56-1.29,0-2.33-.37-2.67s-3.29-2.4-3.06-3.29.77-1.15.73-1.67-2.17-1.85-1.77-2.75c.4-.9,1.38-1.92,1.54-2.1s1.1-1.1,1.42-2.25c.33-1.15,1.56-1.56,1.56-1.56,0,0,6.13-2,6.71-2.25.58-.25,1.52-.81,1.86-1.4.35-.6.44-1.94.65-2.63.21-.69.58-1.48,1.25-1.88.67-.4,2.02-.4,2.42-.33s1.94.1,2.25-.42c.31-.52.62-1.77.92-1.96s1.46-.67,2.54-.92,2.4-1.48,2.86-1.69,2.04-.58,3.94-.1c1.9.48,3.61-2,3.61-2,0,0,.6-1.69.27-2.86-.33-1.17-.56-1.48-1.19-1.61s-3.5.5-4.67.46-3.19-.17-3.38-1.04c-.19-.87.69-1.29,1.54-1.37s1.81-.58,1.85-.98-.56-.88-.63-1.63c-.08-.75-.38-1.29-1.12-1.54s-3.58-.6-4.35-1.31c-.77-.71-.92-1.6-.96-2.6-.04-1-.29-2.71-1.06-3s-2.08-.35-3.29-1.52c-1.21-1.17-1.75-2.81-2.5-2.92-.75-.12-2.42-.21-3.9.56-1.48.77-2.52.79-2.85.77-.33-.02-1.56-.04-2.35.27-.79.31-3.44.87-5.88.73,0,0-1.27.19-2.56,1.38-1.29,1.19-1.48,1.27-1.96,1.27s-1.73-.77-2.56-.85-2.08.5-3.15.35-4.21-2.15-5.71-3.77-2.61-3.58-3.08-4.42c-.46-.85-1.33-1.04-1.94-1.12-.62-.08-1.69-.27-1.88-.27s-.85.02-1.33.48c-.48.46-.71.73-1.83.65-1.12-.08-3.63-.92-3.81-2.77s1.06-3.36,1.19-3.69.75-1.54.67-2.21-.85-1.44-1.98-2.75c-1.13-1.31-2.08-3.21-2.17-3.75-.1-.54-1.63-2.86-2.21-3.73-.58-.87-.98-1.42-1.48-1.63-.5-.21-1.33-.4-2.02-.15-.69.25-.65.75-1.63.81-.98.06-2,0-2.73-.13s-1.42-.54-1.98-.9c-.56-.37-.71-.44-1.1-.4s-.94.58-1.69.69-1.46.25-2.4.15c-.94-.1-1.5-.31-1.9-.12s-.83.69-1.46,1.13-.46.62-1.42.81-1.63.13-2.42.33c-.79.19-2,.62-2.42.96s-1.13.71-1.42,1.21c-.29.5-.58,1.33-.54,1.44s-.06.81.12,1.37c.17.56.42.6.19,1.27s-1.35,2.06-2.11,2.46c-.77.4-2.56,1.63-4.23,1.38-1.67-.25-2.23-.92-3-.88,0,0-3.58,1.12-4.65,1.46-1.08.35-1.81.79-2.08,1.19s.04,1.35-.9,1.4c-.94.06-1.33-.1-1.77.83-.44.92.6,1.5.9,1.88.31.38,2.4,1.85,2.27,2.92-.13,1.08-.4,4.67-.29,5.21.12.54.37,1.15,1.37,1.52s2.33.44,2.94,1.13c.62.69,1.58,2.9,2.06,3.15s.94.29,1.58.1c.63-.19,1.44-.42,1.94-.21.5.21.4.52,1.31.62.9.1,1.73,0,2.13.27.4.27.83,1.1,1.31,1.08,0,0,.96.08,1.6-.62.63-.69.83-.75,1.37-.69s1.85.62,2.21,1.61c.37,1,.27,1.17.52,1.19s.42,1.6-1.19,2.81c-1.61,1.21-2.31,2.1-2.67,2.5-.37.4-.94.25-1.81.85-.87.6-1.33.96-1.37,1.61-.04.65.12,1.12-.02,1.52s-.25.73-.65,1.15-1.02.48-1.19,1.25c-.17.77-.17,1.04.12,1.37.29.33.94.62,1.25,1.17.31.56.56,1.25,1.02,1.83s1.33,1.61,1.94,1.79c.62.17,1.23-.04,1.75,0s1.18-.43,1.79-.29.58.46,1.61.66c1.04.2,2.25-.03,2.51-.23s1.15-2.31,1.27-2.71,1.53-2.94,2.36-3.17c.84-.23,5.34-.23,6.14-.14.81.09,2.25.17,2.8-.12s2.65-1.3,3.2-1.61c.55-.32.58-.46,1.15-.35s.66-.14.98.43c.32.58,2.22,3.52,3.84,4.59,1.61,1.07,1.12,1.36,1.12,1.73s.12.69.23.81.69-.23,1.07.06,1.15,1.12.75,1.99c-.4.87-1.56,1.36-1.64,1.85-.09.49-.37.89.03,1.99.4,1.1.63,3.69-.32,4.9-.95,1.21-1.73,1.64-2.71,1.87-.98.23-1.33.32-2.11,1.07s-.52,1.15-.92,1.24-2.77.17-3.2-.14c-.43-.32-.72-.52-.87-1.18-.14-.66-.03-1.85-.87-2.05s-2.34-.14-2.86-.58c-.52-.43-2.08-4.12-2.05-4.9.03-.78.55-1.73.92-1.9.37-.17.55-.43.4-.75s-1.1-.35-.98-1.38c.12-1.04.63-.92.78-1.24s.37-1.12.06-1.36-2.62-1.87-3.37-1.93c-.75-.06-1.61-.17-2.02.52-.4.69-1.01,2.94-2.31,3.4-1.3.46-2.68.09-3.14.17s-1.01,1.76-1.61,2.08c-.61.32-2.94.52-3.95-.32s-1.18-.84-1.21-1.12-.12-1.04-.55-1.41c-.43-.37-.66-.29-1.07-.35s-.55-.17-.63-.23l-.09-.06s-.14-.14-.23-.78.14-.75-.29-1.53-.98-.95-1.24-1.85c-.26-.89-.14-1.67.12-2.19.26-.52,1.04-1.1,1.04-1.41s.14-.37.12-1.15c-.03-.78-.09-1.07.26-1.5s1.33-1.18,1.96-1.64c.63-.46,1.1-.75,1.47-1.33.37-.58.67-1.3.67-1.3.04-.65-.5-1.38-.92-1.92s-1.83-.63-2.52-.48c-.69.15-1.96,1.85-2.65,2.11-.69.27-3.6-1.54-3.98-1.9-.38-.37-.02-3.08-.27-3.75-.25-.67-1.15-.56-2.06-.85-.9-.29-1.6-1.52-1.75-1.58s-.94.08-1.23.1-.81-.08-1.12-.42-.62-.42-.98-.42-.69.35-1.21.48-1.17.29-1.77.02-1.58-2.08-1.69-2.14-.73.02-.94,0-.42.25-.62.5-1.67,1.77-2.48,1.83c-.81.06-1.71-.12-2.58-1.06-.87-.94-.92-.94-1.19-.98s-.63.6-.92.62-1.17-.06-1.48,0c-.31.06-1.15,1.13-1.77,1.67-.62.54-.56,1.48-.5,3.85.06,2.36-3.13,3.73-3.25,3.86s-.79.54.04,2.1c.83,1.56.13,1.79-.13,2.02s-.21,1.35.25,1.94c.46.6.73,1.88.25,3.23s-4.27,3.94-4.88,4.44c-.62.5-1.75.02-2.1-.37s-.75-.4-1.15-.4-1,.52-1.63.87c-.63.35-3.15-.19-3.96-.56s-1.35-1.46-1.5-2-.27-.62-.52-.77-1.73.12-2.36-.02c-.63-.13-2.13-2.1-2.54-2.29s-5.42,0-5.42,0c-.63.06-1.67,2.13-1.96,2.42-.29.29-1.5,1.38-1.79,1.79s-.06,2.25,0,3.17-1.73,2.36-2.13,2.65-2.83-.06-3.86,0c-1.04.06-1.56,1.67-1.56,1.67,0,0,.09,1.93,0,2.34s-.66.72-.72,1.1.02.68.12.77c.13.12.31-.05.6.44s.43,1.07.63,1.12,2.08-.63,2.45,0c0,0-.09,1.21.03,1.77.12.56,1.33,1.48,1.58,1.9s.62,1.27.79,1.5,1.21.67,1.77.81,1.44.19,1.75.31.98.6,1.37,1,.29.4.56.62c.27.21.56.27.77.27s2.73-.11,3.02,0,.63.16.92.45c.29.29,1.3,1.21,1.3,1.61s-.23.58-.32.75-.12.69-.03.81.32.58.26.81-.95.4-1.1.58-.29.64-.13.98c.16.35.46.82.29,1.53-.17.71-1.41,1.15-1.7,1.33s-.46.45-.45.74.06.58.45.85.53.56.63,1.4c.1.84-.26,2.45.85,2.57s1.72-.29,2.16.2c.45.49.42,1.43.75,1.82s.68.46.85.46.82-.37,1.11-.52.94-.13,1.11,0,1.36,1.9,1.95,2.13,1.43.13,1.61,0,.82-.76.95-.87.79-1.08,1.14-1.04.56.33.87.36c.3.03.87-.13.87-.13,0,0,1.18-.61,1.34-.56.16.04.23.27.43.52s.84.74,1.25.72.74-.06.92.01.52.13.76.91.74,1.73,1.28,2,2.21.09,2.42.23.83.48.62,1.27-1.35,2.06-1.15,3.25c.19,1.19.83,1.77,1.27,1.85s1.96.12,2.54.5c.58.38,3.79,3.23,5.09,5.23,1.31,2,3,2.42,3.31,2.5s2.38.19,2.79,0,1.02-.67,1.25-1.13.6-1.48,1.12-1.61c.52-.13,2.71-.13,3.1-.04"/>
</svg>