<?xml version="1.0" encoding="UTF-8"?>
<svg id="Calque_1" data-name="Calque 1" xmlns="http://www.w3.org/2000/svg" viewBox="0 0 150.47 80.69">
  <defs>
    <style>
      .cls-1 {
        fill: #a294ba;
      }

      .cls-2 {
        fill: none;
        stroke: #a294ba;
        stroke-miterlimit: 10;
      }
    </style>
  </defs>
  <rect class="cls-2" x=".5" y=".5" width="149.47" height="79.69"/>
  <g>
    <path class="cls-1" d="m54.58,40.35c0-11.4,9.26-20.66,20.66-20.66,11.4,0,20.66,9.27,20.65,20.67,0,11.39-9.28,20.65-20.68,20.64-11.37,0-20.63-9.27-20.63-20.65Zm37.66.02c0-9.39-7.57-17.02-16.91-17.03-9.44-.01-17.09,7.56-17.1,16.94-.02,9.44,7.56,17.07,16.96,17.07,9.44,0,17.05-7.57,17.05-16.98Z"/>
    <path class="cls-1" d="m70.88,40.34c0-1.87,0-3.74,0-5.62,0-.75.46-1.03,1.11-.66,3.24,1.87,6.47,3.74,9.71,5.61.66.38.66.94,0,1.32-3.22,1.86-6.45,3.72-9.68,5.57-.67.39-1.13.12-1.13-.66,0-1.86,0-3.72,0-5.57Z"/>
  </g>
</svg>