<?xml version="1.0" encoding="UTF-8"?>
<svg id="Calque_1" data-name="Calque 1" xmlns="http://www.w3.org/2000/svg" viewBox="0 0 68.41 68.41">
  <defs>
    <style>
      .cls-1 {
        fill: #fff;
        stroke: #fff;
        stroke-miterlimit: 10;
        stroke-width: .25px;
      }
    </style>
  </defs>
  <path class="cls-1" d="m29.01,34.02c-.25-.16-.54-.27-.74-.48C19.16,24.45,10.05,15.34.95,6.24c-1.1-1.1-1.1-1.5,0-2.6.93-.93,1.87-1.87,2.8-2.8.95-.95,1.44-.95,2.39,0,7.48,7.47,14.95,14.95,22.43,22.43,1.85,1.85,3.7,3.71,5.62,5.63.23-.22.44-.41.64-.6C43.96,19.16,53.1,10.02,62.24.89c1.02-1.02,1.46-1.02,2.5.01.92.92,1.84,1.83,2.75,2.75,1.06,1.06,1.07,1.51.02,2.55-2.63,2.63-5.26,5.26-7.89,7.89-6.47,6.47-12.94,12.94-19.42,19.41-.21.21-.46.36-.76.59.31.33.5.54.7.74,9.1,9.1,18.2,18.21,27.3,27.31,1.12,1.13,1.12,1.53,0,2.66-.93.94-1.87,1.87-2.8,2.8-.92.91-1.41.91-2.34-.02-9.14-9.14-18.27-18.27-27.41-27.41-.2-.2-.34-.48-.51-.72-.12-.02-.24-.04-.36-.06-.17.27-.29.58-.51.8-9.04,9.06-18.1,18.11-27.15,27.16-.17.17-.34.35-.52.51-.63.55-1.21.55-1.82-.04-1.15-1.13-2.3-2.27-3.43-3.43-.61-.63-.6-1.22,0-1.87.12-.13.24-.24.36-.36,9.1-9.1,18.2-18.21,27.31-27.3.2-.2.49-.33.73-.49,0-.12,0-.25.01-.37Z"/>
</svg>