<?xml version="1.0" encoding="UTF-8"?>
<svg id="Calque_1" data-name="Calque 1" xmlns="http://www.w3.org/2000/svg" viewBox="0 0 87.09 122.56">
  <path fill="#FF704E" d="m87.09,43.26c-.18,7.27-2.26,13.99-5.24,20.48-3.76,8.19-8.69,15.69-13.72,23.12-7.68,11.32-15.67,22.44-22.55,34.29-1.06,1.84-3.21,1.89-4.26.08-7.85-13.58-17.23-26.15-25.84-39.23-4.87-7.39-9.36-14.98-12.57-23.28C-6.84,33.5,8.95,6.29,34.73.89c23.1-4.84,46.67,10.56,51.22,33.75.56,2.84.77,5.74,1.15,8.62Zm-43.55,71.88c1.12-1.8,2.2-3.65,3.4-5.42,6.89-10.27,13.84-20.49,20.69-30.78,4.36-6.56,8.4-13.31,11.34-20.67,2.88-7.2,3.99-14.58,2.39-22.23C76.95,14.94,57.48,1.78,36.26,5.51,14.19,9.39.03,32.18,6.34,53.69c2.19,7.46,5.79,14.26,10.02,20.7,8.93,13.6,18.05,27.08,27.19,40.74Z"/>
  <path fill="#FF704E" d="m19.83,43.47c.01-13.04,10.57-23.61,23.58-23.62,13.04-.01,23.68,10.68,23.62,23.74-.06,13.07-10.59,23.53-23.66,23.52-13.03-.01-23.56-10.57-23.55-23.63Zm23.59-18.8c-10.4,0-18.79,8.42-18.78,18.83,0,10.41,8.42,18.84,18.81,18.82,10.39-.02,18.79-8.44,18.79-18.85,0-10.4-8.41-18.81-18.81-18.81Z"/>
</svg>