<?xml version="1.0" encoding="UTF-8"?>
<svg id="Calque_1" data-name="Calque 1" xmlns="http://www.w3.org/2000/svg" viewBox="0 0 162.85 87.91">
  <defs>
    <style>
      .cls-1 {
        fill: #fff;
      }
    </style>
  </defs>
  <path class="cls-1" d="m0,43.59c3.53-3.82,6.94-7.75,10.61-11.43,12.28-12.31,26.36-21.86,42.93-27.51C63.76,1.17,74.28-.41,85.07.09c16.4.77,31.45,5.84,45.27,14.63,12.37,7.87,22.97,17.73,32.51,29.08-3.63,3.92-7.18,7.94-10.93,11.76-13.99,14.2-30.28,24.59-49.73,29.64-18.35,4.77-36.25,3.12-53.71-4.01-17.62-7.2-32.28-18.44-44.49-32.96-1.25-1.49-2.54-2.95-3.99-4.64Zm151.01.51c-.25-.49-.29-.61-.36-.69-.97-.98-1.95-1.94-2.91-2.92-9.27-9.47-19.46-17.71-31.51-23.43-20.35-9.66-41.13-11.01-62.35-3.07-12.5,4.68-23.35,11.99-33.03,21.08-2.99,2.81-5.7,5.91-8.62,8.96,10.44,10.92,22.04,20.65,36.12,27.08,17.32,7.92,35.2,9.64,53.65,4.58,13.43-3.68,25.16-10.5,35.69-19.44,4.61-3.91,8.94-8.14,13.32-12.15Z"/>
  <path class="cls-1" d="m81.3,73.49c-16.14,0-29.36-13.42-29.36-29.8,0-15.96,13.33-29.27,29.31-29.27,16.37,0,29.78,13.24,29.76,29.4-.02,16.33-13.37,29.67-29.72,29.68Zm20.87-29.7c.04-11.45-9.13-20.49-20.8-20.52-11.41-.03-20.54,9-20.57,20.36-.04,11.72,8.9,20.96,20.32,21.01,11.86.06,21.03-9.01,21.06-20.85Z"/>
</svg>