<svg width="42" height="61" viewBox="0 0 42 61" fill="none" xmlns="http://www.w3.org/2000/svg">
<path d="M34.1092 0C34.5829 0.333789 34.7393 0.777378 34.7393 1.3659C34.7263 18.3321 34.7306 35.2982 34.7306 52.2644C34.7306 53.2965 34.4221 53.6171 33.4053 53.6171C22.6989 53.6171 11.9926 53.6171 1.28616 53.6171C0.291124 53.6171 0.0173805 53.3228 0.0173805 52.3039C0.00869025 35.2938 0.0130354 18.2838 0 1.27806C0 0.698322 0.16077 0.281086 0.651769 0H34.1092ZM1.88144 51.6934H32.8057V1.95442H1.88144V51.6978V51.6934Z" fill="white"/>
<path d="M40.1576 59.0983V58.1628C40.1576 41.7808 40.1576 25.3943 40.1576 9.01231C40.1576 8.71366 40.1533 8.40622 40.2098 8.11635C40.3054 7.62445 40.6617 7.39167 41.1353 7.41803C41.6089 7.44438 41.9218 7.71668 41.9869 8.21297C42.013 8.40183 42 8.59946 42 8.79271C42 25.7325 42 42.6767 42 59.6165C42 60.7497 41.7523 61 40.6139 61C29.9727 61 19.3314 61 8.69023 61C8.5425 61 8.39476 61.0088 8.24703 61C7.6952 60.9561 7.27807 60.5696 7.29545 60.0733C7.31717 59.5287 7.63437 59.2125 8.16013 59.1246C8.36869 59.0895 8.5816 59.1071 8.79451 59.1071C18.9491 59.1071 29.0993 59.1071 39.2539 59.1071C39.5276 59.1071 39.8013 59.1071 40.1576 59.1071V59.0983Z" fill="white"/>
</svg>
