<svg width="28" height="40" viewBox="0 0 28 40" fill="none" xmlns="http://www.w3.org/2000/svg">
<path d="M22.7337 0C23.0552 0.21309 23.1471 0.517504 23.1471 0.898021C23.1471 12.0244 23.1471 23.1507 23.1471 34.277C23.1471 34.9467 22.9481 35.1598 22.2592 35.1598C15.1252 35.1598 7.99125 35.1598 0.84199 35.1598C0.183707 35.1598 0 34.9619 0 34.2922C0 23.1355 0 11.9939 0 0.837138C0 0.456621 0.107162 0.182648 0.42865 0H22.7337ZM1.25533 33.8965H21.8764V1.27854H1.25533V33.8965Z" fill="white"/>
<path d="M26.7753 38.7519V38.1431C26.7753 27.3973 26.7753 16.6515 26.7753 5.92089C26.7753 5.72303 26.7753 5.52516 26.806 5.32729C26.8672 5.00765 27.1121 4.85545 27.4183 4.87067C27.7398 4.88589 27.9388 5.06854 27.9847 5.38817C28.0001 5.50994 27.9847 5.64692 27.9847 5.76869C27.9847 16.8798 27.9847 27.9909 27.9847 39.0868C27.9847 39.8326 27.8163 40 27.0662 40C19.9782 40 12.8748 40 5.78682 40C5.69496 40 5.5878 40 5.49595 40C5.12854 39.9696 4.85297 39.7108 4.86828 39.3912C4.86828 39.0411 5.09792 38.828 5.45002 38.7672C5.5878 38.7519 5.72558 38.7672 5.87867 38.7672C12.6452 38.7672 19.4118 38.7672 26.1783 38.7672C26.362 38.7672 26.5457 38.7672 26.7753 38.7672V38.7519Z" fill="white"/>
</svg>
