<svg width="43" height="43" viewBox="0 0 43 43" fill="none" xmlns="http://www.w3.org/2000/svg">
<g clip-path="url(#clip0_1005_48)">
<path d="M0 22.6431C0 21.8704 0 21.0978 0 20.3252C0.0315134 20.1675 0.0787834 20.0256 0.0945401 19.8679C0.299377 18.6064 0.393917 17.3134 0.724808 16.0835C3.65555 5.02996 14.3228 -1.70308 25.5573 0.378327C34.7908 2.0813 41.9601 9.90235 42.9055 19.316C43.2994 23.2265 42.7164 27.0109 40.9989 30.543C37.7215 37.276 32.3642 41.36 24.9743 42.7003C24.218 42.8422 23.4617 42.9053 22.6896 43.0157H20.3734C20.2473 42.9841 20.1055 42.921 19.9795 42.921C18.1675 42.8264 16.387 42.4795 14.6852 41.8488C6.71235 38.9001 1.90656 33.2709 0.315134 24.9295C0.173324 24.1726 0.0945401 23.4 0 22.6431ZM20.9722 1.21404C20.5152 1.4348 20.0898 1.59248 19.6959 1.81324C16.8281 3.35852 14.827 5.73953 13.2671 8.53051C11.5969 11.5265 10.6673 14.759 10.2418 18.1491C10.1315 19.0637 10.1158 19.994 10.037 20.9243H20.9564V1.21404H20.9722ZM22.0594 20.9401H32.9472C32.9472 20.8297 32.9472 20.7509 32.9472 20.6563C32.8685 18.0072 32.4588 15.4212 31.6394 12.8983C30.4104 9.16124 28.5511 5.81837 25.4943 3.26392C24.4701 2.41243 23.3514 1.70286 22.0594 1.24558V20.9401ZM20.9722 22.0439H10.0685C10.1473 25.7967 10.8879 29.3604 12.4163 32.7505C13.6295 35.4469 15.2525 37.8437 17.5529 39.7359C18.5771 40.5716 19.6801 41.2654 20.9722 41.7384V22.0597V22.0439ZM22.0594 41.7227C22.3115 41.6123 22.5163 41.5492 22.7054 41.4546C25.2422 40.2878 27.1488 38.4113 28.7087 36.1407C30.7728 33.1447 31.9861 29.7861 32.5848 26.2225C32.8212 24.8506 32.9 23.4473 33.0418 22.0124H22.0751V41.7069L22.0594 41.7227ZM24.4544 1.24558C27.8578 3.39006 30.048 6.4018 31.6079 9.90235C33.1678 13.4029 33.9084 17.0927 33.9872 20.9401H41.9128C41.8655 11.8734 34.9641 2.7751 24.4544 1.24558ZM34.0029 22.0281C34.0029 22.2804 33.9714 22.5012 33.9714 22.7062C33.8611 25.9544 33.2309 29.1081 32.0176 32.1356C30.4734 35.9988 28.2045 39.3259 24.6435 41.6281C24.6119 41.6438 24.6119 41.6911 24.5647 41.7384C35.8622 39.9724 42.0073 30.0857 41.897 22.0439H34.0029V22.0281ZM1.08721 22.0281C1.35508 32.6244 9.56431 40.5558 18.3881 41.6754C17.6475 41.0762 16.7966 40.4927 16.0718 39.7989C11.7545 35.6046 9.84793 30.3222 9.20191 24.488C9.10737 23.6838 9.07585 22.8638 9.02858 22.0439H1.07145L1.08721 22.0281ZM1.08721 20.9243H9.02858C9.02858 20.7194 9.0601 20.5459 9.07585 20.3725C9.17039 17.2188 9.75339 14.1755 10.8721 11.2269C12.4005 7.22174 14.6695 3.75273 18.3565 1.38749C18.4038 1.35596 18.4353 1.30865 18.4984 1.22981C8.3668 2.75933 1.26054 11.4003 1.08721 20.9243Z" fill="white"/>
</g>
<defs>
<clipPath id="clip0_1005_48">
<rect width="43" height="43" fill="white"/>
</clipPath>
</defs>
</svg>
