<svg width="61" height="61" viewBox="0 0 61 61" fill="none" xmlns="http://www.w3.org/2000/svg">
<path d="M0 32.1174C0 31.0213 0 29.9212 0 28.8252C0.0492266 28.6076 0.11076 28.3941 0.143578 28.1766C0.434835 26.3868 0.578413 24.5601 1.03786 22.8155C5.1852 7.14267 20.3101 -2.40962 36.239 0.529547C49.3415 2.94738 59.5109 14.0349 60.8359 27.3925C61.3856 32.9384 60.5652 38.2995 58.1243 43.3116C53.4683 52.8721 45.8751 58.652 35.3857 60.5485C34.3151 60.7414 33.2321 60.8522 32.1532 61H28.8632C28.6745 60.9507 28.4858 60.8727 28.2971 60.8604C25.725 60.7168 23.2063 60.2406 20.7941 59.3498C9.52125 55.175 2.70336 47.195 0.451244 35.3521C0.246133 34.2807 0.14768 33.1929 0 32.1133V32.1174ZM29.737 1.7241C29.0888 2.02786 28.494 2.26595 27.932 2.56972C23.8667 4.76178 21.028 8.13607 18.8087 12.1015C16.4335 16.3542 15.1126 20.9436 14.526 25.7546C14.366 27.0518 14.3373 28.3654 14.247 29.6831H29.737V1.7241ZM31.2835 29.6913H46.7202C46.7284 29.5353 46.7407 29.4163 46.7366 29.2972C46.634 25.5412 46.0433 21.8672 44.8742 18.2959C43.1389 12.9964 40.4971 8.25922 36.157 4.62632C34.7048 3.41124 33.1131 2.42194 31.2835 1.76515V29.6913ZM29.7411 31.2635H14.2716C14.3906 36.5836 15.4325 41.6368 17.6067 46.4437C19.3338 50.2614 21.6392 53.6603 24.8964 56.345C26.3403 57.5354 27.9115 58.5165 29.737 59.1733V31.2635H29.7411ZM31.2835 59.1815C31.6445 59.0337 31.9235 58.9311 32.1901 58.8079C35.7837 57.1536 38.4952 54.4895 40.7022 51.2753C43.6271 47.0184 45.3459 42.2731 46.191 37.2075C46.5151 35.2577 46.6299 33.2709 46.8473 31.243H31.2835V59.1774V59.1815ZM34.6802 1.75694C39.4962 4.79873 42.618 9.0597 44.8373 14.039C47.0525 19.0061 48.0903 24.2399 48.2093 29.6913H59.4576C59.3837 16.8263 49.5958 3.93258 34.6843 1.75694H34.6802ZM48.2175 31.2307C48.197 31.6001 48.1724 31.8916 48.1601 32.1872C48.0124 36.8053 47.1099 41.2715 45.3952 45.5571C43.2005 51.0372 39.9966 55.7497 34.9427 59.0132C34.9058 59.0378 34.8894 59.0994 34.8401 59.1733C50.8634 56.6692 59.5724 42.6507 59.4207 31.2307H48.2134H48.2175ZM1.52192 31.2348C1.90753 46.2754 13.5373 57.5231 26.0491 59.0994C24.9989 58.2497 23.8011 57.4246 22.7714 56.4271C16.6509 50.4872 13.9475 42.9874 13.0163 34.7076C12.8892 33.5582 12.8482 32.3965 12.7661 31.2348H1.52603H1.52192ZM1.53013 29.679H12.7907C12.8112 29.3876 12.8399 29.1454 12.8482 28.8991C12.9712 24.4328 13.804 20.1021 15.4038 15.9355C17.5821 10.2583 20.79 5.34469 26.0122 1.9745C26.0737 1.93345 26.1147 1.86367 26.205 1.76104C11.8636 3.91205 1.80087 16.1613 1.53013 29.6831V29.679Z" fill="white"/>
</svg>
