<svg width="59" height="32" viewBox="0 0 59 32" fill="none" xmlns="http://www.w3.org/2000/svg">
<g clip-path="url(#clip0_1005_67)">
<path d="M0.0161821 0C1.19748 0.468214 2.36259 0.904137 3.51152 1.3885C8.78689 3.6004 13.8681 6.16751 18.658 9.31584C21.0691 10.8981 23.3508 12.6418 25.4545 14.5954C25.5677 14.7084 25.7781 14.8052 25.9238 14.7891C26.6196 14.6761 27.2992 14.5308 27.9951 14.3047C27.8332 14.2079 27.6714 14.1271 27.5096 14.0303C25.859 13.0616 24.2732 12.0121 23.0919 10.4622C22.218 9.31584 21.6355 8.04036 21.6355 6.555C21.6355 4.00404 22.8168 2.13118 25.1956 1.22704C28.0436 0.129162 30.9402 0.129162 33.7883 1.24319C37.2674 2.59939 37.9632 6.29667 36.7658 8.92836C36.0699 10.4622 34.9534 11.6408 33.5941 12.5933C32.8173 13.1423 32.0082 13.6266 31.2153 14.1271C31.1182 14.1917 31.0373 14.2402 30.8593 14.3532C31.636 14.5146 32.3481 14.6599 33.0439 14.773C33.1572 14.7891 33.3352 14.7245 33.4323 14.6438C38.8694 9.6226 45.2128 6.03835 51.8799 2.95459C54.0806 1.93744 56.3461 1.08174 58.5793 0.145308C58.6925 0.0968719 58.8058 0.0645812 59 0C58.9029 0.581231 58.8382 1.11403 58.7087 1.63068C57.6731 5.55399 55.4237 8.65388 52.2035 11.0757C49.4364 13.1584 46.2809 14.4016 42.9312 15.1443C40.6657 15.6448 38.3678 15.9677 36.0538 15.9677C35.4065 15.9677 34.7592 15.9354 34.1281 15.887C33.7559 15.8547 33.5132 15.9354 33.2381 16.226C32.1539 17.3724 31.1182 18.551 30.212 19.8587C30.0664 20.0686 30.0664 20.2139 30.1796 20.44C31.4095 22.668 32.0406 25.0575 32.0244 27.5923C32.0244 28.7064 31.8464 29.8042 31.3124 30.8214C30.8431 31.7417 30.0502 32.1292 29.0631 31.9677C28.432 31.8547 28.0274 31.4511 27.72 30.9344C27.2183 30.0949 27.0403 29.1423 26.9756 28.1897C26.8138 25.4289 27.4772 22.8456 28.8042 20.4238C28.9174 20.1978 28.9013 20.0686 28.7718 19.8749C27.8171 18.4864 26.7329 17.227 25.5354 16.0484C25.4221 15.9354 25.1956 15.887 25.0176 15.887C23.9495 15.887 22.8815 16 21.8135 15.9354C16.4248 15.6125 11.2789 14.4016 6.84504 11.1241C3.57625 8.73461 1.31075 5.60242 0.258914 1.66297C0.129457 1.19475 0.0809106 0.710394 0 0.226034C0 0.177598 0 0.113017 0.0161821 0ZM57.6731 1.5338C57.5274 1.58224 57.4627 1.61453 57.398 1.63068C53.7408 3.06761 50.1646 4.73058 46.7016 6.60343C42.8664 8.67003 39.1931 10.995 35.8272 13.7881C35.4065 14.1433 35.0019 14.5146 34.5326 14.9183C34.6783 14.9183 34.743 14.9344 34.7916 14.9506C36.5716 14.999 38.3354 14.9344 40.0831 14.6761C42.5913 14.3047 45.051 13.7074 47.3812 12.7064C51.0222 11.1241 54.0159 8.7669 56.0549 5.31181C56.7507 4.14934 57.2847 2.9223 57.6569 1.5338H57.6731ZM24.3541 14.886C17.5738 8.91221 9.64454 4.92432 1.27839 1.50151C1.66676 2.90616 2.18459 4.1332 2.88042 5.29566C5.00027 8.86377 8.10724 11.2533 11.8939 12.8355C13.9813 13.7074 16.1659 14.2402 18.3829 14.5954C20.3571 14.9183 22.3313 15.0151 24.3541 14.886ZM29.4838 1.34006C28.0436 1.37235 26.6681 1.54995 25.3574 2.13118C23.2213 3.08375 22.3475 5.02119 22.655 7.20081C22.8653 8.70232 23.6744 9.91322 24.7586 10.9304C26.0856 12.1736 27.6391 13.0616 29.3058 13.7558C29.4353 13.8042 29.6133 13.7881 29.7427 13.7235C31.0373 13.2069 32.2186 12.4965 33.3352 11.6731C34.5003 10.8174 35.4065 9.75177 35.989 8.41171C36.8629 6.39354 36.3612 3.50353 33.9501 2.27649C32.5422 1.56609 31.0211 1.35621 29.5 1.32392L29.4838 1.34006ZM29.4838 21.005C28.076 23.5076 27.3478 26.0908 27.6552 28.9001C27.72 29.4975 27.9465 30.1271 28.254 30.6599C28.8365 31.6448 30.1149 31.6287 30.746 30.6599C30.9564 30.337 31.102 29.9495 31.1991 29.5621C31.5389 28.2543 31.4257 26.9304 31.1991 25.6065C30.924 23.9758 30.3415 22.4743 29.4838 21.005ZM29.4838 19.1322C30.39 18.0182 31.3448 16.8557 32.251 15.7417C31.3933 15.4995 30.5195 15.2412 29.6295 14.999C29.5485 14.9828 29.4353 14.9667 29.3544 14.999C28.4643 15.2412 27.5743 15.4995 26.7167 15.7578C27.6229 16.8718 28.5614 18.0182 29.4838 19.1483V19.1322Z" fill="white"/>
<path d="M29.4678 3.5519C30.5682 2.64777 31.8142 2.48631 33.0926 2.97067C34.3386 3.43889 34.9212 4.47219 35.0668 5.74767C35.2286 7.15231 34.6785 8.33092 33.8532 9.39651C32.7851 10.8011 31.3935 11.7376 29.7105 12.2542C29.5973 12.2865 29.4678 12.3188 29.3545 12.2865C26.7978 11.447 24.8721 9.91316 24.0306 7.26533C23.5613 5.77996 24.0792 4.16543 25.1796 3.32587C26.3123 2.45402 28.4645 2.50246 29.484 3.53576L29.4678 3.5519ZM29.5487 4.45604C29.0147 4.19772 28.5616 3.87481 28.06 3.7295C26.6359 3.29358 25.309 3.92325 24.8721 5.16643C24.597 5.9737 24.6455 6.79711 24.9692 7.57209C25.7945 9.59025 27.348 10.8496 29.3384 11.6246C29.4516 11.673 29.5973 11.6407 29.7105 11.5923C31.0051 11.0918 32.1379 10.3329 33.0117 9.23505C33.7723 8.29862 34.2901 7.24918 34.2577 5.98985C34.2092 4.87582 33.5457 3.95554 32.5262 3.69721C31.3773 3.4066 30.374 3.69721 29.5649 4.45604H29.5487Z" fill="white"/>
<path d="M27.0241 4.84354C27.7037 4.84354 28.2539 5.42477 28.2054 6.10287C28.2054 6.32891 28.0921 6.42578 27.8818 6.32891C27.2992 6.08673 26.7328 6.10287 26.1503 6.32891C25.8914 6.42578 25.8266 6.28047 25.8104 6.05444C25.7781 5.39248 26.3283 4.82739 27.0241 4.82739V4.84354Z" fill="white"/>
<path d="M31.9274 6.10287C31.6523 6.16745 31.361 6.23203 31.0859 6.31276C30.8432 6.39349 30.7622 6.31276 30.7461 6.07058C30.7137 5.40862 31.2315 4.84354 31.895 4.82739C32.5908 4.82739 33.141 5.36019 33.1248 6.02215C33.1248 6.29662 33.0277 6.39349 32.7365 6.29662C32.4776 6.19974 32.2025 6.16745 31.9112 6.08673L31.9274 6.10287Z" fill="white"/>
<path d="M28.7554 7.6045C28.8364 7.104 29.0305 6.86182 29.4513 6.86182C29.8882 6.86182 30.1633 7.104 30.0986 7.58835C30.0338 8.02428 29.8882 8.44406 29.7102 8.84769C29.5807 9.15445 29.3542 9.15445 29.2085 8.84769C29.0144 8.44406 28.9011 8.02428 28.7393 7.6045H28.7554Z" fill="white"/>
</g>
<defs>
<clipPath id="clip0_1005_67">
<rect width="59" height="32" fill="white"/>
</clipPath>
</defs>
</svg>
