<svg width="84" height="46" viewBox="0 0 84 46" fill="none" xmlns="http://www.w3.org/2000/svg">
<g clip-path="url(#clip0_703_51565)">
<path d="M0.0256793 0C1.71754 0.675554 3.3733 1.30434 5.00842 1.99548C12.5186 5.17578 19.7658 8.86534 26.5694 13.3916C29.9944 15.6676 33.2491 18.162 36.2563 20.9837C36.4214 21.1396 36.7154 21.2851 36.9217 21.254C37.9069 21.0981 38.8818 20.8798 39.8773 20.5628C39.6452 20.4329 39.4131 20.3082 39.181 20.1783C36.8289 18.7908 34.5799 17.2682 32.8984 15.0545C31.645 13.4019 30.8248 11.5676 30.8248 9.44216C30.8197 5.77858 32.5115 3.09196 35.8901 1.77203C39.9444 0.187076 44.0657 0.19747 48.1252 1.79801C53.0718 3.75192 54.0725 9.05761 52.36 12.8511C51.3645 15.0545 49.7758 16.7485 47.8415 18.1256C46.7428 18.9051 45.5874 19.6066 44.4577 20.3394C44.3288 20.4225 44.1998 20.5005 43.9522 20.6563C45.0664 20.8798 46.0619 21.0929 47.0574 21.2592C47.2225 21.2851 47.4649 21.1864 47.599 21.0617C55.3311 13.8437 64.3784 8.69905 73.859 4.26118C76.9848 2.80095 80.2138 1.56417 83.3912 0.228649C83.5511 0.161094 83.711 0.114324 83.9999 0.0155897C83.8503 0.852237 83.7678 1.62133 83.5769 2.35924C82.0965 7.99752 78.8882 12.451 74.3078 15.9379C70.367 18.9363 65.8846 20.7083 61.103 21.7892C57.874 22.5167 54.6141 22.9688 51.3026 22.9636C50.3896 22.9636 49.4714 22.9221 48.5584 22.8493C48.0375 22.8077 47.6816 22.9221 47.2999 23.3274C45.7524 24.9747 44.2824 26.674 43.0031 28.5447C42.7968 28.8461 42.7865 29.0592 42.9567 29.371C44.7002 32.5721 45.6028 35.9966 45.5822 39.655C45.5719 41.2659 45.3243 42.8457 44.5764 44.2955C43.8955 45.6207 42.7813 46.1819 41.368 45.9324C40.4808 45.7766 39.8928 45.1841 39.4595 44.4514C38.7425 43.2406 38.4898 41.8843 38.4073 40.5124C38.1751 36.5371 39.1242 32.8267 41.0018 29.3502C41.172 29.0332 41.1411 28.8409 40.9554 28.5655C39.5988 26.5752 38.0565 24.7512 36.344 23.0728C36.1789 22.9117 35.8591 22.8493 35.6064 22.8493C34.0848 22.8597 32.5631 23.0104 31.0518 22.9169C23.3662 22.4388 16.0623 20.7031 9.73842 16.0054C5.0858 12.5549 1.86713 8.05468 0.366115 2.38003C0.190739 1.71487 0.118525 1.01853 -0.000111307 0.33258C-0.0155857 0.254632 0.0102049 0.16629 0.0256793 0ZM82.1068 2.20334C81.9057 2.2761 81.8077 2.31247 81.7148 2.34885C76.5 4.42747 71.4244 6.8075 66.4932 9.49413C61.0308 12.4718 55.8004 15.808 51.024 19.8301C50.4257 20.3342 49.8428 20.8642 49.1774 21.4566C49.3837 21.4774 49.4663 21.4878 49.5488 21.493C52.0763 21.5657 54.5883 21.467 57.09 21.0929C60.6645 20.5524 64.1566 19.7106 67.4784 18.2503C72.6623 15.9742 76.9229 12.5861 79.8373 7.62856C80.8225 5.95526 81.5859 4.18324 82.112 2.20334H82.1068ZM34.6676 21.4099C25.0168 12.8147 13.7308 7.07772 1.82586 2.15138C2.37262 4.18324 3.12055 5.94487 4.10059 7.60777C7.11294 12.7316 11.5386 16.1717 16.9237 18.4426C19.8948 19.695 23 20.4641 26.1722 20.9837C28.9782 21.4462 31.7997 21.5917 34.6676 21.4099ZM41.9767 1.93312C39.9341 1.99028 37.9637 2.23972 36.0964 3.07637C33.0531 4.43787 31.8152 7.23882 32.2485 10.362C32.5476 12.5237 33.6927 14.2594 35.235 15.7196C37.1177 17.4968 39.3306 18.7856 41.7033 19.7833C41.8787 19.8561 42.1417 19.8197 42.3274 19.747C44.1586 18.9934 45.8556 17.9905 47.4391 16.8057C49.0949 15.5689 50.3947 14.0463 51.22 12.1236C52.4631 9.21351 51.7616 5.06146 48.3212 3.30502C46.3147 2.28129 44.1586 1.99028 41.9767 1.93312ZM41.9612 30.2024C39.9495 33.7933 38.9076 37.5192 39.3667 41.5569C39.4647 42.4248 39.7793 43.3342 40.2178 44.0877C41.0482 45.5167 42.8742 45.4803 43.7562 44.0773C44.0554 43.6044 44.2669 43.0484 44.4061 42.5027C44.8807 40.6164 44.7363 38.7092 44.4165 36.8177C44.0244 34.4844 43.194 32.3122 41.9612 30.1972V30.2024ZM41.9715 27.5106C43.2714 25.9049 44.6125 24.242 45.902 22.6466C44.6795 22.2933 43.4313 21.9295 42.1778 21.5761C42.0592 21.5398 41.9096 21.5346 41.791 21.5657C40.5221 21.9243 39.2583 22.2933 38.041 22.6466C39.3306 24.2472 40.6768 25.9049 41.9715 27.5106Z" fill="white"/>
<path d="M41.956 5.10833C43.5189 3.81438 45.2882 3.58053 47.1142 4.28207C48.8782 4.95762 49.7087 6.42825 49.915 8.27303C50.142 10.2893 49.3528 11.9834 48.1922 13.5268C46.6809 15.543 44.6847 16.8993 42.2862 17.632C42.1263 17.6788 41.9354 17.7256 41.7858 17.6788C38.139 16.4732 35.3949 14.2699 34.2085 10.466C33.538 8.3198 34.2859 6.01772 35.8333 4.80692C37.4427 3.55455 40.5169 3.6273 41.9509 5.10313L41.956 5.10833ZM42.0798 6.40747C41.3267 6.02812 40.6717 5.57602 39.9495 5.35776C37.9121 4.73417 36.0242 5.62279 35.4001 7.42599C34.9977 8.59522 35.0906 9.76445 35.5393 10.8921C36.7102 13.8022 38.9282 15.595 41.7652 16.7071C41.9148 16.7642 42.1366 16.733 42.2965 16.6707C44.1482 15.9432 45.7524 14.8519 47.0058 13.2877C48.0942 11.9314 48.837 10.4296 48.7699 8.6212C48.7132 7.01027 47.7538 5.69554 46.3043 5.32658C44.6692 4.91086 43.2352 5.34737 42.0747 6.41266L42.0798 6.40747Z" fill="white"/>
<path d="M38.4796 6.95828C39.4494 6.96867 40.2231 7.80532 40.156 8.76149C40.1354 9.08367 40.0013 9.22398 39.6918 9.09926C38.8665 8.75629 38.0464 8.76668 37.2211 9.09926C36.8497 9.24996 36.762 9.02131 36.7465 8.71472C36.6949 7.76374 37.4944 6.95308 38.4745 6.95828H38.4796Z" fill="white"/>
<path d="M45.4689 8.78209C45.0769 8.88083 44.6694 8.95878 44.2826 9.08869C43.9267 9.20821 43.8132 9.08869 43.7926 8.74052C43.741 7.79474 44.4889 6.97888 45.438 6.96329C46.4232 6.94251 47.2175 7.72719 47.1969 8.68855C47.1866 9.0731 47.068 9.23419 46.6502 9.08349C46.2788 8.94838 45.8868 8.89122 45.4689 8.78729V8.78209Z" fill="white"/>
<path d="M40.9504 10.9284C41.0588 10.2061 41.3528 9.86835 41.9511 9.85276C42.5701 9.84236 42.9621 10.2061 42.8693 10.8869C42.7867 11.5105 42.5752 12.1289 42.3277 12.7057C42.142 13.1422 41.8273 13.137 41.621 12.7057C41.3528 12.1392 41.1722 11.5209 40.9556 10.9284H40.9504Z" fill="white"/>
</g>
<defs>
<clipPath id="clip0_703_51565">
<rect width="84" height="46" fill="white"/>
</clipPath>
</defs>
</svg>
