<svg width="54" height="54" viewBox="0 0 54 54" fill="none" xmlns="http://www.w3.org/2000/svg">
<g clip-path="url(#clip0_703_51558)">
<path d="M0 26.9389C0 21.2728 0 15.6104 0 9.94434C0.00359258 6.98908 0.0179629 4.03382 0.0323332 1.07856C0.0359258 0.208522 0.247888 0 1.13885 0C18.3868 0 35.6384 0 52.8863 0C53.7952 0 53.9964 0.208522 53.9964 1.13609C53.9964 18.3751 53.9964 35.6177 53.9964 52.8567C53.9964 53.8059 53.7988 53.9964 52.8252 53.9964C35.6168 53.9964 18.4084 53.9964 1.19992 53.9964C0.204777 53.9964 0.0287406 53.8131 0.0287406 52.7956C0.0287406 44.1743 0.0287406 35.553 0.0287406 26.9317H0V26.9389ZM52.3546 10.7748H1.6921V52.339H52.3546V10.7748ZM52.3546 1.66099H1.6957V9.06351H52.3546V1.66458V1.66099Z" fill="white"/>
<path d="M27.0701 30.4369C31.7836 30.4369 36.5007 30.4369 41.2141 30.4369C41.4189 30.4369 41.6237 30.4369 41.8284 30.4441C42.3206 30.4693 42.5901 30.7605 42.6044 31.2279C42.6152 31.6737 42.3314 31.9469 41.9039 32.0368C41.7278 32.0763 41.5374 32.0548 41.3506 32.0548C31.7764 32.0548 22.2022 32.0548 12.628 32.0548C12.4232 32.0548 12.2077 32.0763 12.0173 32.0188C11.6041 31.893 11.3418 31.5982 11.3921 31.1524C11.4388 30.7533 11.6795 30.4765 12.1178 30.4477C12.3226 30.4333 12.5274 30.4369 12.7322 30.4369C17.5103 30.4369 22.2848 30.4369 27.063 30.4369H27.0701Z" fill="white"/>
<path d="M27.0341 37.7497C30.58 37.7497 34.1259 37.7533 37.6718 37.7461C38.1065 37.7461 38.4909 37.8575 38.5771 38.2962C38.6274 38.5514 38.5376 38.9253 38.3687 39.1123C38.2106 39.2848 37.8586 39.3424 37.5891 39.3424C34.3702 39.3567 31.1548 39.3532 27.9359 39.3532C24.1026 39.3532 20.2693 39.3496 16.4396 39.3567C15.9079 39.3567 15.4948 39.2273 15.4193 38.6341C15.3475 38.0876 15.7247 37.7569 16.4001 37.7569C19.5149 37.7569 22.6296 37.7569 25.7444 37.7569C26.1755 37.7569 26.6066 37.7569 27.0341 37.7569V37.7497Z" fill="white"/>
<path d="M45.2522 6.47142V4.25317H48.6149V6.47142H45.2522Z" fill="white"/>
<path d="M5.396 4.24585H7.64495V6.47847H5.396V4.24585Z" fill="white"/>
<path d="M11.0436 4.24585H13.2997V6.52521C12.6387 6.52521 11.9884 6.54319 11.3417 6.50723C11.2376 6.50364 11.0615 6.28433 11.0543 6.1585C11.0256 5.54731 11.04 4.93253 11.04 4.24585H11.0436Z" fill="white"/>
</g>
<defs>
<clipPath id="clip0_703_51558">
<rect width="54" height="54" fill="white"/>
</clipPath>
</defs>
</svg>
