<svg width="39" height="39" viewBox="0 0 39 39" fill="none" xmlns="http://www.w3.org/2000/svg">
<g clip-path="url(#clip0_1005_41)">
<path d="M0 19.4534C0 15.3702 0 11.2715 0 7.1883C0 5.04578 0 2.91879 0.0155131 0.776274C0.0310263 0.155255 0.186157 0 0.822196 0C13.2792 0 25.7363 0 38.1933 0C38.8449 0 39 0.155255 39 0.82285C39 13.2743 39 25.7257 39 38.1771C39 38.8603 38.8604 39 38.1623 39C25.7363 39 13.3103 39 0.884248 39C0.170644 39 0.0310263 38.8758 0.0310263 38.1306C0.0310263 31.9049 0.0310263 25.6791 0.0310263 19.4534H0ZM37.8055 7.77826H1.22554V37.789H37.8055V7.77826ZM37.8055 1.19546H1.22554V6.53623H37.8055V1.19546Z" fill="white"/>
<path d="M19.5466 21.984C22.944 21.984 26.3569 21.984 29.7542 21.984C29.9094 21.984 30.049 21.984 30.2041 21.984C30.5609 21.9996 30.7471 22.2169 30.7626 22.5429C30.7626 22.869 30.5609 23.0553 30.2507 23.1329C30.1265 23.164 29.9869 23.1329 29.8473 23.1329C22.9285 23.1329 16.0251 23.1329 9.10626 23.1329C8.95113 23.1329 8.796 23.1484 8.67189 23.1019C8.37714 23.0087 8.17547 22.7914 8.22201 22.4808C8.25304 22.1859 8.42368 21.9996 8.74946 21.9685C8.90459 21.9685 9.04421 21.9685 9.19934 21.9685C12.6433 21.9685 16.1027 21.9685 19.5466 21.9685V21.984Z" fill="white"/>
<path d="M19.5155 27.2627C22.0752 27.2627 24.6349 27.2627 27.1945 27.2627C27.5048 27.2627 27.784 27.3403 27.8461 27.6664C27.8771 27.8527 27.8151 28.1166 27.691 28.2563C27.5824 28.3805 27.3186 28.4271 27.1325 28.4271C24.8055 28.4271 22.4786 28.4271 20.1671 28.4271C17.4058 28.4271 14.6289 28.4271 11.8676 28.4271C11.4797 28.4271 11.185 28.334 11.1229 27.8992C11.0764 27.5111 11.3401 27.2627 11.8365 27.2627C14.086 27.2627 16.3354 27.2627 18.5848 27.2627C18.895 27.2627 19.2053 27.2627 19.5155 27.2627Z" fill="white"/>
<path d="M32.686 4.6731V3.07397H35.1216V4.6731H32.686Z" fill="white"/>
<path d="M3.89355 3.07397H5.52243V4.68862H3.89355V3.07397Z" fill="white"/>
<path d="M7.97363 3.05859H9.60251V4.70429C9.1216 4.70429 8.65621 4.70429 8.19082 4.70429C8.11325 4.70429 7.98915 4.54904 7.98915 4.45589C7.97363 4.02117 7.98915 3.57093 7.98915 3.07412L7.97363 3.05859Z" fill="white"/>
</g>
<defs>
<clipPath id="clip0_1005_41">
<rect width="39" height="39" fill="white"/>
</clipPath>
</defs>
</svg>
