<?xml version="1.0" encoding="UTF-8"?>
<svg id="Calque_1" data-name="Calque 1" xmlns="http://www.w3.org/2000/svg" viewBox="0 0 162.85 88.52">
  <defs>
    <style>
      .cls-1 {
        fill: purple;
      }
    </style>
  </defs>
  <path class="cls-1" d="m.05,0c3.28,1.3,6.49,2.51,9.66,3.84,14.56,6.12,28.61,13.22,41.8,21.93,6.64,4.38,12.95,9.18,18.78,14.61.32.3.89.58,1.29.52,1.91-.3,3.8-.72,5.73-1.33-.45-.25-.9-.49-1.35-.74-4.56-2.67-8.92-5.6-12.18-9.86-2.43-3.18-4.02-6.71-4.02-10.8-.01-7.05,3.27-12.22,9.82-14.76,7.86-3.05,15.85-3.03,23.72.05,9.59,3.76,11.53,13.97,8.21,21.27-1.93,4.24-5.01,7.5-8.76,10.15-2.13,1.5-4.37,2.85-6.56,4.26-.25.16-.5.31-.98.61,2.16.43,4.09.84,6.02,1.16.32.05.79-.14,1.05-.38,14.99-13.89,32.53-23.79,50.91-32.33,6.06-2.81,12.32-5.19,18.48-7.76.31-.13.62-.22,1.18-.41-.29,1.61-.45,3.09-.82,4.51-2.87,10.85-9.09,19.42-17.97,26.13-7.64,5.77-16.33,9.18-25.6,11.26-6.26,1.4-12.58,2.27-19,2.26-1.77,0-3.55-.08-5.32-.22-1.01-.08-1.7.14-2.44.92-3,3.17-5.85,6.44-8.33,10.04-.4.58-.42.99-.09,1.59,3.38,6.16,5.13,12.75,5.09,19.79-.02,3.1-.5,6.14-1.95,8.93-1.32,2.55-3.48,3.63-6.22,3.15-1.72-.3-2.86-1.44-3.7-2.85-1.39-2.33-1.88-4.94-2.04-7.58-.45-7.65,1.39-14.79,5.03-21.48.33-.61.27-.98-.09-1.51-2.63-3.83-5.62-7.34-8.94-10.57-.32-.31-.94-.43-1.43-.43-2.95.02-5.9.31-8.83.13-14.9-.92-29.06-4.26-41.32-13.3C9.86,24.16,3.62,15.5.71,4.58.37,3.3.23,1.96,0,.64c-.03-.15.02-.32.05-.64Zm159.13,4.24c-.39.14-.58.21-.76.28-10.11,4-19.95,8.58-29.51,13.75-10.59,5.73-20.73,12.15-29.99,19.89-1.16.97-2.29,1.99-3.58,3.13.4.04.56.06.72.07,4.9.14,9.77-.05,14.62-.77,6.93-1.04,13.7-2.66,20.14-5.47,10.05-4.38,18.31-10.9,23.96-20.44,1.91-3.22,3.39-6.63,4.41-10.44Zm-91.97,36.96C48.5,24.66,26.62,13.62,3.54,4.14c1.06,3.91,2.51,7.3,4.41,10.5,5.84,9.86,14.42,16.48,24.86,20.85,5.76,2.41,11.78,3.89,17.93,4.89,5.44.89,10.91,1.17,16.47.82ZM81.38,3.72c-3.96.11-7.78.59-11.4,2.2-5.9,2.62-8.3,8.01-7.46,14.02.58,4.16,2.8,7.5,5.79,10.31,3.65,3.42,7.94,5.9,12.54,7.82.34.14.85.07,1.21-.07,3.55-1.45,6.84-3.38,9.91-5.66,3.21-2.38,5.73-5.31,7.33-9.01,2.41-5.6,1.05-13.59-5.62-16.97-3.89-1.97-8.07-2.53-12.3-2.64Zm-.03,54.4c-3.9,6.91-5.92,14.08-5.03,21.85.19,1.67.8,3.42,1.65,4.87,1.61,2.75,5.15,2.68,6.86-.02.58-.91.99-1.98,1.26-3.03.92-3.63.64-7.3.02-10.94-.76-4.49-2.37-8.67-4.76-12.74Zm.02-5.18c2.52-3.09,5.12-6.29,7.62-9.36-2.37-.68-4.79-1.38-7.22-2.06-.23-.07-.52-.08-.75-.02-2.46.69-4.91,1.4-7.27,2.08,2.5,3.08,5.11,6.27,7.62,9.36Z"/>
  <path class="cls-1" d="m81.34,9.83c3.03-2.49,6.46-2.94,10-1.59,3.42,1.3,5.03,4.13,5.43,7.68.44,3.88-1.09,7.14-3.34,10.11-2.93,3.88-6.8,6.49-11.45,7.9-.31.09-.68.18-.97.09-7.07-2.32-12.39-6.56-14.69-13.88-1.3-4.13.15-8.56,3.15-10.89,3.12-2.41,9.08-2.27,11.86.57Zm.24,2.5c-1.46-.73-2.73-1.6-4.13-2.02-3.95-1.2-7.61.51-8.82,3.98-.78,2.25-.6,4.5.27,6.67,2.27,5.6,6.57,9.05,12.07,11.19.29.11.72.05,1.03-.07,3.59-1.4,6.7-3.5,9.13-6.51,2.11-2.61,3.55-5.5,3.42-8.98-.11-3.1-1.97-5.63-4.78-6.34-3.17-.8-5.95.04-8.2,2.09Z"/>
  <path class="cls-1" d="m74.6,13.39c1.88.02,3.38,1.63,3.25,3.47-.04.62-.3.89-.9.65-1.6-.66-3.19-.64-4.79,0-.72.29-.89-.15-.92-.74-.1-1.83,1.45-3.39,3.35-3.38Z"/>
  <path class="cls-1" d="m88.15,16.9c-.76.19-1.55.34-2.3.59-.69.23-.91,0-.95-.67-.1-1.82,1.35-3.39,3.19-3.42,1.91-.04,3.45,1.47,3.41,3.32-.02.74-.25,1.05-1.06.76-.72-.26-1.48-.37-2.29-.57Z"/>
  <path class="cls-1" d="m79.39,21.03c.21-1.39.78-2.04,1.94-2.07,1.2-.02,1.96.68,1.78,1.99-.16,1.2-.57,2.39-1.05,3.5-.36.84-.97.83-1.37,0-.52-1.09-.87-2.28-1.29-3.42Z"/>
</svg>