<svg width="658" height="658" viewBox="0 0 658 658" fill="none" xmlns="http://www.w3.org/2000/svg">
<path fill-rule="evenodd" clip-rule="evenodd" d="M82.7855 0.802291C78.9 0.859583 75.1918 2.42736 72.447 5.17722L4.51498 73.1092H4.50977C-1.31836 78.9426 -1.31836 88.3959 4.50977 94.2292L239.67 329.296L4.50977 564.456C-1.31836 570.284 -1.31836 579.737 4.50977 585.571L72.4418 653.503H72.447C78.2751 659.336 87.7337 659.336 93.567 653.503L328.634 418.343L563.794 653.503H563.788C569.622 659.331 579.075 659.331 584.903 653.503L652.835 585.571H652.84C658.668 579.737 658.668 570.284 652.84 564.456L417.68 329.296L652.84 94.2292C658.668 88.3959 658.668 78.9426 652.84 73.1092L584.908 5.17722H584.903C579.075 -0.650909 569.622 -0.650909 563.788 5.17722L328.628 240.337L93.5618 5.17722H93.567C90.7129 2.32309 86.8219 0.744957 82.7855 0.802291Z" fill="white"/>
</svg>
