<svg xmlns="http://www.w3.org/2000/svg" version="1.1" xmlns:xlink="http://www.w3.org/1999/xlink" xmlns:svgjs="http://svgjs.com/svgjs" width="164.82668" height="164.82666"><svg version="1.1" id="SvgjsSvg1003" width="164.82668" height="164.82666" viewBox="0 0 164.82668 164.82666" xmlns="http://www.w3.org/2000/svg" xmlns:svg="http://www.w3.org/2000/svg">
  <defs id="SvgjsDefs1002"></defs>
  <g id="SvgjsG1001" transform="matrix(1.3333333,0,0,-1.3333333,-8.1630935,457.72902)">
    <path d="m 106.25232,281.48678 c 0,-21.13 -17.189995,-38.32 -38.32,-38.32 -7.13,0 -14.1,1.98 -20.13,5.74 l 11,11.01 c 1.61,-0.45 3.28,-0.68 4.95,-0.68 10.2,0 18.49,8.3 18.49,18.5 0,10.21 -8.29,18.51 -18.49,18.51 -10.21,0 -18.51,-8.3 -18.51,-18.51 0,-1.62 0.22,-3.28 0.68,-4.95 l -10.89,-10.9 c -3.55,5.93 -5.42,12.71 -5.42,19.6 0,21.13 17.19,38.32 38.32,38.32 h 38.32 z m -38.32,61.81 c -34.08,0 -61.8099999,-27.73 -61.8099999,-61.81 0,-34.08 27.7299999,-61.81 61.8099999,-61.81 34.09,0 61.81,27.73 61.81,61.81 v 61.81 z" style="fill:#52b788;fill-opacity:1;fill-rule:nonzero;stroke:none" id="SvgjsPath1000"></path>
  </g>
</svg>