<svg width="607" height="607" viewBox="0 0 607 607" fill="none" xmlns="http://www.w3.org/2000/svg">
<path d="M303.667 0C136.133 0 0.333496 135.8 0.333496 303.333C0.333496 470.867 136.133 606.667 303.667 606.667C471.2 606.667 607 470.867 607 303.333C607 135.8 471.2 0 303.667 0ZM303.667 46.6667C445.187 46.6667 560.334 161.817 560.334 303.333C560.334 444.849 445.183 560 303.667 560C162.151 560 47.0002 444.849 47.0002 303.333C47.0002 161.817 162.151 46.6667 303.667 46.6667Z" fill="white"/>
<path d="M254.173 418.853L254.194 418.874L452.314 220.781L419.298 187.765L254.165 352.912L188.014 286.761L155.02 319.756L254.14 418.876L254.16 418.855L254.173 418.853Z" fill="white"/>
</svg>
